<?xml version="1.0" encoding="UTF-8"?>
<svg width="262px" height="229px" viewBox="0 0 262 229" version="1.1" xmlns="http://www.w3.org/2000/svg" xmlns:xlink="http://www.w3.org/1999/xlink">
    <title>Graphic/Device</title>
    <g id="Devices" stroke="none" stroke-width="1" fill="none" fill-rule="evenodd">
        <g id="Devices-/-Empty-state" transform="translate(-589.000000, -317.000000)" fill-rule="nonzero">
            <g id="Group" transform="translate(485.000000, 317.000000)">
                <g transform="translate(104.000000, 0.000000)" id="Device-graphic">
                    <path d="M243.688172,1.42108547e-14 C253.785032,1.42108547e-14 262,8.21496774 262,18.311828 L262,209.88172 C262,219.978581 253.785032,228.193548 243.688172,228.193548 L18.311828,228.193548 C8.21496774,228.193548 0,219.978581 0,209.88172 L0,18.311828 C0,8.21496774 8.21496774,1.42108547e-14 18.311828,1.42108547e-14 L243.688172,1.42108547e-14 Z M160.58,8.451 L18.311828,8.4516129 C12.8746237,8.4516129 8.4516129,12.8746237 8.4516129,18.311828 L8.451,42.258 L36.7490215,42.2580645 L61.0431828,26.0647742 C61.7376237,25.6013441 62.5532043,25.3548387 63.3870968,25.3548387 L93.6895491,25.3540195 C95.4342132,20.4357864 100.134108,16.9032258 105.642344,16.9032258 C112.631828,16.9032258 118.319763,22.5911613 118.319763,29.5806452 C118.319763,36.570129 112.631828,42.2580645 105.642344,42.2580645 C100.134108,42.2580645 95.4342132,38.725504 93.6895491,33.8072708 L64.6661075,33.8064516 L40.3733548,49.9997419 C39.678914,50.463172 38.8633333,50.7096774 38.0294409,50.7096774 L8.451,50.709 L8.451,185.935 L29.5806452,185.935484 C30.2370538,185.935484 30.8836022,186.087613 31.4709892,186.382011 L47.4741183,194.387097 L110.595237,194.387279 C112.339618,189.468524 117.039777,185.935484 122.548387,185.935484 C129.537871,185.935484 135.225806,191.623419 135.225806,198.612903 C135.225806,205.602387 129.537871,211.290323 122.548387,211.290323 C117.039777,211.290323 112.339618,207.757283 110.595237,202.838528 L46.476828,202.83871 C45.8204194,202.83871 45.173871,202.686581 44.5864839,202.392183 L28.5833548,194.387097 L8.451,194.387 L8.4516129,209.88172 C8.4516129,215.318925 12.8746237,219.741935 18.311828,219.741935 L164.806,219.741 L164.806452,190.16129 C164.806452,189.041452 165.25157,187.96528 166.044613,187.173645 L198.612903,154.603946 L198.612084,134.501182 C193.693851,132.756518 190.16129,128.056624 190.16129,122.548387 C190.16129,115.558903 195.849226,109.870968 202.83871,109.870968 C209.828194,109.870968 215.516129,115.558903 215.516129,122.548387 C215.516129,128.056777 211.983372,132.756779 207.064925,134.501327 L207.064516,156.354839 C207.064516,157.474677 206.619398,158.550849 205.826355,159.342484 L173.258065,191.912183 L173.258,219.741 L190.161,219.741 L190.16129,198.612903 C190.16129,197.493065 190.606409,196.416892 191.399452,195.625258 L223.967742,163.055559 L223.967517,117.598666 C219.04824,115.854568 215.51472,111.154145 215.51472,105.645161 C215.51472,98.6556774 221.202656,92.9677419 228.19214,92.9677419 C235.181624,92.9677419 240.869559,98.6556774 240.869559,105.645161 C240.869559,111.153024 237.337478,115.852654 232.419767,117.597601 L232.419355,164.806452 C232.419355,165.92629 231.974237,167.002462 231.181194,167.794097 L198.612903,200.363796 L198.612,219.741 L243.688172,219.741935 C249.125376,219.741935 253.548387,215.318925 253.548387,209.88172 L253.548387,18.311828 C253.548387,12.8746237 249.125376,8.4516129 243.688172,8.4516129 L211.29,8.451 L211.290323,37.0349677 L218.279909,51.0132111 C223.94519,52.2780808 228.193548,57.3465211 228.193548,63.3870968 C228.193548,70.3765806 222.505613,76.0645161 215.516129,76.0645161 C208.526645,76.0645161 202.83871,70.3765806 202.83871,63.3870968 C202.83871,58.5931006 205.514548,54.4114062 209.450871,52.2573661 L203.283828,39.9211935 C202.990839,39.3352151 202.83871,38.6886667 202.83871,38.0322581 L202.838,8.451 L169.032,8.451 L169.032258,28.5833548 L185.488957,61.4967527 C185.783355,62.0841398 185.935484,62.7306882 185.935484,63.3870968 L185.936303,85.2407534 C190.854536,86.9854175 194.387097,91.6853118 194.387097,97.1935484 C194.387097,104.183032 188.699161,109.870968 181.709677,109.870968 C174.720194,109.870968 169.032258,104.183032 169.032258,97.1935484 C169.032258,91.6853118 172.564819,86.9854175 177.483052,85.2407534 L177.483871,64.3843871 L161.027172,31.4709892 C160.732774,30.8836022 160.580645,30.2370538 160.580645,29.5806452 L160.58,8.451 Z M122.548387,194.387097 C120.218559,194.387097 118.322581,196.283075 118.322581,198.612903 C118.322581,200.942731 120.218559,202.83871 122.548387,202.83871 C124.878215,202.83871 126.774194,200.942731 126.774194,198.612903 C126.774194,196.283075 124.878215,194.387097 122.548387,194.387097 Z M202.83871,118.322581 C200.508882,118.322581 198.612903,120.218559 198.612903,122.548387 C198.612903,124.878215 200.508882,126.774194 202.83871,126.774194 C205.168538,126.774194 207.064516,124.878215 207.064516,122.548387 C207.064516,120.218559 205.168538,118.322581 202.83871,118.322581 Z M228.19214,101.419355 C225.862312,101.419355 223.966333,103.315333 223.966333,105.645161 C223.966333,107.974989 225.862312,109.870968 228.19214,109.870968 C230.521968,109.870968 232.417946,107.974989 232.417946,105.645161 C232.417946,103.315333 230.521968,101.419355 228.19214,101.419355 Z M181.709677,92.9677419 C179.379849,92.9677419 177.483871,94.8637204 177.483871,97.1935484 C177.483871,99.5233763 179.379849,101.419355 181.709677,101.419355 C184.039505,101.419355 185.935484,99.5233763 185.935484,97.1935484 C185.935484,94.8637204 184.039505,92.9677419 181.709677,92.9677419 Z M215.516129,59.1612903 C213.186301,59.1612903 211.290323,61.0572688 211.290323,63.3870968 C211.290323,65.7169247 213.186301,67.6129032 215.516129,67.6129032 C217.845957,67.6129032 219.741935,65.7169247 219.741935,63.3870968 C219.741935,61.0572688 217.845957,59.1612903 215.516129,59.1612903 Z M105.642344,25.3548387 C103.333696,25.3548387 101.451046,27.2165016 101.417007,29.5172131 C101.4192,29.5384452 101.419355,29.5595271 101.419355,29.5806452 L101.418,29.643 L101.42172,29.7912118 C101.531844,32.0236399 103.383117,33.8064516 105.642344,33.8064516 C107.972172,33.8064516 109.868151,31.9104731 109.868151,29.5806452 C109.868151,27.2508172 107.972172,25.3548387 105.642344,25.3548387 Z" id="Combined-Shape" fill-opacity="0.15" fill="#FFFFFF"></path>
                    <circle id="Oval" fill="#D41F1D" cx="105.592548" cy="29.5322581" r="4.5"></circle>
                    <circle id="Oval" fill="#D41F1D" cx="181.758065" cy="97.2419355" r="4.5"></circle>
                    <circle id="Oval" fill="#D41F1D" cx="202.887097" cy="122.596774" r="4.5"></circle>
                    <circle id="Oval" fill="#D41F1D" cx="122.596774" cy="198.66129" r="4.5"></circle>
                    <circle id="Oval" fill="#D41F1D" cx="228.240527" cy="105.693548" r="4.5"></circle>
                    <circle id="Oval" fill="#D41F1D" cx="215.564516" cy="63.4354839" r="4.5"></circle>
                    <path d="M122.54557,59.1612903 C124.879624,59.1612903 126.771376,61.053043 126.771376,63.3870968 L126.771022,76.0642903 L130.997183,76.0645161 C133.331237,76.0645161 135.222989,77.9562688 135.222989,80.2903226 L135.222022,84.5152903 L147.900409,84.516129 C150.234462,84.516129 152.126215,86.4078817 152.126215,88.7419355 C152.126215,91.0759892 150.233054,92.9677419 147.900409,92.9677419 L135.222022,92.9672903 L135.222022,101.41929 L147.900409,101.419355 C150.234462,101.419355 152.126215,103.311108 152.126215,105.645161 C152.126215,107.979215 150.233054,109.870968 147.900409,109.870968 L135.222022,109.87029 L135.222022,118.32229 L147.900409,118.322581 C150.234462,118.322581 152.126215,120.214333 152.126215,122.548387 C152.126215,124.882441 150.233054,126.774194 147.900409,126.774194 L135.222022,126.77329 L135.222022,135.22529 L147.900409,135.225806 C150.234462,135.225806 152.126215,137.117559 152.126215,139.451613 C152.126215,141.785667 150.233054,143.677419 147.900409,143.677419 L135.222022,143.67729 L135.222989,147.903226 C135.222989,150.23728 133.329828,152.129032 130.997183,152.129032 L126.771022,152.12829 L126.771376,164.806452 C126.771376,167.140505 124.878215,169.032258 122.54557,169.032258 C120.211516,169.032258 118.319763,167.140505 118.319763,164.806452 L118.319022,152.12829 L109.868022,152.12829 L109.868151,164.806452 C109.868151,167.140505 107.974989,169.032258 105.642344,169.032258 C103.30829,169.032258 101.416538,167.140505 101.416538,164.806452 L101.416022,152.12829 L92.9640215,152.12829 L92.9649247,164.806452 C92.9649247,167.140505 91.0717634,169.032258 88.7391183,169.032258 C86.4050645,169.032258 84.5133118,167.140505 84.5133118,164.806452 L84.5130215,152.12829 L76.0610215,152.12829 L76.0616989,164.806452 C76.0616989,167.140505 74.1685376,169.032258 71.8358925,169.032258 C69.5018387,169.032258 67.610086,167.140505 67.610086,164.806452 L67.6100215,152.12829 L59.1580215,152.12829 L59.1584731,164.806452 C59.1584731,167.140505 57.2653118,169.032258 54.9326667,169.032258 C52.5986129,169.032258 50.7068602,167.140505 50.7068602,164.806452 L50.7060215,152.12829 L46.476828,152.129032 C44.1427742,152.129032 42.2510215,150.23728 42.2510215,147.903226 L42.2510215,143.67729 L29.577828,143.677419 C27.2437742,143.677419 25.3520215,141.785667 25.3520215,139.451613 C25.3520215,137.117559 27.2437742,135.225806 29.577828,135.225806 L42.2510215,135.22529 L42.2510215,126.77329 L29.577828,126.774194 C27.2437742,126.774194 25.3520215,124.882441 25.3520215,122.548387 C25.3520215,120.214333 27.2437742,118.322581 29.577828,118.322581 L42.2510215,118.32229 L42.2510215,109.87029 L29.577828,109.870968 C27.2437742,109.870968 25.3520215,107.979215 25.3520215,105.645161 C25.3520215,103.311108 27.2437742,101.419355 29.577828,101.419355 L42.2510215,101.41929 L42.2510215,92.9672903 L29.577828,92.9677419 C27.2437742,92.9677419 25.3520215,91.0759892 25.3520215,88.7419355 C25.3520215,86.4078817 27.2437742,84.516129 29.577828,84.516129 L42.2510215,84.5152903 L42.2510215,80.2903226 C42.2510215,77.9562688 44.1427742,76.0645161 46.476828,76.0645161 L50.7060215,76.0642903 L50.7068602,63.3870968 C50.7068602,61.053043 52.5986129,59.1612903 54.9326667,59.1612903 C57.2667204,59.1612903 59.1584731,61.053043 59.1584731,63.3870968 L59.1580215,76.0642903 L67.6100215,76.0642903 L67.610086,63.3870968 C67.610086,61.053043 69.5018387,59.1612903 71.8358925,59.1612903 C74.1699462,59.1612903 76.0616989,61.053043 76.0616989,63.3870968 L76.0610215,76.0642903 L84.5130215,76.0642903 L84.5133118,63.3870968 C84.5133118,61.053043 86.4050645,59.1612903 88.7391183,59.1612903 C91.073172,59.1612903 92.9649247,61.053043 92.9649247,63.3870968 L92.9640215,76.0642903 L101.416022,76.0642903 L101.416538,63.3870968 C101.416538,61.053043 103.30829,59.1612903 105.642344,59.1612903 C107.976398,59.1612903 109.868151,61.053043 109.868151,63.3870968 L109.868022,76.0642903 L118.319022,76.0642903 L118.319763,63.3870968 C118.319763,61.053043 120.211516,59.1612903 122.54557,59.1612903 Z M126.771376,84.516129 L50.7026344,84.516129 L50.7035377,88.5727874 C50.7057458,88.6288957 50.7068602,88.6852853 50.7068602,88.7419355 L50.7020215,88.9102903 L50.7035377,105.476013 C50.7057458,105.532122 50.7068602,105.588511 50.7068602,105.645161 L50.7020215,105.81329 L50.7035377,122.379239 C50.7057458,122.435347 50.7068602,122.491737 50.7068602,122.548387 L50.7020215,122.71729 L50.7035377,139.282465 C50.7057458,139.338573 50.7068602,139.394963 50.7068602,139.451613 L50.7020215,139.62029 L50.7026344,143.677419 L126.771376,143.677419 L126.771376,84.516129 Z" id="Combined-Shape" fill-opacity="0.05" fill="#FFFFFF"></path>
                </g>
            </g>
        </g>
    </g>
</svg>