<?xml version="1.0" encoding="iso-8859-1"?>
<!-- Generator: Adobe Illustrator 16.0.0, SVG Export Plug-In . SVG Version: 6.00 Build 0)  -->
<!DOCTYPE svg PUBLIC "-//W3C//DTD SVG 1.1//EN" "http://www.w3.org/Graphics/SVG/1.1/DTD/svg11.dtd">
<svg version="1.1" id="Capa_1" xmlns="http://www.w3.org/2000/svg" xmlns:xlink="http://www.w3.org/1999/xlink" x="0px" y="0px"
	 width="335.075px" height="335.074px" viewBox="-50 -50 435.075 435.074" style="enable-background:new 0 0 335.075 335.074;"
	 xml:space="preserve"><!-- initial viewBox: "0 0 335.075 335.074"-->
<g>
	<g>
		<path d="M101.22,40.756c-1.083,1.429-2.36,2.318-2.801,2.575c-0.147,0.06-0.291,0.14-0.428,0.238
			c-0.553,0.421-0.823,1.133-0.672,1.812c0.147,0.676,0.679,1.205,1.357,1.355c0.556,0.123,1.075,0.109,2.663-1.107
			c0.705-0.539,1.749-1.458,2.712-2.729l0.421-0.558c3.605-4.801,12.055-16.031,24.256-15.422
			c10.061,0.732,17.193,8.33,20.624,21.976c0.115,0.462,0.188,0.75,0.262,0.963c0.527,2.236,1.407,5.015,2.678,5.925
			c0.315,0.229,0.676,0.337,1.037,0.337c0.551,0,1.097-0.255,1.44-0.736c0.555-0.771,0.408-1.829-0.321-2.417
			c-0.351-0.455-1.006-2.351-1.403-4.048c-0.021-0.101-0.055-0.199-0.091-0.294c-0.03-0.115-0.097-0.368-0.154-0.595
			c-0.542-2.161-1.986-7.905-5.494-13.312c-4.524-6.974-10.692-10.79-18.338-11.341c-0.015,0-0.025,0-0.039-0.003
			c-14.094-0.717-23.346,11.585-27.295,16.838L101.22,40.756z"/>
		<path d="M114.56,40.286c-0.806,0.886-1.531,1.839-2.308,2.751c-1.023,1.194-2.135,2.31-3.302,3.36
			c-1.194,1.08-2.165,1.854-3.578,2.666c-1.499,0.859-3.027,1.729-4.579,2.484c-0.538,0.26-0.993,0.432-1.595,0.611
			c-0.929,0.281-1.504,1.237-1.241,2.187c0.248,0.917,1.254,1.518,2.184,1.24c1.819-0.547,3.461-1.483,5.102-2.414
			c1.384-0.789,2.76-1.497,4.033-2.464c2.481-1.889,4.615-4.09,6.577-6.497c0.796-0.974,1.648-1.906,2.534-2.799
			c0.483-0.491,0.984-0.955,1.499-1.417c0.267-0.238,0.537-0.472,0.81-0.7c0.137-0.116,0.277-0.232,0.421-0.351
			c0.036-0.029,0.298-0.231,0.375-0.298c1.241-0.95,2.558-1.795,3.949-2.51c1.311-0.669,2.625-1.141,4.22-1.475
			c0.529-0.111,0.645-0.118,1.04-0.164c0.96-0.098,1.778-0.732,1.778-1.778c0-0.89-0.806-1.874-1.778-1.776
			C124.284,31.609,118.79,35.621,114.56,40.286z"/>
		<path d="M154.895,68.173c0.438-0.753,0.251-2.053-0.638-2.428c-1.482-0.632-3.032-1.287-4.279-2.324
			c-1.373-1.138-2.011-2.639-2.295-4.37c-0.371-2.257-3.795-1.297-3.427,0.946c0.76,4.604,4.153,7.104,8.207,8.817
			C153.357,69.186,154.354,69.088,154.895,68.173z"/>
		<path d="M257.06,217.561c0.828-9.5-1.451-17.542-6.762-23.914c-7.844-9.366-19.88-12.289-25.017-13.135
			c-3.271-8.202-8.261-13.609-14.852-16.072c-2.581-0.963-5.387-1.458-8.337-1.458c-4.948,0-9.411,1.364-12.408,2.572
			c-3.96-7.18-9.247-11.642-15.715-13.271c-1.786-0.452-3.667-0.683-5.596-0.683c-6.17,0-11.812,2.32-15.652,4.408
			c-1.332-8.886-3.08-30.007-4.367-45.545l-0.01-0.178c-1.338-16.243-2.25-26.881-2.993-33.939c1.431,0.863,2.933,1.605,4.511,2.089
			c2.197,0.676,3.129-2.751,0.946-3.424c-1.336-0.411-2.348-0.936-3.758-1.766c-0.784-0.464-1.528-1.006-2.238-1.595
			c-0.611-4.745-1.143-7.044-1.781-8.166c-0.49-1.679-1.381-3.554-2.565-5.407c1.129-1.475,2.082-2.986,2.702-4.531
			c1.338-3.347,1.374-6.81,0.087-9.493c-1.145-2.397-3.284-4.129-6.177-5.012c-4.243-1.301-9.396,1.056-14.113,6.462
			c-0.027,0.031-1.485,1.545-3.689,3.575c-0.97,0.612-1.932,1.429-2.846,2.505c-2.183,1.839-4.71,3.788-7.296,5.368
			c-0.053,0.033-5.214,3.133-10.604,4.598c-0.949,0.26-1.507,1.237-1.247,2.183c0.258,0.946,1.233,1.508,2.183,1.244
			c5.862-1.595,11.28-4.846,11.518-4.989c0.512-0.312,1.006-0.659,1.504-0.993c-0.679,1.995-1.276,4.307-1.745,7.001
			c-5.256,2.786-9.598,4.41-11.165,4.942c-0.077,0.027-0.126,0.049-0.144,0.056c-0.917,0.348-1.381,1.371-1.03,2.288
			c0.271,0.708,0.946,1.146,1.662,1.146c0.204,0,0.405-0.036,0.605-0.106l0.063-0.023c1.408-0.484,4.948-1.787,9.406-3.992
			c-0.074,0.625-0.15,1.224-0.21,1.882c0,1.287,0,2.555-0.003,3.832c-2.878,1.583-5.761,3.063-8.299,4.144
			c-0.903,0.383-1.321,1.431-0.939,2.334c0.291,0.671,0.946,1.076,1.637,1.076c0.231,0,0.469-0.046,0.696-0.144
			c2.13-0.91,4.504-2.117,6.897-3.392c-0.14,65.824-1.969,114.001-2.383,124.106c-6.199,2.82-11.858,9.213-12.486,9.938
			c-19.939,22.024-10.489,38.208-10.079,38.875c15.244,26.687,46.733,79.22,47.024,79.702l0.617,1.021l0.301-0.182v0.476h100.703
			l3.716,1.099l5.202-17.795C263.446,277.339,257.779,223.46,257.06,217.561z M136.037,42.438c1.949,0.595,3.299,1.656,4.013,3.15
			c0.859,1.79,0.795,4.204-0.178,6.641c-0.368,0.914-0.912,1.87-1.608,2.859c-3.267-3.908-7.713-7.182-12.289-7.601
			C128.827,44.344,132.86,41.466,136.037,42.438z M235.812,314.551l-3.556,11.979h-95.44c-6.694-11.184-32.334-54.104-45.542-77.211
			c-0.291-0.503-6.959-12.519,9.245-30.416c1.731-2.02,7.169-7.512,11.505-8.655l2.575-0.688l0.111-2.659
			c0.029-0.414,2.506-54.404,2.481-134.375c0.979-10.752,3.855-17.571,7.479-17.789l0.168-0.007c4.503,0,10.442,7.135,11.329,11.272
			l0.518,2.44l0.306,0.048c1.101,6.192,2.753,26.224,4.097,42.392c4.387,53.125,4.916,53.283,8.384,54.323l1.785,0.519l1.468-1.125
			c0.786-0.585,7.861-5.711,15.653-5.711c1.333,0,2.625,0.158,3.819,0.458c5.153,1.294,9.355,5.508,12.494,12.507l1.652,3.695
			l3.494-2.032c0.233-0.123,5.917-3.23,12.252-3.23c2.084,0,4.027,0.328,5.79,0.985c5.01,1.872,8.812,6.495,11.317,13.74
			l0.773,2.241l2.354,0.212c0.138,0.014,14.545,1.476,22.375,10.862c4.079,4.883,5.79,11.211,5.085,18.842l-0.021,0.531l0.034,0.229
			C250.065,220.25,256.277,275.323,235.812,314.551z"/>
		<path d="M 151.628,120.506 179.462,120.506 179.462,92.676 175.629,92.676 175.629,116.672 151.628,116.672 M 104.608,116.672 80.607,116.672 80.607,92.676 76.781,92.676 76.781,120.506 104.608,120.506 M 80.607,3.831 104.608,3.831 104.608,0 76.781,0 76.781,27.826 80.607,27.826 M 175.629,27.829 179.462,27.829 179.462,0 151.628,0 151.628,3.831 175.629,3.831" fill="dodgerblue">
		<!-- center? : 126 61-->
		<animateTransform attributeName="transform" attributeType="XML" type="scale" values="1; 1.2; 1" begin="0s; scaleanim.end + 2s" dur="1s" additive="sum" id="scaleanim"/>
		<animateTransform attributeName="transform" attributeType="XML" type="translate" values="0, 0; -23.2, -12.2; 0, 0" begin="0s; scaleanim.end + 2s" dur="1s" additive="sum"/>
		</path>
	</g>
</g>
<g>
</g>
<g>
</g>
<g>
</g>
<g>
</g>
<g>
</g>
<g>
</g>
<g>
</g>
<g>
</g>
<g>
</g>
<g>
</g>
<g>
</g>
<g>
</g>
<g>
</g>
<g>
</g>
<g>
</g>
</svg>
