<?xml version="1.0" encoding="UTF-8"?>
<svg width="230px" height="230px" viewBox="0 0 230 230" version="1.1" xmlns="http://www.w3.org/2000/svg" xmlns:xlink="http://www.w3.org/1999/xlink">
    <title>firmware</title>
    <g id="Graphics" stroke="none" stroke-width="1" fill="none" fill-rule="evenodd">
        <g id="Artboard" transform="translate(-585.000000, -483.000000)" fill-rule="nonzero">
            <g id="firmware" transform="translate(585.000000, 483.000000)">
                <path d="M218.5,0 L11.5,0 C5.14872538,0 0,5.14872538 0,11.5 L0,180.166667 C0,186.517941 5.14872538,191.666667 11.5,191.666667 L98.5166667,191.666667 C97.9639119,193.714349 97.2061943,195.70111 96.255,197.596833 C94.433435,201.140472 91.9868336,204.325988 89.033,207 L57.5,207 C46.9197963,207.012673 38.3460068,215.586463 38.3333333,226.166667 C38.3333333,228.283758 40.0495751,230 42.1666667,230 L187.833333,230 C189.950425,230 191.666667,228.283758 191.666667,226.166667 C191.653993,215.586463 183.080204,207.012673 172.5,207 L140.982333,207 C136.38328,202.928951 133.080409,197.597441 131.483333,191.666667 L218.5,191.666667 C224.851275,191.666667 230,186.517941 230,180.166667 L230,11.5 C230,5.14872538 224.851275,0 218.5,0 Z M183.3445,222.333333 L46.6555,222.333333 C48.286022,217.742144 52.6278763,214.672611 57.5,214.666667 L172.5,214.666667 C177.372124,214.672611 181.713978,217.742144 183.3445,222.333333 L183.3445,222.333333 Z M126.910167,201.058333 C127.977584,203.143988 129.225631,205.132141 130.64,207 L99.3408333,207 C100.761648,205.132748 102.016112,203.144589 103.089833,201.058333 C104.595538,198.082368 105.714984,194.926277 106.421,191.666667 L123.579,191.666667 C124.285016,194.926277 125.404462,198.082368 126.910167,201.058333 L126.910167,201.058333 Z M222.333333,180.166667 C222.333333,182.283758 220.617092,184 218.5,184 L11.5,184 C9.38290846,184 7.66666667,182.283758 7.66666667,180.166667 L7.66666667,11.5 C7.66666667,9.38290846 9.38290846,7.66666667 11.5,7.66666667 L218.5,7.66666667 C220.617092,7.66666667 222.333333,9.38290846 222.333333,11.5 L222.333333,180.166667 Z" id="Shape" fill="#000000"></path>
                <path d="M210.833333,15.3333333 L19.1666667,15.3333333 C17.0495751,15.3333333 15.3333333,17.0495751 15.3333333,19.1666667 L15.3333333,157.166667 C15.3333333,159.283758 17.0495751,161 19.1666667,161 L210.833333,161 C212.950425,161 214.666667,159.283758 214.666667,157.166667 L214.666667,19.1666667 C214.666667,17.0495751 212.950425,15.3333333 210.833333,15.3333333 Z M207,30.6666667 L184,30.6666667 C181.882908,30.6666667 180.166667,32.3829085 180.166667,34.5 L180.166667,61.3333333 L168.666667,61.3333333 L168.666667,46 C168.666667,43.8829085 166.950425,42.1666667 164.833333,42.1666667 L153.333333,42.1666667 L153.333333,23 L207,23 L207,30.6666667 Z M176.333333,99.6666667 L168.666667,99.6666667 L168.666667,88.1666667 L180.166667,88.1666667 L180.166667,95.8333333 C180.166667,97.9504249 181.882908,99.6666667 184,99.6666667 L207,99.6666667 L207,122.666667 L180.166667,122.666667 L180.166667,103.5 C180.166667,101.382908 178.450425,99.6666667 176.333333,99.6666667 Z M187.833333,92 L187.833333,84.3333333 C187.833333,82.2162418 186.117092,80.5 184,80.5 L168.666667,80.5 L168.666667,69 L184,69 C186.117092,69 187.833333,67.2837582 187.833333,65.1666667 L187.833333,38.3333333 L207,38.3333333 L207,92 L187.833333,92 Z M157.166667,141.833333 L176.333333,141.833333 L176.333333,153.333333 L118.833333,153.333333 L118.833333,145.666667 L138,145.666667 C139.018459,145.666451 139.994968,145.260952 140.714,144.539667 L153.333333,131.920333 L153.333333,138 C153.333333,140.117092 155.049575,141.833333 157.166667,141.833333 Z M42.1666667,92 L23,92 L23,69 L53.6666667,69 L53.6666667,92 C53.6666667,94.1170915 55.3829085,95.8333333 57.5,95.8333333 L65.1666667,95.8333333 L65.1666667,111.166667 L46,111.166667 L46,95.8333333 C46,93.7162418 44.2837582,92 42.1666667,92 Z M69,38.3333333 L49.8333333,38.3333333 L49.8333333,23 L118.833333,23 L118.833333,30.6666667 L111.166667,30.6666667 C109.049575,30.6666667 107.333333,32.3829085 107.333333,34.5 L107.333333,42.1666667 L95.8333333,42.1666667 C94.714144,42.1677126 93.6513062,42.6578223 92.9238333,43.5083333 C90.0488333,46.8625 86.9515,50.3623333 83.9423333,53.6666667 L72.8333333,53.6666667 L72.8333333,42.1666667 C72.8333333,40.0495751 71.1170915,38.3333333 69,38.3333333 Z M115,42.1666667 L115,38.3333333 L122.666667,38.3333333 C124.783758,38.3333333 126.5,36.6170915 126.5,34.5 L126.5,23 L145.666667,23 L145.666667,42.1666667 L115,42.1666667 Z M97.5928333,49.8333333 L155.579667,49.8333333 L136.413,69 L79.9786667,69 C84.0573333,65.0286667 89.7,58.995 97.5928333,49.8333333 Z M72.8333333,138 L72.8333333,76.6666667 L134.166667,76.6666667 L134.166667,138 L72.8333333,138 Z M69,145.666667 L80.5,145.666667 L80.5,153.333333 L53.6666667,153.333333 L53.6666667,134.166667 L65.1666667,134.166667 L65.1666667,141.833333 C65.1666667,143.950425 66.8829085,145.666667 69,145.666667 Z M88.1666667,145.666667 L111.166667,145.666667 L111.166667,153.333333 L88.1666667,153.333333 L88.1666667,145.666667 Z M141.833333,132.579667 L141.833333,74.4203333 L161,55.2536667 L161,113.413 L141.833333,132.579667 Z M42.1666667,23 L42.1666667,42.1666667 C42.1666667,44.2837582 43.8829085,46 46,46 L65.1666667,46 L65.1666667,57.5 C65.1666667,59.6170915 66.8829085,61.3333333 69,61.3333333 L76.7548333,61.3333333 C74.2037031,64.1888871 71.3705321,66.7793251 68.2985,69.0651667 C68.1455971,69.1103676 67.9957834,69.1654274 67.85,69.23 C67.6649817,69.2840372 67.4843026,69.351952 67.3095,69.4331667 C67.0619603,69.5634551 66.8293161,69.720265 66.6156667,69.9008333 C66.2113517,70.1804037 65.8906854,70.5646733 65.688,71.0125 C65.3160056,71.5443119 65.1325003,72.1852312 65.1666667,72.8333333 L65.1666667,88.1666667 L61.3333333,88.1666667 L61.3333333,65.1666667 C61.3333333,63.0495751 59.6170915,61.3333333 57.5,61.3333333 L23,61.3333333 L23,23 L42.1666667,23 Z M23,99.6666667 L38.3333333,99.6666667 L38.3333333,115 C38.3333333,117.117092 40.0495751,118.833333 42.1666667,118.833333 L65.1666667,118.833333 L65.1666667,126.5 L49.8333333,126.5 C47.7162418,126.5 46,128.216242 46,130.333333 L46,153.333333 L23,153.333333 L23,99.6666667 Z M184,153.333333 L184,138 C184,135.882908 182.283758,134.166667 180.166667,134.166667 L161,134.166667 L161,124.253667 L167.5435,117.710167 C168.262439,116.991445 168.66645,116.01658 168.666667,115 L168.666667,107.333333 L172.5,107.333333 L172.5,126.5 C172.5,128.617092 174.216242,130.333333 176.333333,130.333333 L207,130.333333 L207,153.333333 L184,153.333333 Z" id="Shape" fill="#494C4E"></path>
                <rect id="Rectangle" fill="#A72B2A" x="111.166667" y="168.666667" width="7.66666667" height="7.66666667"></rect>
                <rect id="Rectangle" fill="#A72B2A" x="122.666667" y="168.666667" width="7.66666667" height="7.66666667"></rect>
                <rect id="Rectangle" fill="#A72B2A" x="99.6666667" y="168.666667" width="7.66666667" height="7.66666667"></rect>
            </g>
        </g>
    </g>
</svg>