<?xml version="1.0" encoding="UTF-8"?>
<svg width="196px" height="43px" viewBox="0 0 196 43" version="1.1" xmlns="http://www.w3.org/2000/svg" xmlns:xlink="http://www.w3.org/1999/xlink">
    <title>logo/landscape/colored</title>
    <g id="Onboarding" stroke="none" stroke-width="1" fill="none" fill-rule="evenodd">
        <g id="Landing" transform="translate(-152.000000, -65.000000)" fill-rule="nonzero">
            <g id="logo/landscape/colored" transform="translate(150.000000, 63.000000)">
                <path d="M187.558974,19.5969565 L193.230769,19.5969565 C193.384615,19.5969565 193.476923,19.505 193.476923,19.3977174 L193.476923,17.206087 C193.476923,17.0936957 193.384615,17.0068478 193.230769,17.0068478 L189.328205,17.0068478 C188.850698,17.0322935 188.384889,16.854069 188.047247,16.5167369 C187.709606,16.1794048 187.53205,15.7148541 187.558974,15.2392391 L187.558974,9.54815217 C187.53205,9.07253716 187.709606,8.60798647 188.047247,8.27065436 C188.384889,7.93332226 188.850698,7.75509781 189.328205,7.78054348 L197.153846,7.78054348 L197.153846,11.0194565 L191.682051,11.0194565 C191.618981,11.0207124 191.559177,11.0476341 191.516551,11.0939587 C191.473924,11.1402833 191.452192,11.2019721 191.45641,11.2646739 L191.45641,13.4767391 C191.469505,13.5908144 191.566796,13.6767217 191.682051,13.6759783 L195.584615,13.6759783 C196.062123,13.6505326 196.527932,13.828757 196.865573,14.1660891 C197.203215,14.5034213 197.380771,14.9679719 197.353846,15.443587 L197.353846,21.0938043 C197.379258,21.5685575 197.201033,22.0317163 196.863571,22.3678944 C196.526109,22.7040725 196.061182,22.8816199 195.584615,22.8563043 L187.558974,22.8563043 L187.558974,19.5969565 Z" id="Path" fill="#24272A"></path>
                <path d="M15.0615385,2.64630435 L5.17948718,2.64630435 C4.52486566,2.64629869 3.89720437,2.90605407 3.43528039,3.36813808 C2.97335642,3.8302221 2.71522113,4.4565702 2.71792732,5.10869565 L2.71792732,41.8913043 C2.71792732,43.2456026 3.82001703,44.3436118 5.17948718,44.3436118 L13.4153846,44.3436118 C14.0721864,44.35031 14.704376,44.0948112 15.1707535,43.6340477 C15.637131,43.1732842 15.898843,42.5456416 15.8974359,41.8913043 L15.8974359,40.4148913 C15.8988011,39.7641184 15.6398996,39.1396078 15.1779754,38.6794409 C14.7160511,38.2192739 14.0891556,37.9613574 13.4358974,37.9627174 L11.5794872,37.9627174 C10.220017,37.9627174 9.11794872,36.8648417 9.11794872,35.5105435 L9.11794872,11.4792391 C9.11658678,10.8279975 9.37532533,10.2029642 9.83710103,9.74198689 C10.2988767,9.28100956 10.9257571,9.02195511 11.5794872,9.02195652 L13.3333333,9.02195652 C13.8532187,9.02188736 14.3596635,9.18648192 14.7794872,9.49195652 L37.5897436,25.9521739 C38.339022,26.4911573 39.3282247,26.5666168 40.1511442,26.1475657 C40.9740638,25.7285146 41.4920158,24.8855745 41.4923077,23.9648913 L41.4923077,22.9431522 C41.5074638,22.1591018 41.1429296,21.4156955 40.5128205,20.9456522 L16.5333333,3.13163043 C16.1115908,2.80636469 15.5948628,2.62700504 15.0615385,2.62076087" id="Path" fill="#672F25"></path>
                <path d="M41.9794872,44.3536957 L51.8615385,44.3536957 C53.2210086,44.3536957 54.3230769,43.25582 54.3230769,41.9015217 L54.3230769,5.10869565 C54.3230769,3.7543974 53.2210086,2.65652174 51.8615385,2.65652174 L43.6205128,2.65652174 C42.2610427,2.65652174 41.1589744,3.7543974 41.1589744,5.10869565 L41.1589744,6.58 C41.1576091,7.23077294 41.4165106,7.85528349 41.8784349,8.31545045 C42.3403592,8.77561741 42.9672547,9.03353394 43.6205128,9.03217391 L45.4564103,9.03217391 C46.1096684,9.03081388 46.7365639,9.28873041 47.1984882,9.74889738 C47.6604125,10.2090643 47.9193139,10.8335749 47.9179487,11.4843478 L47.9179487,35.5309783 C47.9193139,36.1817512 47.6604125,36.8062617 47.1984882,37.2664287 C46.7365639,37.7265957 46.1096684,37.9845122 45.4564103,37.9831522 L43.7179487,37.9831522 C43.1989636,37.9826163 42.6932022,37.8200305 42.2717949,37.5182609 L19.4512821,21.0427174 C18.7019354,20.5007574 17.710671,20.4235984 16.8859178,20.843032 C16.0611646,21.2624657 15.542485,22.1075167 15.5434153,23.03 L15.5434153,24.0517391 C15.5342313,24.8382729 15.9018627,25.5821239 16.5333333,26.0543478 L40.5128205,43.8632609 C40.9347433,44.1881954 41.4513564,44.3675151 41.9846154,44.3741304" id="Path" fill="#AA2D29"></path>
                <polygon id="Path" fill="#24272A" points="71.7948718 14.57 71.7948718 22.8563043 68.2051282 22.8563043 68.2051282 7.78054348 71.7948718 7.78054348 76.3230769 16.0872826 76.3230769 7.78054348 79.9076923 7.78054348 79.9076923 22.8563043 76.2102564 22.8563043"></polygon>
                <polygon id="Path" fill="#24272A" points="93.7384615 7.78054348 103.625641 7.78054348 103.625641 11.0194565 97.6153846 11.0194565 97.6153846 13.6555435 102.820513 13.6555435 102.820513 16.8740217 97.6153846 16.8740217 97.6153846 19.5969565 103.625641 19.5969565 103.625641 22.8563043 93.7384615 22.8563043"></polygon>
                <path d="M126.425641,7.78054348 C127.365941,7.78054348 128.128205,8.53990747 128.128205,9.47663043 L128.128205,16.3784783 C128.114512,17.3103327 127.361009,18.0632302 126.425641,18.0796739 L126.312821,18.0796739 L128.174359,22.8563043 L124.364103,22.8563043 L122.476923,18.0796739 L120.820513,18.0796739 L120.820513,22.8563043 L116.923077,22.8563043 L116.923077,7.78054348 L126.425641,7.78054348 Z M124.251282,11.2391304 C124.245223,11.1251591 124.159467,11.0311863 124.046154,11.0143478 L120.820513,11.0143478 L120.820513,15.0348913 L124.046154,15.0348913 C124.151031,15.0205596 124.234246,14.9397341 124.251282,14.8356522 L124.251282,11.2391304 Z" id="Shape" fill="#24272A"></path>
                <polygon id="Path" fill="#24272A" points="152.338462 7.78054348 147.830769 22.8563043 144.066667 22.8563043 139.671795 7.78054348 143.841026 7.78054348 145.948718 17.3644565 148.482051 7.78054348"></polygon>
                <polygon id="Path" fill="#24272A" points="164.692308 7.78054348 174.579487 7.78054348 174.579487 11.0194565 168.569231 11.0194565 168.569231 13.6555435 173.769231 13.6555435 173.769231 16.8740217 168.569231 16.8740217 168.569231 19.5969565 174.579487 19.5969565 174.579487 22.8563043 164.692308 22.8563043"></polygon>
                <polygon id="Path" fill="#AA2D29" points="79.7076923 44.3536957 75.8051282 44.3536957 75.8051282 38.3663043 72.1076923 38.3663043 72.1076923 44.3536957 68.2051282 44.3536957 68.2051282 29.2779348 72.1076923 29.2779348 72.1076923 35.0354348 75.8051282 35.0354348 75.8051282 29.2779348 79.7076923 29.2779348"></polygon>
                <path d="M97.2153846,29.2779348 L97.2153846,40.8695652 C97.2230832,40.9782198 97.3112834,41.0638878 97.4205128,41.0688043 L100.266667,41.0688043 C100.389636,41.0807259 100.499362,40.9919125 100.512821,40.8695652 L100.512821,29.2779348 L104.415385,29.2779348 L104.415385,42.6320652 C104.423684,43.0876052 104.247103,43.5272064 103.925641,43.8512925 C103.604179,44.1753785 103.165038,44.3565236 102.707692,44.3537283 L95.0410256,44.3537283 C94.0885676,44.3508801 93.3179487,43.5809039 93.3179487,42.6320652 L93.3179487,29.2779348 L97.2153846,29.2779348 Z" id="Path" fill="#AA2D29"></path>
                <path d="M118.025641,44.3536957 L118.025641,29.2779348 L127.348718,29.2779348 C127.875134,29.2312518 128.39657,29.4102977 128.782312,29.7701895 C129.168054,30.1300812 129.381532,30.6366986 129.369231,31.1630435 L129.369231,34.5143478 C129.369231,35.536087 128.697436,36.5271739 127.317949,36.8592391 C128.707692,37.196413 129.492308,38.1313043 129.492308,39.1377174 L129.492308,42.4226087 C129.520352,42.9565552 129.313103,43.4761085 128.92482,43.8452433 C128.536537,44.214378 128.005885,44.396336 127.471795,44.3434783 L118.025641,44.3536957 Z M125.641026,32.5168478 C125.646729,32.4533003 125.625667,32.3902496 125.582877,32.3427785 C125.540087,32.2953075 125.479419,32.267686 125.415385,32.2665217 L121.917949,32.2665217 L121.917949,35.3981522 L125.415385,35.3981522 C125.574359,35.3981522 125.641026,35.2857609 125.641026,35.1478261 L125.641026,32.5168478 Z M125.641026,38.4122826 C125.646806,38.3492128 125.62561,38.2866403 125.582651,38.2399548 C125.539693,38.1932692 125.478958,38.1668029 125.415385,38.1670633 L121.917949,38.1670633 L121.917949,41.4928261 L125.415385,41.4928261 C125.47654,41.4974738 125.536683,41.4752884 125.580052,41.4320846 C125.623421,41.3888807 125.645691,41.3289659 125.641026,41.2680435 L125.641026,38.4122826 Z" id="Shape" fill="#AA2D29"></path>
            </g>
        </g>
    </g>
</svg>