<svg xmlns="http://www.w3.org/2000/svg" viewBox="0 0 73.96 73.96"><defs><style>.cls-1{fill:#284c6e;}.cls-2{fill:#8a7a6f;}.cls-3{fill:#017ca0;}.cls-4{fill:#b09380;}.cls-5{fill:#abba69;}.cls-6{fill:#8b95a3;}.cls-7{fill:#8c8d4c;}.cls-8{fill:#546978;}.cls-9{fill:none;stroke:#003f53;stroke-miterlimit:10;stroke-width:1.03px;}.cls-10{fill:#e1cce3;}.cls-11{fill:#e7e4cc;}.cls-12{fill:#6f6964;}.cls-13{fill:#886487;}.cls-14{fill:#735273;}.cls-15{fill:#a1a3a6;}.cls-16{fill:#9ec2d3;}.cls-17{fill:#69735b;}.cls-18{fill:#a4a6a9;}.cls-19{fill:#dadebc;}.cls-20{fill:#7a8067;}.cls-21{fill:#bdc1c9;}.cls-22{fill:#7da3bd;}.cls-23{fill:#3a5669;}.cls-24{fill:#627283;}.cls-25{fill:#cba0ca;}.cls-26{fill:#ced9e4;}.cls-27{fill:#4c788f;}.cls-28{fill:#56564b;}.cls-29{fill:#978373;}.cls-30{fill:#d1baa4;}.cls-31{fill:#003f53;}.cls-32{fill:#8a8c8e;}.cls-33{fill:#a4a490;}.cls-34{fill:#55849f;}.cls-35{fill:#548ead;}.cls-36{fill:#b87bb4;}.cls-37{fill:#784d33;}.cls-38{fill:#383b40;}.cls-39{fill:#a4bccf;}</style></defs><title>Asset 2</title><g id="Layer_2" data-name="Layer 2"><g id="Layer_1-2" data-name="Layer 1"><path class="cls-1" d="M54.09,35A2.9,2.9,0,0,0,52,34.2a2.94,2.94,0,0,0-2.47,1.5c-.68.09-3.18.42-4.82.53s-5.41,0-5.45,0v0a24.64,24.64,0,0,1,4-4.82A20.25,20.25,0,0,1,48,27.59l.74-.46a2.91,2.91,0,1,0-1.94-1.93,65,65,0,0,1-4.5,4.8c-1.58,1.56-4.09,4.07-5.19,4.89a28.34,28.34,0,0,1-3.61-5.06,45.65,45.65,0,0,1-2.45-5,2.61,2.61,0,0,0,.41-1.48,2.65,2.65,0,1,0-2.78,2.72,22.3,22.3,0,0,1,3.3,4.82,18.23,18.23,0,0,1,2,5.27,25.34,25.34,0,0,1-4.76.49,25.4,25.4,0,0,1-3.47-.11,2.35,2.35,0,0,0-2.33-1.79,2.33,2.33,0,0,0-2.27,2.39,2.35,2.35,0,0,0,.7,1.63,2.25,2.25,0,0,0,1.65.64,2.56,2.56,0,0,0,2-1.31l0-.06.22,0c.21,0,.53,0,1,0,.63,0,1.49.05,2.73.06a23.93,23.93,0,0,1,4.16.28,59.13,59.13,0,0,1-4.1,5A15.39,15.39,0,0,1,25.14,47,2.9,2.9,0,1,0,27.31,49a16,16,0,0,1,4.06-5.17c3.4-3.11,4.14-3.89,4.25-4a1,1,0,0,1,.3-.16h0a1.41,1.41,0,0,1,.75.46,30.11,30.11,0,0,1,3.41,5.14A26.68,26.68,0,0,1,41.9,49.1a2.34,2.34,0,0,0-.8,1.84,2.36,2.36,0,0,0,2.42,2.3h0a2.36,2.36,0,0,0,0-4.72,42.34,42.34,0,0,1-2.2-3.83c-1.78-3.75-2.4-6.05-2.35-6.36,0-.07,0-.1.13-.14a45.86,45.86,0,0,1,5.75-.3,16.42,16.42,0,0,1,4.67.53A2.92,2.92,0,1,0,54.09,35Z"/><path class="cls-2" d="M66.56,14.79a37,37,0,0,1,3.5,5.65l-4.13,2.07a32.37,32.37,0,0,0-3.06-4.94Z"/><path class="cls-3" d="M28,72.86A37.06,37.06,0,0,0,37,74V69.34a32.43,32.43,0,0,1-7.85-1Z"/><path class="cls-4" d="M69.34,37a32.43,32.43,0,0,1-1,7.85L72.86,46A37.06,37.06,0,0,0,74,37Z"/><path class="cls-5" d="M61.79,24.57a27.54,27.54,0,0,1,2.1,5.67l4.49-1.12a32.13,32.13,0,0,0-2.45-6.62Z"/><path class="cls-6" d="M7.39,59.17a37.2,37.2,0,0,0,7.39,7.39l2.77-3.7a32.55,32.55,0,0,1-6.48-6.49Z"/><path class="cls-7" d="M53.42,3.85a37,37,0,0,1,5.74,3.55l-2.77,3.7A32.37,32.37,0,0,0,51.45,8Z"/><path class="cls-8" d="M59.17,7.39a37.2,37.2,0,0,1,7.4,7.4l-3.7,2.77a32.55,32.55,0,0,0-6.47-6.47Z"/><path class="cls-9" d="M63.13,63.13"/><path class="cls-9" d="M59.86,59.86"/><path class="cls-9" d="M20.64,20.64"/><path class="cls-9" d="M14.1,14.1"/><path class="cls-9" d="M14.1,14.1"/><path class="cls-9" d="M10.83,10.83"/><path class="cls-9" d="M63.13,10.83"/><path class="cls-9" d="M59.86,14.1"/><path class="cls-9" d="M59.86,14.1"/><path class="cls-9" d="M53.32,20.64"/><path class="cls-9" d="M55.47,23.11"/><path class="cls-10" d="M10.07,43.7a27.54,27.54,0,0,0,2.1,5.68l4.14-2.07a23,23,0,0,1-1.75-4.74Z"/><path class="cls-11" d="M10,30.36a27.54,27.54,0,0,1,2.13-5.78l4.14,2.07a23,23,0,0,0-1.8,4.94Z"/><path class="cls-9" d="M23.11,55.47"/><path class="cls-12" d="M59.17,53.62a27.74,27.74,0,0,0,2.62-4.24l-4.14-2.07a23.12,23.12,0,0,1-2.19,3.53Z"/><path class="cls-13" d="M30.25,63.89a27.79,27.79,0,0,0,6.73.82V60.09a23.16,23.16,0,0,1-5.61-.68Z"/><path class="cls-11" d="M24.57,61.79a27.54,27.54,0,0,0,5.68,2.1l1.12-4.49a23,23,0,0,1-4.73-1.75Z"/><path class="cls-14" d="M17.56,62.87a32.37,32.37,0,0,0,4.94,3.06l2.07-4.14a27.74,27.74,0,0,1-4.24-2.62Z"/><path class="cls-15" d="M37,69.34a32.43,32.43,0,0,0,7.85-1l-1.12-4.49a27.8,27.8,0,0,1-6.73.82Z"/><path class="cls-16" d="M61.79,49.38a27.54,27.54,0,0,0,2.1-5.68l4.49,1.12a32.13,32.13,0,0,1-2.45,6.62Z"/><path class="cls-17" d="M63.89,43.71A27.8,27.8,0,0,0,64.71,37h4.62a32.43,32.43,0,0,1-1,7.85Z"/><path class="cls-18" d="M64.71,37a27.79,27.79,0,0,0-.82-6.73l4.49-1.12a32.43,32.43,0,0,1,1,7.85Z"/><path class="cls-19" d="M59.41,31.37a23,23,0,0,0-1.75-4.73l4.14-2.07a27.54,27.54,0,0,1,2.1,5.67Z"/><path class="cls-20" d="M59.15,20.32a27.74,27.74,0,0,1,2.64,4.26l4.14-2.07a32.37,32.37,0,0,0-3.06-4.94Z"/><path class="cls-21" d="M8,51.45a32.36,32.36,0,0,0,3,4.93l3.71-2.76a27.74,27.74,0,0,1-2.62-4.23Z"/><path class="cls-22" d="M4.62,37a32.43,32.43,0,0,0,1,7.85l4.48-1.13A27.8,27.8,0,0,1,9.24,37Z"/><path class="cls-23" d="M5.58,29.13a32.43,32.43,0,0,0-1,7.85H9.24a27.8,27.8,0,0,1,.8-6.62Z"/><path class="cls-24" d="M11.09,17.56a32.55,32.55,0,0,1,6.49-6.48l2.77,3.7a27.9,27.9,0,0,0-5.56,5.56Z"/><path class="cls-25" d="M17.58,11.08a32.36,32.36,0,0,1,4.93-3l2.07,4.14a27.74,27.74,0,0,0-4.22,2.61Z"/><path class="cls-26" d="M14.79,7.39a37,37,0,0,1,5.65-3.5L22.51,8a32.36,32.36,0,0,0-4.93,3Z"/><path class="cls-27" d="M22.51,8a32.13,32.13,0,0,1,6.62-2.45l1.1,4.49a27.54,27.54,0,0,0-5.65,2.09Z"/><path class="cls-28" d="M30.23,10.07A27.79,27.79,0,0,1,37,9.24v4.62a23.16,23.16,0,0,0-5.66.7Z"/><path class="cls-23" d="M43.73,10.07a27.54,27.54,0,0,1,5.65,2.09L47.32,16.3a23,23,0,0,0-4.73-1.75Z"/><path class="cls-4" d="M12.17,24.57a27.74,27.74,0,0,1,2.62-4.24l3.7,2.77a23.12,23.12,0,0,0-2.19,3.53Z"/><path class="cls-29" d="M62.87,56.39a32.37,32.37,0,0,0,3.06-4.94l-4.14-2.07a27.74,27.74,0,0,1-2.62,4.24Z"/><path class="cls-30" d="M66.56,59.17a37,37,0,0,0,3.5-5.65l-4.14-2.07a32.37,32.37,0,0,1-3.06,4.94Z"/><path class="cls-31" d="M56.38,62.88a32.55,32.55,0,0,0,6.49-6.48l-3.7-2.77a27.9,27.9,0,0,1-5.55,5.55Z"/><path class="cls-32" d="M53.52,70.06a37,37,0,0,0,5.65-3.5l-2.79-3.69a32.36,32.36,0,0,1-4.93,3Z"/><path class="cls-33" d="M46,72.86a36.72,36.72,0,0,0,7.57-2.8l-2.07-4.14a32.13,32.13,0,0,1-6.62,2.45Z"/><path class="cls-34" d="M22.51,65.93a32.13,32.13,0,0,0,6.62,2.45l1.12-4.49a27.54,27.54,0,0,1-5.68-2.1Z"/><path class="cls-35" d="M14.79,66.56a37,37,0,0,0,5.65,3.5l2.07-4.14a32.37,32.37,0,0,1-4.94-3.06Z"/><path class="cls-31" d="M3.9,53.52a37,37,0,0,0,3.5,5.65l3.69-2.79a32.36,32.36,0,0,1-3-4.93Z"/><path class="cls-36" d="M5.58,44.83A32.13,32.13,0,0,0,8,51.45l4.14-2.06a27.54,27.54,0,0,1-2.1-5.68Z"/><path class="cls-27" d="M1.1,46A37.06,37.06,0,0,1,0,37H4.62a32.43,32.43,0,0,0,1,7.85Z"/><path class="cls-7" d="M1.1,28a36.72,36.72,0,0,1,2.8-7.57L8,22.51a32.13,32.13,0,0,0-2.45,6.62Z"/><path class="cls-37" d="M8,22.51a32.37,32.37,0,0,1,3.06-4.94l3.7,2.77a27.74,27.74,0,0,0-2.62,4.24Z"/><path class="cls-38" d="M7.39,14.79a37.2,37.2,0,0,1,7.4-7.4l2.79,3.69a32.55,32.55,0,0,0-6.49,6.48Z"/><path class="cls-11" d="M37,0a37.06,37.06,0,0,0-9,1.1l1.12,4.49a32.43,32.43,0,0,1,7.85-1Z"/><path class="cls-8" d="M37,4.62a32.43,32.43,0,0,1,7.85,1l-1.1,4.49A27.79,27.79,0,0,0,37,9.24Z"/><path class="cls-39" d="M44.83,5.58A32.13,32.13,0,0,1,51.45,8l-2.07,4.13a27.54,27.54,0,0,0-5.65-2.09Z"/><path class="cls-21" d="M46,1.1a36.72,36.72,0,0,1,7.47,2.75L51.45,8a32.13,32.13,0,0,0-6.62-2.45Z"/></g></g></svg>