<svg id="Layer_1" data-name="Layer 1" xmlns="http://www.w3.org/2000/svg" viewBox="0 0 187.98 152.5"><defs><style>.cls-1{fill:#672f25;}.cls-2{fill:#aa2d29;}</style></defs><path class="cls-1" d="M45,0H9A9,9,0,0,0,0,9V143.53a9,9,0,0,0,9,9H39a9,9,0,0,0,9-9v-5.39a9,9,0,0,0-9-9H32.29a9,9,0,0,1-9-9V32.29a9,9,0,0,1,9-9h6.35A9,9,0,0,1,43.9,25L127,85.23A9,9,0,0,0,141.25,78V74.14a9,9,0,0,0-3.6-7.19L50.33,1.78A9,9,0,0,0,45,0Z" transform="translate(0 0)"/><path class="cls-2" d="M143,152.5h36a9,9,0,0,0,9-9V9a9,9,0,0,0-9-9H149a9,9,0,0,0-9,9v5.39a9,9,0,0,0,9,9h6.69a9,9,0,0,1,9,9v87.92a9,9,0,0,1-9,9h-6.34a9,9,0,0,1-5.26-1.71L61,67.28a9,9,0,0,0-14.23,7.26v3.83a9,9,0,0,0,3.61,7.18l87.31,65.17A8.94,8.94,0,0,0,143,152.5Z" transform="translate(0 0)"/></svg>