<svg xmlns="http://www.w3.org/2000/svg" version="1.1" xmlns:xlink="http://www.w3.org/1999/xlink" xmlns:svgjs="http://svgjs.dev/svgjs" width="59" height="48"><svg width="59" height="48" viewBox="0 0 59 48" fill="none" xmlns="http://www.w3.org/2000/svg">
<path d="M58.1134 2.86922C58.1134 1.31322 56.8736 0.0518303 55.3442 0.0518303H46.073C44.5436 0.0518303 43.3038 1.31322 43.3038 2.86922V4.55966C43.3022 5.30736 43.5936 6.02488 44.1132 6.55358C44.6328 7.08228 45.3382 7.3786 46.073 7.37704H48.1384C48.8734 7.37548 49.5786 7.67182 50.0982 8.20052C50.618 8.72922 50.9092 9.44674 50.9076 10.1944V37.8224C50.9092 38.5702 50.618 39.2878 50.0982 39.8164C49.5786 40.3452 48.8734 40.6414 48.1384 40.6398H46.1826C45.5988 40.6392 45.0298 40.4524 44.5558 40.1058L18.8827 21.1764C18.0397 20.5538 16.9245 20.465 15.9967 20.947C15.0688 21.4288 14.4853 22.3998 14.4863 23.4596V24.6336C14.476 25.5372 14.8896 26.3918 15.6 26.9344L42.577 47.3958C43.0516 47.769 43.6328 47.9752 44.2326 47.9828L44.227 47.9592H55.3442C56.8736 47.9592 58.1134 46.6978 58.1134 45.1418V2.86922Z" fill="#6366F1"></path>
<path d="M15.6 0.597698C15.1255 0.22399 14.5442 0.0179164 13.9442 0.0107422V0.0400902H2.8269C2.09044 0.0400838 1.38433 0.338526 0.864664 0.869432C0.344998 1.40034 0.0545965 2.11998 0.0576409 2.86922V45.13C0.0576409 46.686 1.29749 47.9476 2.8269 47.9476H12.0923C12.8312 47.9554 13.5424 47.6618 14.0671 47.1324C14.5917 46.603 14.8862 45.8818 14.8846 45.13V43.4338C14.8861 42.686 14.5949 41.9686 14.0752 41.4398C13.5555 40.9112 12.8503 40.6148 12.1154 40.6164H10.0269C8.4975 40.6164 7.25766 39.355 7.25766 37.799V10.1886C7.25614 9.44034 7.54722 8.72222 8.06672 8.19258C8.58622 7.66294 9.29146 7.3653 10.0269 7.3653H12C12.5848 7.36522 13.1546 7.55434 13.6269 7.9053L39.2884 26.817C40.1314 27.4364 41.2442 27.523 42.17 27.0416C43.0958 26.56 43.6784 25.5916 43.6788 24.5338V23.3598C43.6958 22.459 43.2858 21.605 42.577 21.0648L15.6 0.597698Z" fill="#6366F1"></path>
</svg><style>@media (prefers-color-scheme: light) { :root { filter: none; } }
@media (prefers-color-scheme: dark) { :root { filter: none; } }
</style></svg>