<?xml version="1.0" encoding="UTF-8"?>
<svg width="147px" height="32px" viewBox="0 0 147 32" version="1.1" xmlns="http://www.w3.org/2000/svg" xmlns:xlink="http://www.w3.org/1999/xlink">
    <title>logo/landscape</title>
    <g id="Symbols" stroke="none" stroke-width="1" fill="none" fill-rule="evenodd">
        <g id="Navbar" transform="translate(-150.000000, -24.000000)" fill="#FFFFFF" fill-rule="nonzero">
            <g id="logo/landscape" transform="translate(148.000000, 22.000000)">
                <path d="M38.8961538,2.03478261 C39.9157565,2.03478261 40.7423077,2.87570864 40.7423077,3.91304348 L40.7423077,3.91304348 L40.7423077,32.0947826 C40.7423077,33.1321174 39.9157565,33.9730435 38.8961538,33.9730435 L38.8961538,33.9730435 L31.4846154,33.9730435 L31.4884615,33.9886957 C31.0885173,33.9836286 30.7010575,33.8462773 30.3846154,33.5973913 L30.3846154,33.5973913 L12.4,19.9565217 C11.926397,19.5948183 11.6506735,19.0250601 11.6575615,18.4226087 L11.6575615,18.4226087 L11.6575615,17.64 C11.6568638,16.933417 12.0458734,16.2861439 12.6644383,15.9648756 C13.2830032,15.6436073 14.0264516,15.7027078 14.5884615,16.1178261 L14.5884615,16.1178261 L31.7038462,28.7373913 C32.0199016,28.968534 32.3992227,29.0930678 32.7884615,29.0934783 L32.7884615,29.0934783 L34.0923077,29.0934783 C34.5822513,29.09452 35.0524229,28.8969669 35.3988661,28.5444986 C35.7453093,28.1920303 35.9394855,27.7136818 35.9384615,27.2152174 L35.9384615,27.2152174 L35.9384615,8.79652174 C35.9394855,8.29805736 35.7453093,7.81970886 35.3988661,7.46724054 C35.0524229,7.11477223 34.5822513,6.91721914 34.0923077,6.91826087 L34.0923077,6.91826087 L32.7153846,6.91826087 C32.225441,6.9193026 31.7552694,6.72174951 31.4088262,6.36928119 C31.062383,6.01681288 30.8682069,5.53846438 30.8692308,5.04 L30.8692308,5.04 L30.8692308,3.91304348 C30.8692308,2.87570864 31.695782,2.03478261 32.7153846,2.03478261 L32.7153846,2.03478261 Z M54.0807692,22.4256522 L54.0807692,26.8356522 L56.8538462,26.8356522 L56.8538462,22.4256522 L59.7807692,22.4256522 L59.7807692,33.9730435 L56.8538462,33.9730435 L56.8538462,29.3869565 L54.0807692,29.3869565 L54.0807692,33.9730435 L51.1538462,33.9730435 L51.1538462,22.4256522 L54.0807692,22.4256522 Z M72.9115385,22.4256522 L72.9115385,31.3043478 C72.9173124,31.3875726 72.9834625,31.4531906 73.0653846,31.4569565 L75.2,31.4569565 C75.2922266,31.4660879 75.3745213,31.3980607 75.3846154,31.3043478 L75.3846154,22.4256522 L78.3115385,22.4256522 L78.3115385,32.6543478 C78.3177629,33.003272 78.1853274,33.3399879 77.9442307,33.588224 C77.703134,33.8364601 77.3737788,33.9752096 77.0307692,33.9730685 L71.2807692,33.9730685 C70.5664257,33.9708869 69.9884615,33.3811179 69.9884615,32.6543478 L69.9884615,22.4256522 L72.9115385,22.4256522 Z M96.5867342,22.8026983 C96.8760408,23.0783601 97.036149,23.4664074 97.0269231,23.8695652 L97.0269231,26.4365217 C97.0269231,27.2191304 96.5230769,27.9782609 95.4884615,28.2326087 C96.5307692,28.4908696 97.1192308,29.2069565 97.1192308,29.9778261 L97.1192308,32.493913 C97.1402644,32.9028934 96.9848273,33.3008491 96.6936148,33.5835906 C96.4024024,33.8663321 96.0044134,34.0057041 95.6038462,33.9652174 L88.5192308,33.9730435 L88.5192308,22.4256522 L95.5115385,22.4256522 C95.9063508,22.389895 96.2974275,22.5270365 96.5867342,22.8026983 Z M11.2961538,2.0073913 C11.6961471,2.01217408 12.0836931,2.14955594 12.4,2.39869565 L12.4,2.39869565 L30.3846154,16.0434783 C30.8571972,16.4035114 31.1305978,16.972929 31.1192308,17.5734783 L31.1192308,17.5734783 L31.1192308,18.356087 C31.1190118,19.0612911 30.7305478,19.7069474 30.1133582,20.0279227 C29.4961685,20.348898 28.7542665,20.2910992 28.1923077,19.8782609 L28.1923077,19.8782609 L11.0846154,7.27043478 C10.7697476,7.03645424 10.389914,6.91038181 10,6.91043478 L10,6.91043478 L8.68461538,6.91043478 C8.19431782,6.9104337 7.72415756,7.10885839 7.37782578,7.4619474 C7.031494,7.81503642 6.83744009,8.2937853 6.83846154,8.7926087 L6.83846154,8.7926087 L6.83846154,27.1995652 C6.83846154,28.2369001 7.66501277,29.0778261 8.68461538,29.0778261 L8.68461538,29.0778261 L10.0769231,29.0778261 C10.5668667,29.0767844 11.0370383,29.2743374 11.3834815,29.6268058 C11.7299247,29.9792741 11.9241008,30.4576226 11.9230769,30.956087 L11.9230769,30.956087 L11.9230769,32.0869565 C11.9241322,32.588151 11.7278482,33.0688985 11.3780651,33.4218238 C11.028282,33.774749 10.5541398,33.9704502 10.0615385,33.9653197 L10.0615385,33.9653197 L3.88461538,33.9653197 C2.86501277,33.9653197 2.03844549,33.1242914 2.03844549,32.0869565 L2.03844549,32.0869565 L2.03844549,3.91304348 C2.03641585,3.41354313 2.23001732,2.93378714 2.57646029,2.57985044 C2.92290327,2.22591375 3.39364925,2.02695219 3.88461538,2.02695652 L3.88461538,2.02695652 L11.2961538,2.02695652 Z M94.0615385,29.2343463 L91.4384615,29.2343463 L91.4384615,31.7817391 L94.0615385,31.7817391 C94.1074048,31.7852991 94.1525125,31.768306 94.1850391,31.7352137 C94.2175657,31.7021214 94.2342683,31.6562292 94.2307692,31.6095652 L94.2307692,29.4221739 C94.2351042,29.3738651 94.2192074,29.3259372 94.1869885,29.2901781 C94.1547696,29.254419 94.1092185,29.2341469 94.0615385,29.2343463 Z M94.0615385,24.7147826 L91.4384615,24.7147826 L91.4384615,27.1134783 L94.0615385,27.1134783 C94.1807692,27.1134783 94.2307692,27.0273913 94.2307692,26.9217391 L94.2307692,24.9065217 C94.2350469,24.8578471 94.2192501,24.8095529 94.1871577,24.7731921 C94.1550653,24.7368313 94.109564,24.7156744 94.0615385,24.7147826 Z M147.865385,5.95956522 L147.865385,8.44043478 L143.761538,8.44043478 C143.714236,8.44139671 143.669383,8.46201761 143.637413,8.49750028 C143.605443,8.53298295 143.589144,8.58023393 143.592308,8.62826087 L143.592308,10.3226087 C143.602129,10.4099855 143.675097,10.4757869 143.761538,10.4752174 L146.688462,10.4752174 C147.046592,10.4557271 147.395949,10.5922394 147.64918,10.8506215 C147.902411,11.1090035 148.035578,11.4648296 148.015385,11.8291304 L148.015385,16.1569565 C148.034444,16.5205973 147.900775,16.8753571 147.647678,17.1328553 C147.426219,17.3581662 147.131566,17.4904502 146.821917,17.5070105 L140.669231,17.5069565 L140.669231,15.0104348 L144.923077,15.0104348 C145.038462,15.0104348 145.107692,14.94 145.107692,14.8578261 L145.107692,13.1791304 C145.107692,13.0930435 145.038462,13.0265217 144.923077,13.0265217 L141.996154,13.0265217 C141.638023,13.046012 141.288667,12.9094997 141.035435,12.6511177 C140.813858,12.4250334 140.684205,12.1243435 140.668782,11.8086505 L140.669231,7.31347826 C140.649037,6.9491774 140.782204,6.59335134 141.035435,6.3349693 C141.257013,6.10888502 141.552186,5.97610722 141.862437,5.95950231 L147.865385,5.95956522 Z M53.8461538,5.95956522 L57.2423077,12.3221739 L57.2423077,5.95956522 L59.9307692,5.95956522 L59.9307692,17.5069565 L57.1576923,17.5069565 L53.8461538,11.16 L53.8461538,17.5069565 L51.1538462,17.5069565 L51.1538462,5.95956522 L53.8461538,5.95956522 Z M77.7192308,5.95956522 L77.7192308,8.44043478 L73.2115385,8.44043478 L73.2115385,10.4595652 L77.1153846,10.4595652 L77.1153846,12.9247826 L73.2115385,12.9247826 L73.2115385,15.0104348 L77.7192308,15.0104348 L77.7192308,17.5069565 L70.3038462,17.5069565 L70.3038462,5.95956522 L77.7192308,5.95956522 Z M94.8192308,5.95956522 C95.5244559,5.95956522 96.0961538,6.54120573 96.0961538,7.25869565 L96.0961538,12.5452174 C96.0858839,13.2589782 95.5207565,13.8356657 94.8192308,13.8482609 L94.7346154,13.8482609 L96.1307692,17.5069565 L93.2730769,17.5069565 L91.8576923,13.8482609 L90.6153846,13.8482609 L90.6153846,17.5069565 L87.6923077,17.5069565 L87.6923077,5.95956522 L94.8192308,5.95956522 Z M107.880769,5.95956522 L109.461538,13.3004348 L111.361538,5.95956522 L114.253846,5.95956522 L110.873077,17.5069565 L108.05,17.5069565 L104.753846,5.95956522 L107.880769,5.95956522 Z M130.934615,5.95956522 L130.934615,8.44043478 L126.426923,8.44043478 L126.426923,10.4595652 L130.326923,10.4595652 L130.326923,12.9247826 L126.426923,12.9247826 L126.426923,15.0104348 L130.934615,15.0104348 L130.934615,17.5069565 L123.519231,17.5069565 L123.519231,5.95956522 L130.934615,5.95956522 Z M93.0346154,8.43652174 L90.6153846,8.43652174 L90.6153846,11.516087 L93.0346154,11.516087 C93.1132733,11.5051095 93.1756842,11.4432006 93.1884615,11.3634783 L93.1884615,8.60869565 C93.1839173,8.52139846 93.1196003,8.44941933 93.0346154,8.43652174 Z" id="Combined-Shape"></path>
            </g>
        </g>
    </g>
</svg>