<?xml version="1.0" encoding="UTF-8"?>
<svg width="39px" height="32px" viewBox="0 0 39 32" version="1.1" xmlns="http://www.w3.org/2000/svg" xmlns:xlink="http://www.w3.org/1999/xlink">
    <title>logo-no-text</title>
    <g id="Workspace" stroke="none" stroke-width="1" fill="none" fill-rule="evenodd">
        <g id="Artboard" transform="translate(-150.000000, -24.000000)" fill="#FFFFFF" fill-rule="nonzero">
            <g id="logo/landscape" transform="translate(150.000000, 24.000000)">
                <path d="M36.8961538,0.0347826087 C37.9157565,0.0347826087 38.7423077,0.875708644 38.7423077,1.91304348 L38.7423077,1.91304348 L38.7423077,30.0947826 C38.7423077,31.1321174 37.9157565,31.9730435 36.8961538,31.9730435 L36.8961538,31.9730435 L29.4846154,31.9730435 L29.4884615,31.9886957 C29.0885173,31.9836286 28.7010575,31.8462773 28.3846154,31.5973913 L28.3846154,31.5973913 L10.4,17.9565217 C9.92639703,17.5948183 9.6506735,17.0250601 9.65756147,16.4226087 L9.65756147,16.4226087 L9.65756147,15.64 C9.65686375,14.933417 10.0458734,14.2861439 10.6644383,13.9648756 C11.2830032,13.6436073 12.0264516,13.7027078 12.5884615,14.1178261 L12.5884615,14.1178261 L29.7038462,26.7373913 C30.0199016,26.968534 30.3992227,27.0930678 30.7884615,27.0934783 L30.7884615,27.0934783 L32.0923077,27.0934783 C32.5822513,27.09452 33.0524229,26.8969669 33.3988661,26.5444986 C33.7453093,26.1920303 33.9394855,25.7136818 33.9384615,25.2152174 L33.9384615,25.2152174 L33.9384615,6.79652174 C33.9394855,6.29805736 33.7453093,5.81970886 33.3988661,5.46724054 C33.0524229,5.11477223 32.5822513,4.91721914 32.0923077,4.91826087 L32.0923077,4.91826087 L30.7153846,4.91826087 C30.225441,4.9193026 29.7552694,4.72174951 29.4088262,4.36928119 C29.062383,4.01681288 28.8682069,3.53846438 28.8692308,3.04 L28.8692308,3.04 L28.8692308,1.91304348 C28.8692308,0.875708644 29.695782,0.0347826087 30.7153846,0.0347826087 L30.7153846,0.0347826087 Z M9.29615385,0.00739130435 C9.69614711,0.0121740752 10.0836931,0.149555936 10.4,0.398695652 L10.4,0.398695652 L28.3846154,14.0434783 C28.8571972,14.4035114 29.1305978,14.972929 29.1192308,15.5734783 L29.1192308,15.5734783 L29.1192308,16.356087 C29.1190118,17.0612911 28.7305478,17.7069474 28.1133582,18.0279227 C27.4961685,18.348898 26.7542665,18.2910992 26.1923077,17.8782609 L26.1923077,17.8782609 L9.08461538,5.27043478 C8.76974759,5.03645424 8.389914,4.91038181 8,4.91043478 L8,4.91043478 L6.68461538,4.91043478 C6.19431782,4.9104337 5.72415756,5.10885839 5.37782578,5.4619474 C5.031494,5.81503642 4.83744009,6.2937853 4.83846154,6.7926087 L4.83846154,6.7926087 L4.83846154,25.1995652 C4.83846154,26.2369001 5.66501277,27.0778261 6.68461538,27.0778261 L6.68461538,27.0778261 L8.07692308,27.0778261 C8.5668667,27.0767844 9.0370383,27.2743374 9.38348152,27.6268058 C9.72992473,27.9792741 9.92410084,28.4576226 9.92307692,28.956087 L9.92307692,28.956087 L9.92307692,30.0869565 C9.92413223,30.588151 9.72784822,31.0688985 9.37806512,31.4218238 C9.02828202,31.774749 8.55413977,31.9704502 8.06153846,31.9653197 L8.06153846,31.9653197 L1.88461538,31.9653197 C0.86501277,31.9653197 0.03844549,31.1242914 0.03844549,30.0869565 L0.03844549,30.0869565 L0.03844549,1.91304348 C0.0364158462,1.41354313 0.230017315,0.933787137 0.576460295,0.579850445 C0.922903275,0.225913753 1.39364925,0.0269521857 1.88461538,0.0269565217 L1.88461538,0.0269565217 L9.29615385,0.0269565217 Z" id="logo-no-text"></path>
            </g>
        </g>
    </g>
</svg>