<?xml version="1.0" encoding="UTF-8"?>
<svg width="30px" height="30px" viewBox="0 0 30 30" version="1.1" xmlns="http://www.w3.org/2000/svg" xmlns:xlink="http://www.w3.org/1999/xlink">
    <title>Combined Shape</title>
    <g id="Symbols" stroke="none" stroke-width="1" fill="none" fill-rule="evenodd" fill-opacity="0.5">
        <g id="icon/new" transform="translate(-5.000000, -2.000000)" fill="#FFFFFF">
            <path d="M31.75,2 C33.5426463,2.00549053 34.9945095,3.45735374 35,5.25 L35,28.75 C34.9945095,30.5426463 33.5426463,31.9945095 31.75,32 L8.25,32 C6.45735374,31.9945095 5.00549053,30.5426463 5,28.75 L5,5.25 C5.00549053,3.45735374 6.45735374,2.00549053 8.25,2 L31.75,2 Z M31.75,4 L8.25,4 C7.55964406,4 7,4.55964406 7,5.25 L7,28.75 C7,29.4403559 7.55964406,30 8.25,30 L31.75,30 C32.4403559,30 33,29.4403559 33,28.75 L33,5.25 C33,4.55964406 32.4403559,4 31.75,4 Z M20,10 C20.5522847,10 21,10.4477153 21,11 L21,16 L26,16 C26.5522847,16 27,16.4477153 27,17 C27,17.5522847 26.5522847,18 26,18 L21,18 L21,24 C21,24.5522847 20.5522847,25 20,25 C19.4477153,25 19,24.5522847 19,24 L19,18 L14,18 C13.4477153,18 13,17.5522847 13,17 C13,16.4477153 13.4477153,16 14,16 L19,16 L19,11 C19,10.4477153 19.4477153,10 20,10 Z" id="Combined-Shape"></path>
        </g>
    </g>
</svg>