<?xml version="1.0" encoding="UTF-8"?>
<svg width="16px" height="16px" viewBox="0 0 16 16" version="1.1" xmlns="http://www.w3.org/2000/svg" xmlns:xlink="http://www.w3.org/1999/xlink">
    <title>icon/user</title>
    <g id="Devices" stroke="none" stroke-width="1" fill="none" fill-rule="evenodd">
        <g id="Device" transform="translate(-1205.000000, -198.000000)" fill="#FFFFFF">
            <g id="Group-2" transform="translate(148.000000, 185.000000)">
                <g id="Header" transform="translate(2.000000, 0.000000)">
                    <g id="Buttons/actions" transform="translate(770.000000, 0.000000)">
                        <g id="icon/user" transform="translate(284.000000, 12.000000)">
                            <path d="M9.671875,3.15625 L8.3125,4.515625 L4.015625,4.515625 C3.4375,4.515625 2.953125,4.984375 2.953125,5.5625 L2.953125,5.5625 L2.953125,14 C2.953125,14.578125 3.421875,15.046875 4.015625,15.046875 L4.015625,15.046875 L12.421875,15.046875 C13,15.046875 13.484375,14.59375 13.484375,14 L13.484375,14 L13.515625,14 L13.515625,9.6875 L14.875,8.328125 L14.875,14 C14.875,15.34375 13.78125,16.421875 12.4375,16.421875 L12.4375,16.421875 L4.015625,16.421875 C2.671875,16.421875 1.578125,15.34375 1.578125,14 L1.578125,14 L1.578125,5.5625 C1.578125,4.234375 2.671875,3.15625 4.015625,3.15625 L4.015625,3.15625 L9.671875,3.15625 Z M13.4375,1.578125 L13.5578079,1.5856414 C13.7975128,1.61543367 14.0290179,1.73214286 14.203125,1.90625 L14.203125,1.90625 L16.109375,3.796875 C16.3125,4 16.421875,4.28125 16.40625,4.578125 C16.40625,4.859375 16.296875,5.140625 16.09375,5.34375 L16.09375,5.34375 L9.078125,12.359375 C8.890625,12.546875 8.640625,12.65625 8.375,12.671875 L8.375,12.671875 L6.34375,12.796875 L6.34375,12.796875 L6.28125,12.796875 C6,12.796875 5.71875,12.6875 5.515625,12.484375 C5.296875,12.265625 5.1875,11.953125 5.203125,11.640625 L5.203125,11.640625 L5.328125,9.625 C5.34375,9.359375 5.453125,9.109375 5.640625,8.921875 L5.640625,8.921875 L12.671875,1.890625 C12.875,1.6875 13.140625,1.578125 13.4375,1.578125 L13.4375,1.578125 Z M7.125,9.359375 L6.671875,9.8125 L6.578125,11.421875 L8.1875,11.328125 L8.640625,10.875 L7.125,9.359375 Z M11.625,4.875 L8.109375,8.375 L9.625,9.890625 L13.140625,6.390625 L11.625,4.875 Z M13.4375,3.0625 L12.59375,3.90625 L14.09375,5.40625 L14.953125,4.578125 L13.4375,3.0625 Z" id="Combined-Shape"></path>
                        </g>
                    </g>
                </g>
            </g>
        </g>
    </g>
</svg>
