<?xml version="1.0" encoding="UTF-8"?>
<svg width="1200pt" height="1200pt" version="1.1" viewBox="0 0 1200 1200" xmlns="http://www.w3.org/2000/svg">
 <g fill="#fff">
  <path d="m1047.1 260.16-430.32-230.28c-14.293-7.7656-31.547-7.7656-45.84 0l-418.56 230.52c-7.5156 4.1406-13.785 10.223-18.152 17.609-4.3711 7.3867-6.6797 15.809-6.6875 24.391v253.44c-0.011719 125.56 36.668 248.39 105.53 353.39 68.859 105 166.9 187.59 282.07 237.61l57.48 24.961c12.035 5.1367 25.645 5.1367 37.68 0l66.238-27.719v-0.003906c117.41-48.84 217.7-131.4 288.18-237.24 70.488-105.84 108.01-230.2 107.82-357.36v-246.96c0-8.7031-2.3672-17.242-6.8477-24.703-4.4844-7.4648-10.91-13.566-18.59-17.656zm-70.68 289.68c0.19922 108.22-31.695 214.07-91.652 304.17-59.957 90.094-145.29 160.39-245.19 201.99l-48 19.801-38.762-16.801c-97.926-42.684-181.26-113.04-239.75-202.43-58.496-89.383-89.609-193.91-89.527-300.73v-225l370.92-204 381.96 204z"/>
  <path d="m409.32 528c-12.133-12.133-29.816-16.871-46.391-12.43-16.574 4.4414-29.52 17.387-33.961 33.961-4.4414 16.57 0.29688 34.258 12.43 46.391l162.6 163.2c8.8711 8.8555 20.859 13.887 33.395 14.023 12.535 0.13281 24.625-4.6406 33.684-13.305l287.28-274.08c9.3906-8.7578 14.883-20.906 15.25-33.738 0.36719-12.836-4.4219-25.277-13.297-34.555s-21.098-14.609-33.934-14.812c-12.836-0.19922-25.219 4.75-34.379 13.742l-253.08 241.68z"/>
 </g>
</svg>
