<?xml version="1.0" encoding="UTF-8"?>
<svg width="16px" height="16px" viewBox="0 0 16 16" version="1.1" xmlns="http://www.w3.org/2000/svg" xmlns:xlink="http://www.w3.org/1999/xlink">
    <title>icon/info</title>
    <g id="Workspace" stroke="none" stroke-width="1" fill="none" fill-rule="evenodd">
        <g id="Workspace-/-Firmware-/-Add-new" transform="translate(-666.000000, -410.000000)" fill="#FFFFFF">
            <g id="Group" transform="translate(248.000000, 212.000000)">
                <g id="Group-2" transform="translate(320.000000, 84.000000)">
                    <g id="Stacked-Group-2" transform="translate(22.000000, 107.000000)">
                        <g id="icon/info" transform="translate(76.000000, 7.000000)">
                            <path d="M8,-1.42108547e-14 C12.4223602,-1.42108547e-14 16,3.5942029 16,8 C16,12.4057971 12.4057971,16 8,16 C3.57763975,16 -1.42108547e-14,12.4057971 -1.42108547e-14,8 C-1.42108547e-14,3.5942029 3.57763975,-1.42108547e-14 8,-1.42108547e-14 Z M8,0.977225673 C4.1242236,0.977225673 0.99378882,4.1242236 0.99378882,8 C0.99378882,11.8592133 4.14078675,15.0062112 8,15.0062112 C11.8592133,15.0062112 15.0062112,11.8592133 15.0062112,8 C15.0062112,4.1242236 11.8592133,0.977225673 8,0.977225673 Z M8.08281573,11.3126294 C8.43042353,11.3126294 8.71221532,11.5944212 8.71221532,11.942029 C8.71221532,12.2896368 8.43042353,12.5714286 8.08281573,12.5714286 C7.73520794,12.5714286 7.45341615,12.2896368 7.45341615,11.942029 C7.45341615,11.5944212 7.73520794,11.3126294 8.08281573,11.3126294 Z M8.08281573,3.74327122 C9.60662526,3.74327122 10.8322981,4.9689441 10.8322981,6.47619048 C10.8322981,7.85093168 9.83850932,8.97722567 8.5300207,9.19254658 L8.5300207,9.19254658 L8.5300207,10.136646 C8.5300207,10.3850932 8.33126294,10.5838509 8.08281573,10.5838509 C7.83436853,10.5838509 7.63561077,10.3850932 7.63561077,10.136646 L7.63561077,10.136646 L7.63561077,8.79503106 C7.63561077,8.54658385 7.83436853,8.34782609 8.08281573,8.34782609 C9.10973085,8.34782609 9.9378882,7.51966874 9.9378882,6.49275362 C9.9378882,5.46583851 9.10973085,4.63768116 8.08281573,4.63768116 C7.05590062,4.63768116 6.22774327,5.46583851 6.22774327,6.49275362 C6.22774327,6.74120083 6.02898551,6.93995859 5.7805383,6.93995859 C5.5320911,6.93995859 5.33333333,6.74120083 5.33333333,6.49275362 C5.33333333,4.9689441 6.57556936,3.74327122 8.08281573,3.74327122 Z" id="Combined-Shape-Copy"></path>
                        </g>
                    </g>
                </g>
            </g>
        </g>
    </g>
</svg>