<?xml version="1.0" encoding="UTF-8"?>
<svg width="34px" height="34px" viewBox="0 0 34 34" version="1.1" xmlns="http://www.w3.org/2000/svg" xmlns:xlink="http://www.w3.org/1999/xlink">
    <title>Shape</title>
    <g id="Symbols" stroke="none" stroke-width="1" fill="none" fill-rule="evenodd">
        <g id="component/firmware-key" transform="translate(-33.000000, -43.000000)" fill="#FFFFFF">
            <path d="M48.8097715,66.0904861 L50.4078774,67.6887625 C50.7583766,68.0546865 51.2463339,68.2567119 51.7528896,68.245628 L53.643861,68.245628 L53.643861,69.8439044 C53.643861,71.0421447 54.6151231,72.0135104 55.8132356,72.0135104 L57.4113415,72.0135104 L57.4113415,73.9010676 C57.4129171,74.3988506 57.6088207,74.8763353 57.9573007,75.2317592 L59.2119223,76.4865147 C59.5446403,76.8163614 59.9944458,77.0009834 60.4629283,77 L65.4452585,77 C66.303081,76.9979999 66.9979889,76.3030178 66.9999847,75.4451038 L66.9999847,75.4451038 L66.9999847,70.4622421 C67.001376,69.9900881 66.813905,69.5369848 66.479327,69.2038706 L56.088023,58.8114581 C57.9233539,53.5798694 55.8959164,47.7742981 51.2029449,44.8230276 C46.5099734,41.8717571 40.3997636,42.5598035 36.4804928,46.4808641 C32.5598504,50.4005531 31.8718775,56.5114147 34.8228332,61.2048868 C37.7737889,65.8983589 43.5787409,67.9260128 48.8097715,66.0904861 Z M38.0171331,48.0104364 C41.3012348,44.7216532 46.4552743,44.2219921 50.3098277,46.8187146 C54.1643811,49.4154371 55.6380607,54.3800376 53.8246423,58.6595856 C53.652435,59.0662776 53.7439517,59.5367809 54.0560422,59.8492529 L64.8269868,70.6249626 L64.8269868,74.8303821 L60.6220158,74.8303821 L59.5626379,73.7708912 L59.5626379,71.2143722 C59.5626379,70.4435043 58.9377926,69.8185923 58.1670069,69.8185923 L58.1670069,69.8185923 L55.8132356,69.8185923 L55.8132356,67.4718019 C55.8132356,66.700934 55.1883903,66.076022 54.4176046,66.076022 L51.8649739,66.076022 L49.8474556,64.0582885 C49.5350169,63.7461647 49.0645638,63.6546382 48.6579152,63.8268639 C44.3793839,65.6366967 39.4184564,64.1614735 36.8237285,60.3077504 C34.2290006,56.4540274 34.7277638,51.3019872 38.0135175,48.0176684 L38.0171331,48.0104364 Z M42.5583572,56.5406038 C44.7548967,56.5406038 46.5355438,54.7597667 46.5355438,52.5629929 C46.5355438,50.366219 44.7548967,48.5853819 42.5583572,48.5853819 C40.3618176,48.5853819 38.5811705,50.366219 38.5811705,52.5629929 C38.5811705,54.7597667 40.3618176,56.5406038 42.5583572,56.5406038 Z M42.5583572,50.783916 C43.5567842,50.783916 44.3661693,51.5933874 44.3661693,52.591921 C44.3661693,53.5904545 43.5567842,54.3999259 42.5583572,54.3999259 C41.5599301,54.3999259 40.7505414,53.5904545 40.7505414,52.591921 C40.7495849,52.111782 40.9396263,51.6509794 41.2787609,51.3111302 C41.6178956,50.971281 42.0782685,50.7803 42.5583572,50.7803 L42.5583572,50.783916 Z" id="Shape"></path>
        </g>
    </g>
</svg>