<?xml version="1.0" encoding="UTF-8"?>
<svg width="4px" height="12px" viewBox="0 0 4 12" version="1.1" xmlns="http://www.w3.org/2000/svg" xmlns:xlink="http://www.w3.org/1999/xlink">
    <title>Combined Shape</title>
    <g id="Symbols" stroke="none" stroke-width="1" fill="none" fill-rule="evenodd">
        <g id="icon/more" transform="translate(-10.000000, -6.000000)" fill="#FFFFFF">
            <path d="M13.2444444,14.0769231 C13.6888889,14.0769231 14,14.425641 14,14.8179487 L14,14.8179487 L14,17.2589744 C14,17.6512821 13.6444444,18 13.2444444,18 L13.2444444,18 L10.7555556,18 C10.3555556,18 10,17.6512821 10,17.2589744 L10,17.2589744 L10,14.8179487 C10,14.425641 10.3555556,14.0769231 10.7555556,14.0769231 L10.7555556,14.0769231 Z M13.2444444,6 C13.6888889,6 14,6.34871795 14,6.74102564 L14,6.74102564 L14,9.18205128 C14,9.57435897 13.6444444,9.92307692 13.2444444,9.92307692 L13.2444444,9.92307692 L10.7555556,9.92307692 C10.3555556,9.92307692 10,9.57435897 10,9.18205128 L10,9.18205128 L10,6.74102564 C10,6.34871795 10.3555556,6 10.7555556,6 L10.7555556,6 Z" id="Combined-Shape"></path>
        </g>
    </g>
</svg>