<?xml version="1.0" encoding="UTF-8"?>
<svg width="25px" height="30px" viewBox="0 0 25 30" version="1.1" xmlns="http://www.w3.org/2000/svg" xmlns:xlink="http://www.w3.org/1999/xlink">
    <title>Shape</title>
    <g id="Symbols" stroke="none" stroke-width="1" fill="none" fill-rule="evenodd">
        <g id="icon/quarantine" transform="translate(-7.000000, -2.000000)" fill="#FFFFFF">
            <path d="M18.9719828,2.12689655 C18.8639333,2.13903271 18.7584724,2.16812539 18.6594828,2.21310345 L7.625,7.01913793 C7.24628567,7.18240764 7.00071015,7.55500497 7,7.96741379 C7,15.4147276 7.44664138,19.7473448 9.19827586,23.0966897 C10.9499103,26.446069 13.8969759,28.5528621 18.4978448,31.6096207 C18.8440901,31.8388498 19.293841,31.8388498 19.6400862,31.6096207 C24.2409552,28.5528621 27.1880207,26.446069 28.9396552,23.0966897 C30.6912897,19.7473448 31.137931,15.4147276 31.137931,7.96741379 C31.1372209,7.55500497 30.8916454,7.18240764 30.512931,7.01913793 L19.4784483,2.21310345 C19.3195599,2.14224179 19.1453675,2.11259203 18.9719828,2.12689655 L18.9719828,2.12689655 Z M19.0689655,4.29284483 L29.0581897,8.63551724 C29.0257069,15.5288966 28.5299655,19.4182069 27.1077586,22.1376552 C25.7039069,24.822 23.2543759,26.6977586 19.0689655,29.4975517 C14.8835552,26.6977586 12.4340241,24.822 11.0301724,22.1376552 C9.60796552,19.4182069 9.11221379,15.5288966 9.07974138,8.63551724 L19.0689655,4.29284483 Z M19.0689655,9.02344828 C18.4976552,9.02344828 18.0344828,9.48662069 18.0344828,10.057931 L18.0344828,19.7131034 C18.0344828,20.2844483 18.4976552,20.7475517 19.0689655,20.7475517 C19.6403103,20.7475517 20.1034483,20.2844483 20.1034483,19.7131034 L20.1034483,10.057931 C20.1034483,9.48662069 19.6403103,9.02344828 19.0689655,9.02344828 Z M19.0689655,21.4372069 C18.3071897,21.4372069 17.6896552,22.0547586 17.6896552,22.8165172 C17.6896552,23.5783103 18.3071897,24.1958276 19.0689655,24.1958276 C19.8307345,24.1958276 20.4482759,23.5783103 20.4482759,22.8165172 C20.4482759,22.0547586 19.8307345,21.4372069 19.0689655,21.4372069 Z" id="Shape"></path>
        </g>
    </g>
</svg>