<?xml version="1.0" encoding="UTF-8"?>
<svg width="30px" height="30px" viewBox="0 0 30 30" version="1.1" xmlns="http://www.w3.org/2000/svg" xmlns:xlink="http://www.w3.org/1999/xlink">
    <title>settings</title>
    <g id="Symbols" stroke="none" stroke-width="1" fill="none" fill-rule="evenodd">
        <g id="icon/settings" transform="translate(-5.000000, -2.000000)" fill="#FFFFFF" fill-rule="nonzero">
            <g id="settings" transform="translate(5.000000, 2.000000)">
                <path d="M15,8 C11.1340068,8 8,11.1340068 8,15 C8,18.8659932 11.1340068,22 15,22 C18.8659932,22 22,18.8659932 22,15 C22,13.1434846 21.2625021,11.3630072 19.9497475,10.0502525 C18.6369928,8.73749788 16.8565154,8 15,8 Z M15,20 C12.2385763,20 10,17.7614237 10,15 C10,12.2385763 12.2385763,10 15,10 C17.7614237,10 20,12.2385763 20,15 C20,16.3260824 19.4732158,17.597852 18.5355339,18.5355339 C17.597852,19.4732158 16.3260824,20 15,20 Z" id="Shape"></path>
                <path d="M27.7803948,11 L26.3103948,11 C26.1703948,10.6 26.0003948,10.21 25.8303948,9.83 L26.8303948,8.83 C27.2468619,8.41365113 27.4808407,7.84888987 27.4808407,7.26 C27.4808407,6.67111013 27.2468619,6.10634887 26.8303948,5.69 L24.3503948,3.14 C23.4725243,2.2993495 22.0882653,2.2993495 21.2103948,3.14 L20.2103948,4.14 C19.7903948,4 19.4003948,3.83 19.0003948,3.69 L19.0003948,2.22 C18.9949191,0.996203134 18.0041917,0.00547568328 16.7803948,0 L13.2203948,0 C11.9965979,0.00547568328 11.0058705,0.996203134 11.0003948,2.22 L11.0003948,3.69 C10.6003948,3.83 10.2103948,4 9.83039479,4.17 L8.83039479,3.17 C7.95252428,2.3293495 6.56826529,2.3293495 5.69039479,3.17 L3.14039479,5.65 C2.72392763,6.06634887 2.48994886,6.63111013 2.48994886,7.22 C2.48994886,7.80888987 2.72392763,8.37365113 3.14039479,8.79 L4.14039479,9.79 C3.97039479,10.17 3.80039479,10.56 3.66039479,10.96 L2.22039479,10.96 C1.62546285,10.962614 1.05624072,11.202848 0.639328982,11.6272716 C0.222417243,12.0516953 -0.00761460066,12.6251162 0.000192424191,13.22 L0.000192424191,16.78 C0.00587047105,18.0037969 0.996597921,18.9945243 2.22039479,19 L3.69039479,19 C3.83039479,19.4 4.00039479,19.79 4.17039479,20.17 L3.17039479,21.17 C2.75392763,21.5863489 2.51994886,22.1511101 2.51994886,22.74 C2.51994886,23.3288899 2.75392763,23.8936511 3.17039479,24.31 L5.68039479,26.82 C6.55826529,27.6606505 7.94252428,27.6606505 8.82039479,26.82 L9.82039479,25.82 C10.2003948,25.99 10.5903948,26.16 10.9903948,26.3 L10.9903948,27.77 C10.9903948,29.001595 11.9887998,30 13.2203948,30 L16.7803948,30 C18.0041917,29.9945243 18.9949191,29.0037969 19.0003948,27.78 L19.0003948,26.31 C19.4003948,26.17 19.7903948,26 20.1703948,25.83 L21.1703948,26.83 C22.0482653,27.6706505 23.4325243,27.6706505 24.3103948,26.83 L26.8203948,24.32 C27.2368619,23.9036511 27.4708407,23.3388899 27.4708407,22.75 C27.4708407,22.1611101 27.2368619,21.5963489 26.8203948,21.18 L25.8203948,20.18 C25.9903948,19.8 26.1603948,19.41 26.3003948,19.01 L27.7703948,19.01 C29.0019898,19.01 30.0003948,18.011595 30.0003948,16.78 L30.0003948,13.22 C29.9949191,11.9962031 29.0041917,11.0054757 27.7803948,11 Z M28.0003948,16.78 C28.0003948,16.9015026 27.9018974,17 27.7803948,17 L25.5803948,17 C25.118391,16.982918 24.7049054,17.2847625 24.5803948,17.73 C24.374138,18.4761094 24.0786724,19.1946281 23.7003948,19.87 C23.4805978,20.2626858 23.5501746,20.7538166 23.8703948,21.07 L25.4203948,22.62 C25.4644364,22.6615634 25.4893981,22.7194428 25.4893981,22.78 C25.4893981,22.8405572 25.4644364,22.8984366 25.4203948,22.94 L22.9103948,25.45 C22.8726239,25.5003612 22.8133462,25.53 22.7503948,25.53 C22.6874433,25.53 22.6281657,25.5003612 22.5903948,25.45 L21.0403948,23.89 C20.7217819,23.5730976 20.2309083,23.5076478 19.8403948,23.73 C19.1650229,24.1082776 18.4465042,24.4037432 17.7003948,24.61 C17.2551573,24.7345106 16.9533128,25.1479962 16.9703948,25.61 L16.9703948,27.81 C16.9703948,27.9315026 16.8718974,28.03 16.7503948,28.03 L13.2203948,28.03 C13.0988921,28.03 13.0003948,27.9315026 13.0003948,27.81 L13.0003948,25.61 C13.0174768,25.1479962 12.7156323,24.7345106 12.2703948,24.61 C11.5242854,24.4037432 10.8057667,24.1082776 10.1303948,23.73 C9.98093911,23.6452977 9.81218304,23.6005257 9.64039479,23.6 C9.3745918,23.5984632 9.11911362,23.7028135 8.93039479,23.89 L7.38039479,25.45 C7.34262391,25.5003612 7.28334625,25.53 7.22039479,25.53 C7.15744333,25.53 7.09816566,25.5003612 7.06039479,25.45 L4.55039479,22.94 C4.50635317,22.8984366 4.48139148,22.8405572 4.48139148,22.78 C4.48139148,22.7194428 4.50635317,22.6615634 4.55039479,22.62 L6.10039479,21.07 C6.42061494,20.7538166 6.49019181,20.2626858 6.27039479,19.87 C5.89211719,19.1946281 5.59665156,18.4761094 5.39039479,17.73 C5.2658842,17.2847625 4.85239862,16.982918 4.39039479,17 L2.22039479,17 C2.16204716,17 2.1060893,16.9768215 2.0648313,16.9355635 C2.02357329,16.8943055 2.00039479,16.8383476 2.00039479,16.78 L2.00039479,13.22 C2.00039479,13.1616524 2.02357329,13.1056945 2.0648313,13.0644365 C2.1060893,13.0231785 2.16204716,13 2.22039479,13 L4.42039479,13 C4.88239862,13.017082 5.2958842,12.7152375 5.42039479,12.27 C5.62665156,11.5238906 5.92211719,10.8053719 6.30039479,10.13 C6.52019181,9.73731418 6.45061494,9.24618339 6.13039479,8.93 L4.55039479,7.38 C4.50635317,7.33843664 4.48139148,7.28055722 4.48139148,7.22 C4.48139148,7.15944278 4.50635317,7.10156336 4.55039479,7.06 L7.06039479,4.55 C7.09816566,4.49963883 7.15744333,4.47 7.22039479,4.47 C7.28334625,4.47 7.34262391,4.49963883 7.38039479,4.55 L8.93039479,6.11 C9.24900769,6.42690237 9.73988128,6.49235218 10.1303948,6.27 C10.8057667,5.8917224 11.5242854,5.59625677 12.2703948,5.39 C12.7156323,5.26548942 13.0174768,4.85200383 13.0003948,4.39 L13.0003948,2.22 C13.0003948,2.16165237 13.0235733,2.10569451 13.0648313,2.06443651 C13.1060893,2.0231785 13.1620472,2 13.2203948,2 L16.7803948,2 C16.8387424,2 16.8947003,2.0231785 16.9359583,2.06443651 C16.9772163,2.10569451 17.0003948,2.16165237 17.0003948,2.22 L17.0003948,4.42 C16.9833128,4.88200383 17.2851573,5.29548942 17.7303948,5.42 C18.4765042,5.62625677 19.1950229,5.9217224 19.8703948,6.3 C20.2609083,6.52235218 20.7517819,6.45690237 21.0703948,6.14 L22.6203948,4.58 C22.6581657,4.52963883 22.7174433,4.5 22.7803948,4.5 C22.8433462,4.5 22.9026239,4.52963883 22.9403948,4.58 L25.4503948,7.09 C25.4944364,7.13156336 25.5193981,7.18944278 25.5193981,7.25 C25.5193981,7.31055722 25.4944364,7.36843664 25.4503948,7.41 L23.9003948,8.93 C23.5801746,9.24618339 23.5105978,9.73731418 23.7303948,10.13 C24.1086724,10.8053719 24.404138,11.5238906 24.6103948,12.27 C24.7349054,12.7152375 25.148391,13.017082 25.6103948,13 L27.8103948,13 C27.9318974,13 28.0303948,13.0984974 28.0303948,13.22 L28.0003948,16.78 Z" id="Shape"></path>
            </g>
        </g>
    </g>
</svg>