<?xml version="1.0" encoding="UTF-8"?>
<svg width="20px" height="21px" viewBox="0 0 20 21" version="1.1" xmlns="http://www.w3.org/2000/svg" xmlns:xlink="http://www.w3.org/1999/xlink">
    <title>icon/user</title>
    <g id="Firmware" stroke="none" stroke-width="1" fill="none" fill-rule="evenodd">
        <g id="Firmware-Details" transform="translate(-1090.000000, -196.000000)" fill="#FFFFFF">
            <g id="Header" transform="translate(150.000000, 185.000000)">
                <g id="Buttons/actions-Copy" transform="translate(863.000000, 0.000000)">
                    <g id="icon/user" transform="translate(75.000000, 9.500000)">
                        <path d="M14.6458333,2.1875 C14.9791667,2.1875 15.25,2.45833333 15.25,2.79166667 L15.25,2.79166667 L15.25,4.66666667 L21.2916667,4.66666667 C21.625,4.66666667 21.8958333,4.9375 21.8958333,5.27083333 C21.8958333,5.60416667 21.625,5.875 21.2916667,5.875 L21.2916667,5.875 L19.9375,5.875 L18.8541667,19.9583333 C18.7916667,21 17.8958333,21.8333333 16.8333333,21.8333333 L16.8333333,21.8333333 L7.1875,21.8333333 C6.14583333,21.8333333 5.25,21.0208333 5.16666667,19.9583333 L5.16666667,19.9583333 L4.08333333,5.875 L2.72916667,5.875 C2.39583333,5.875 2.125,5.60416667 2.125,5.27083333 C2.125,4.9375 2.39583333,4.66666667 2.72916667,4.66666667 L2.72916667,4.66666667 L8.77083333,4.66666667 L8.77083333,2.79166667 C8.77083333,2.45833333 9.04166667,2.1875 9.375,2.1875 L9.375,2.1875 Z M18.6875,5.89583333 L5.29166667,5.89583333 L6.375,19.875 C6.41666667,20.2916667 6.77083333,20.625 7.1875,20.625 L7.1875,20.625 L16.8125,20.625 C17.2291667,20.625 17.5833333,20.2916667 17.625,19.875 L17.625,19.875 L18.6875,5.89583333 Z M9.79166667,8.97916667 C10.125,8.97916667 10.3958333,9.25 10.3958333,9.58333333 L10.3958333,9.58333333 L10.3958333,16.9166667 C10.3958333,17.25 10.125,17.5208333 9.79166667,17.5208333 C9.45833333,17.5208333 9.1875,17.25 9.1875,16.9166667 L9.1875,16.9166667 L9.1875,9.58333333 C9.1875,9.25 9.45833333,8.97916667 9.79166667,8.97916667 Z M14.2083333,8.97916667 C14.5416667,8.97916667 14.8125,9.25 14.8125,9.58333333 L14.8125,9.58333333 L14.8125,16.9166667 C14.8125,17.25 14.5416667,17.5208333 14.2083333,17.5208333 C13.8541667,17.5208333 13.5833333,17.25 13.6041667,16.9166667 L13.6041667,16.9166667 L13.6041667,9.58333333 C13.6041667,9.25 13.875,8.97916667 14.2083333,8.97916667 Z M14,3.39583333 L10,3.39583333 L10,4.66666667 L14,4.66666667 L14,3.39583333 Z" id="Combined-Shape"></path>
                    </g>
                </g>
            </g>
        </g>
    </g>
</svg>