<?xml version="1.0" encoding="UTF-8"?>
<svg width="230px" height="230px" viewBox="0 0 230 230" version="1.1" xmlns="http://www.w3.org/2000/svg" xmlns:xlink="http://www.w3.org/1999/xlink">
    <title>deployment</title>
    <g id="Graphics" stroke="none" stroke-width="1" fill="none" fill-rule="evenodd">
        <g id="Artboard" transform="translate(-858.000000, -399.000000)" fill-rule="nonzero">
            <g id="deployment" transform="translate(858.000000, 399.000000)">
                <ellipse id="Oval" fill="#000000" cx="36.3474194" cy="115" rx="11.2347581" ry="11.1939516"></ellipse>
                <ellipse id="Oval" fill="#000000" cx="59.5533065" cy="170.302016" rx="11.2347581" ry="11.1939516"></ellipse>
                <ellipse id="Oval" fill="#000000" cx="115" cy="36.5625806" rx="11.2347581" ry="11.1939516"></ellipse>
                <ellipse id="Oval" fill="#000000" cx="59.5533065" cy="59.6979839" rx="11.2347581" ry="11.1939516"></ellipse>
                <ellipse id="Oval" fill="#000000" cx="170.454113" cy="59.6979839" rx="11.2347581" ry="11.1939516"></ellipse>
                <path d="M102.216452,100.895806 C102.036532,101.276048 101.800968,101.637742 101.485645,101.949355 C101.19629,102.235 100.866129,102.448306 100.519274,102.620806 C97.6479839,105.953952 95.9007258,110.273871 95.9007258,115 C95.9007258,125.496532 104.468226,134.038065 115,134.038065 C119.746532,134.038065 124.085,132.292661 127.429274,129.425081 C127.598065,129.085645 127.805806,128.762903 128.085887,128.477258 C128.403065,128.154516 128.770323,127.915242 129.156129,127.733468 C132.216613,124.355806 134.099274,119.898629 134.099274,115 C134.099274,104.503468 125.531774,95.9619355 115,95.9619355 C110.080968,95.9619355 105.605242,97.8408871 102.216452,100.895806 Z" id="Path" fill="#A72B2A"></path>
                <path d="M115,0 C51.588629,0 0,51.588629 0,115 C0,178.411371 51.588629,230 115,230 C178.411371,230 230,178.411371 230,115 C230,51.588629 178.411371,0 115,0 Z M193.652581,133.613306 C184.639919,133.613306 177.101855,127.201129 175.373145,118.709677 L141.227419,118.709677 C140.574516,123.318952 138.734516,127.544274 136.015323,131.074032 L160.131935,154.804839 C163.088548,152.836855 166.636855,151.685 170.448548,151.685 C180.735484,151.685 189.104516,160.033629 189.104516,170.298306 C189.104516,180.562984 180.735484,188.911613 170.448548,188.911613 C160.163468,188.911613 151.794435,180.562984 151.794435,170.298306 C151.794435,166.514435 152.938871,162.995806 154.888306,160.055887 L130.710484,136.263871 C127.25121,138.816129 123.16129,140.541129 118.709677,141.16621 L118.709677,175.196935 C127.223387,176.918226 133.654113,184.441452 133.654113,193.437419 C133.654113,203.700242 125.285081,212.050726 115,212.050726 C104.714919,212.050726 96.3458871,203.702097 96.3458871,193.437419 C96.3458871,184.441452 102.774758,176.918226 111.290323,175.196935 L111.290323,141.16621 C106.749677,140.528145 102.585565,138.745645 99.083629,136.109919 L75.095,160.033629 C77.0537097,162.979113 78.2018548,166.505161 78.2018548,170.298306 C78.2018548,180.561129 69.8346774,188.911613 59.5477419,188.911613 C49.2608065,188.911613 40.893629,180.562984 40.893629,170.298306 C40.893629,160.033629 49.2608065,151.685 59.5477419,151.685 C63.3520161,151.685 66.8910484,152.833145 69.8439516,154.791855 L93.8307258,130.87 C91.195,127.381048 89.4106452,123.231774 88.7707258,118.709677 L54.6268548,118.709677 C52.8981452,127.201129 45.3600806,133.613306 36.3474194,133.613306 C26.0623387,133.613306 17.6933065,125.264677 17.6933065,115 C17.6933065,104.735323 26.0604839,96.3866935 36.3474194,96.3866935 C45.3600806,96.3866935 52.8981452,102.798871 54.6268548,111.290323 L88.7725806,111.290323 C89.401371,106.857258 91.126371,102.780323 93.678629,99.3340323 L69.8216935,75.221129 C66.8725,77.1705645 63.3427419,78.3131452 59.5495968,78.3131452 C49.2645161,78.3131452 40.8954839,69.9645161 40.8954839,59.6998387 C40.8954839,49.4351613 49.2626613,41.0865323 59.5495968,41.0865323 C69.8365323,41.0865323 78.2037097,49.4351613 78.2037097,59.6998387 C78.2037097,63.5004032 77.05,67.0375806 75.0820161,69.9867742 L98.8795968,94.0403226 C102.422339,91.321129 106.6625,89.4829839 111.290323,88.8319355 L111.290323,54.8030645 C102.776613,53.0817742 96.3458871,45.5585484 96.3458871,36.5625806 C96.3458871,26.2997581 104.713065,17.9492742 115,17.9492742 C125.285081,17.9492742 133.654113,26.2979032 133.654113,36.5625806 C133.654113,45.5585484 127.223387,53.0817742 118.709677,54.8030645 L118.709677,88.8337903 C123.248468,89.4718548 127.412581,91.2543548 130.912661,93.886371 L154.903145,69.966371 C152.942581,67.0208871 151.794435,63.4948387 151.794435,59.7016935 C151.794435,49.438871 160.163468,41.0883871 170.448548,41.0883871 C180.735484,41.0883871 189.104516,49.4370161 189.104516,59.7016935 C189.104516,69.966371 180.735484,78.315 170.450403,78.315 C166.646129,78.315 163.108952,77.1668548 160.156048,75.21 L136.165565,99.1281452 C138.80129,102.618952 140.585645,106.768226 141.225565,111.290323 L175.373145,111.290323 C177.101855,102.798871 184.639919,96.3866935 193.652581,96.3866935 C203.937661,96.3866935 212.306694,104.735323 212.306694,115 C212.306694,125.264677 203.937661,133.613306 193.652581,133.613306 Z" id="Shape" fill="#494C4E" opacity="0.8"></path>
                <ellipse id="Oval" fill="#000000" cx="193.652581" cy="115" rx="11.2347581" ry="11.1939516"></ellipse>
                <ellipse id="Oval" fill="#000000" cx="170.454113" cy="170.302016" rx="11.2347581" ry="11.1939516"></ellipse>
                <ellipse id="Oval" fill="#000000" cx="115" cy="193.437419" rx="11.2347581" ry="11.1939516"></ellipse>
            </g>
        </g>
    </g>
</svg>