<?xml version="1.0" encoding="UTF-8"?>
<svg width="30px" height="30px" viewBox="0 0 30 30" version="1.1" xmlns="http://www.w3.org/2000/svg" xmlns:xlink="http://www.w3.org/1999/xlink">
    <title>Combined Shape</title>
    <g id="Symbols" stroke="none" stroke-width="1" fill="none" fill-rule="evenodd" fill-opacity="0.5">
        <g id="icon/delete-copy" transform="translate(-5.000000, -2.000000)" fill="#FFFFFF">
            <path d="M23.9989463,2 C24.5047418,2 24.9157007,2.4109589 24.9157007,2.91675448 L24.9157007,2.91675448 L24.9157007,5.76185458 L34.0832455,5.76185458 C34.5890411,5.76185458 35,6.17281349 35,6.67860906 C35,7.18440464 34.5890411,7.59536354 34.0832455,7.59536354 L34.0832455,7.59536354 L32.028451,7.59536354 L30.3846154,28.9652266 C30.2897787,30.5458377 28.9304531,31.8103267 27.3182297,31.8103267 L27.3182297,31.8103267 L12.6817703,31.8103267 C11.1011591,31.8103267 9.74183351,30.5774499 9.61538462,28.9652266 L9.61538462,28.9652266 L7.971549,7.59536354 L5.91675448,7.59536354 C5.4109589,7.59536354 5,7.18440464 5,6.67860906 C5,6.17281349 5.4109589,5.76185458 5.91675448,5.76185458 L5.91675448,5.76185458 L15.0842993,5.76185458 L15.0842993,2.91675448 C15.0842993,2.4109589 15.4952582,2 16.0010537,2 L16.0010537,2 Z M30.1317176,7.62697576 L9.80505796,7.62697576 L11.4488936,28.8387777 C11.512118,29.4710221 12.0495258,29.9768177 12.6817703,29.9768177 L12.6817703,29.9768177 L27.2866175,29.9768177 C27.918862,29.9768177 28.4562698,29.4710221 28.5194942,28.8387777 L28.5194942,28.8387777 L30.1317176,7.62697576 Z M16.6332982,12.3055848 C17.1390938,12.3055848 17.5500527,12.7165437 17.5500527,13.2223393 L17.5500527,13.2223393 L17.5500527,24.3498419 C17.5500527,24.8556375 17.1390938,25.2665964 16.6332982,25.2665964 C16.1275026,25.2665964 15.7165437,24.8556375 15.7165437,24.3498419 L15.7165437,24.3498419 L15.7165437,13.2223393 C15.7165437,12.7165437 16.1275026,12.3055848 16.6332982,12.3055848 Z M23.3350896,12.3055848 C23.8408851,12.3055848 24.251844,12.7165437 24.251844,13.2223393 L24.251844,13.2223393 L24.251844,24.3498419 C24.251844,24.8556375 23.8408851,25.2665964 23.3350896,25.2665964 C22.7976818,25.2665964 22.3867229,24.8556375 22.4183351,24.3498419 L22.4183351,13.2223393 C22.4183351,12.7165437 22.829294,12.3055848 23.3350896,12.3055848 Z M23.0189673,3.83350896 L16.9494204,3.83350896 L16.9494204,5.76185458 L23.0189673,5.76185458 L23.0189673,3.83350896 Z" id="Combined-Shape"></path>
        </g>
    </g>
</svg>