<?xml version="1.0" encoding="UTF-8"?>
<svg width="16px" height="15px" viewBox="0 0 16 15" version="1.1" xmlns="http://www.w3.org/2000/svg" xmlns:xlink="http://www.w3.org/1999/xlink">
    <title>icon/user</title>
    <g id="Devices" stroke="none" stroke-width="1" fill="none" fill-rule="evenodd">
        <g id="Device-/-Quarantined" transform="translate(-1073.000000, -199.000000)" fill="#FFFFFF">
            <g id="Group-2" transform="translate(148.000000, 185.000000)">
                <g id="Header" transform="translate(2.000000, 0.000000)">
                    <g id="Buttons/actions" transform="translate(770.000000, 0.000000)">
                        <g id="icon/user" transform="translate(152.000000, 12.000000)">
                            <path d="M14.2702703,2.25 C15.5067568,2.25 16.5,3.26195652 16.5,4.52173913 L16.5,4.52173913 L16.5,14.2282609 C16.5,15.4880435 15.5067568,16.5 14.2702703,16.5 L14.2702703,16.5 L3.72972973,16.5 C2.49324324,16.5 1.5,15.4880435 1.5,14.2282609 L1.5,14.2282609 L1.5,4.52173913 C1.5,3.26195652 2.49324324,2.25 3.72972973,2.25 L3.72972973,2.25 Z M15.2837838,6.85543478 L2.71621622,6.85543478 L2.71621622,14.2282609 C2.71621622,14.8065217 3.16216216,15.2608696 3.72972973,15.2608696 L3.72972973,15.2608696 L14.2702703,15.2608696 C14.8378378,15.2608696 15.2837838,14.8065217 15.2837838,14.2282609 L15.2837838,14.2282609 L15.2837838,6.85543478 Z M12.8513514,12.6793478 C13.1959459,12.6793478 13.4594595,12.9478261 13.4594595,13.298913 C13.4594595,13.65 13.1959459,13.9184783 12.8513514,13.9184783 L12.8513514,13.9184783 L8.53378378,13.9184783 C8.18918919,13.9184783 7.92567568,13.65 7.92567568,13.298913 C7.92567568,12.9478261 8.18918919,12.6793478 8.53378378,12.6793478 L8.53378378,12.6793478 Z M4.64189189,8.30108696 C4.88513514,8.07391304 5.27027027,8.09456522 5.49324324,8.3423913 L5.49324324,8.3423913 L7.72297297,10.4076087 C7.72297297,10.4282609 7.72297297,10.4282609 7.74324324,10.448913 C7.96621622,10.6967391 7.94594595,11.0891304 7.7027027,11.3163043 L7.7027027,11.3163043 L5.47297297,13.3815217 C5.25,13.5673913 4.92567568,13.5467391 4.7027027,13.3402174 C4.43918919,13.1130435 4.43918919,12.7206522 4.66216216,12.4728261 L4.66216216,12.4728261 L6.42567568,10.8619565 L4.68243243,9.25108696 C4.66216216,9.23043478 4.62162162,9.18913043 4.60135135,9.16847826 C4.37837838,8.92065217 4.39864865,8.52826087 4.64189189,8.30108696 Z M14.2702703,3.48913043 L3.72972973,3.48913043 C3.16216216,3.48913043 2.71621622,3.94347826 2.71621622,4.52173913 L2.71621622,4.52173913 L2.71621622,5.61630435 L15.2837838,5.61630435 L15.2837838,4.52173913 C15.2837838,3.94347826 14.8378378,3.48913043 14.2702703,3.48913043 L14.2702703,3.48913043 Z" id="Combined-Shape"></path>
                        </g>
                    </g>
                </g>
            </g>
        </g>
    </g>
</svg>