<?xml version="1.0" encoding="UTF-8"?>
<svg width="20px" height="20px" viewBox="0 0 20 20" version="1.1" xmlns="http://www.w3.org/2000/svg" xmlns:xlink="http://www.w3.org/1999/xlink">
    <title>Combined Shape</title>
    <g id="Symbols" stroke="none" stroke-width="1" fill="none" fill-rule="evenodd" fill-opacity="0.75">
        <g id="Component/workspace" transform="translate(-160.000000, -164.000000)" fill="#FFFFFF">
            <path d="M175,166.776471 L177.223529,166.776471 L177.223529,169 L180,169 L180,170.111765 L177.223529,170.111765 L177.223529,173.447059 L180,173.447059 L180,174.552941 L177.223529,174.552941 L177.223529,177.888235 L180,177.888235 L180,179 L177.223529,179 L177.223529,181.223529 L175,181.223529 L175,184 L173.888235,184 L173.888235,181.223529 L170.552941,181.223529 L170.552941,184 L169.447059,184 L169.447059,181.223529 L166.111765,181.223529 L166.111765,184 L165,184 L165,181.223529 L162.776471,181.223529 L162.776471,179 L160,179 L160,177.888235 L162.776471,177.888235 L162.776471,174.552941 L160,174.552941 L160,173.447059 L162.776471,173.447059 L162.776471,170.111765 L160,170.111765 L160,169 L162.776471,169 L162.776471,166.776471 L165,166.776471 L165,164 L166.111765,164 L166.111765,166.776471 L169.447059,166.776471 L169.447059,164 L170.552941,164 L170.552941,166.776471 L173.888235,166.776471 L173.888235,164 L175,164 L175,166.776471 Z M176.111765,167.888235 L163.888235,167.888235 L163.888235,180.111765 L176.111765,180.111765 L176.111765,167.888235 Z M173.888235,170.111765 L173.888235,177.888235 L166.111765,177.888235 L166.111765,170.111765 L173.888235,170.111765 Z M172.776471,171.223529 L167.223529,171.223529 L167.223529,176.776471 L172.776471,176.776471 L172.776471,171.223529 Z" id="Combined-Shape"></path>
        </g>
    </g>
</svg>