<?xml version="1.0" encoding="UTF-8"?>
<svg width="24px" height="25px" viewBox="0 0 24 25" version="1.1" xmlns="http://www.w3.org/2000/svg" xmlns:xlink="http://www.w3.org/1999/xlink">
    <title>Combined Shape</title>
    <g id="Symbols" stroke="none" stroke-width="1" fill="none" fill-rule="evenodd">
        <g id="Menu/-Workspace" transform="translate(-1266.000000, -24.000000)" fill="#FFFFFF">
            <path d="M1284,27.989299 L1286.66824,27.989299 L1286.66824,30.6575342 L1290,30.6575342 L1290,31.9916519 L1286.66824,31.9916519 L1286.66824,35.9940048 L1290,35.9940048 L1290,37.3210637 L1286.66824,37.3210637 L1286.66824,41.3234166 L1290,41.3234166 L1290,42.6575342 L1286.66824,42.6575342 L1286.66824,45.3257695 L1284,45.3257695 L1284,48.6575342 L1282.66588,48.6575342 L1282.66588,45.3257695 L1278.66353,45.3257695 L1278.66353,48.6575342 L1277.33647,48.6575342 L1277.33647,45.3257695 L1273.33412,45.3257695 L1273.33412,48.6575342 L1272,48.6575342 L1272,45.3257695 L1269.33176,45.3257695 L1269.33176,42.6575342 L1266,42.6575342 L1266,41.3234166 L1269.33176,41.3234166 L1269.33176,37.3210637 L1266,37.3210637 L1266,35.9940048 L1269.33176,35.9940048 L1269.33176,31.9916519 L1266,31.9916519 L1266,30.6575342 L1269.33176,30.6575342 L1269.33176,27.989299 L1272,27.989299 L1272,24.6575342 L1273.33412,24.6575342 L1273.33412,27.989299 L1277.33647,27.989299 L1277.33647,24.6575342 L1278.66353,24.6575342 L1278.66353,27.989299 L1282.66588,27.989299 L1282.66588,24.6575342 L1284,24.6575342 L1284,27.989299 Z M1285.33412,29.3234166 L1270.66588,29.3234166 L1270.66588,43.9916519 L1285.33412,43.9916519 L1285.33412,29.3234166 Z M1282.66588,31.9916519 L1282.66588,41.3234166 L1273.33412,41.3234166 L1273.33412,31.9916519 L1282.66588,31.9916519 Z M1281.33176,33.3257695 L1274.66824,33.3257695 L1274.66824,39.989299 L1281.33176,39.989299 L1281.33176,33.3257695 Z" id="Combined-Shape"></path>
        </g>
    </g>
</svg>