<?xml version="1.0" encoding="UTF-8"?>
<svg width="18px" height="20px" viewBox="0 0 18 20" version="1.1" xmlns="http://www.w3.org/2000/svg" xmlns:xlink="http://www.w3.org/1999/xlink">
    <title>Combined Shape</title>
    <g id="Symbols" stroke="none" stroke-width="1" fill="none" fill-rule="evenodd">
        <g id="icon/filter" transform="translate(-3.000000, -2.000000)" fill="#FFFFFF">
            <path d="M8.63659794,15.5927835 C10.0283505,15.5927835 11.2113402,16.5438144 11.5824742,17.8427835 L11.5824742,17.8427835 L20.1417526,17.8427835 C20.628866,17.8427835 21,18.2139175 21,18.7010309 C21,19.1881443 20.6056701,19.5592784 20.1417526,19.5592784 L20.1417526,19.5592784 L11.5824742,19.5592784 C11.2113402,20.8582474 10.0283505,21.8092784 8.63659794,21.8092784 C7.24484536,21.8092784 6.06185567,20.8582474 5.69072165,19.5592784 L5.69072165,19.5592784 L3.85824742,19.5592784 C3.37113402,19.5592784 3,19.1881443 3,18.7010309 C3,18.2139175 3.3943299,17.8427835 3.85824742,17.8427835 L3.85824742,17.8427835 L5.69072165,17.8427835 C6.06185567,16.5438144 7.24484536,15.5927835 8.63659794,15.5927835 Z M8.63659794,17.3092784 C7.84793814,17.3092784 7.24484536,17.9123711 7.24484536,18.7010309 C7.24484536,19.4896907 7.8943299,20.0927835 8.63659794,20.0927835 C9.37886598,20.0927835 10.0283505,19.4896907 10.0283505,18.7010309 C10.0283505,17.9123711 9.42525773,17.3092784 8.63659794,17.3092784 Z M15.4329897,8.79639175 C16.8247423,8.79639175 18.007732,9.74742268 18.378866,11.0463918 L18.378866,11.0463918 L20.1417526,11.0463918 C20.628866,11.0463918 21,11.4407216 20.9768041,11.9046392 C20.9768041,12.3917526 20.5824742,12.7628866 20.1185567,12.7628866 L20.1185567,12.7628866 L18.3556701,12.7628866 C17.9845361,14.0618557 16.8015464,15.0128866 15.4097938,15.0128866 C14.0180412,15.0128866 12.8350515,14.0618557 12.4639175,12.7628866 L12.4639175,12.7628866 L3.85824742,12.7628866 C3.37113402,12.7628866 3,12.3685567 3,11.9046392 C3,11.4175258 3.3943299,11.0463918 3.85824742,11.0463918 L3.85824742,11.0463918 L12.4639175,11.0463918 C12.8582474,9.77061856 14.0412371,8.79639175 15.4329897,8.79639175 Z M15.4329897,10.5128866 C14.6443299,10.5128866 14.0412371,11.1159794 14.0412371,11.9046392 C14.0412371,12.693299 14.6907216,13.2963918 15.4329897,13.2963918 C16.1752577,13.2963918 16.8247423,12.693299 16.8247423,11.9046392 C16.8247423,11.1159794 16.2216495,10.5128866 15.4329897,10.5128866 Z M8.63659794,2 C10.0283505,2 11.2113402,2.95103093 11.5824742,4.25 L11.5824742,4.25 L20.1417526,4.25 C20.628866,4.25 21,4.62113402 21,5.10824742 C21,5.59536082 20.6056701,5.96649485 20.1417526,5.96649485 L20.1417526,5.96649485 L11.5824742,5.96649485 C11.2113402,7.26546392 10.0283505,8.21649485 8.63659794,8.21649485 C7.24484536,8.21649485 6.06185567,7.26546392 5.69072165,5.96649485 L5.69072165,5.96649485 L3.85824742,5.96649485 C3.37113402,5.96649485 3,5.59536082 3,5.10824742 C3,4.62113402 3.3943299,4.25 3.85824742,4.25 L3.85824742,4.25 L5.69072165,4.25 C6.06185567,2.95103093 7.24484536,2 8.63659794,2 Z M8.63659794,3.71649485 C7.8943299,3.71649485 7.24484536,4.36597938 7.24484536,5.10824742 C7.24484536,5.85051546 7.84793814,6.5 8.63659794,6.5 C9.42525773,6.5 10.0283505,5.89690722 10.0283505,5.10824742 C10.0283505,4.31958763 9.37886598,3.71649485 8.63659794,3.71649485 Z" id="Combined-Shape"></path>
        </g>
    </g>
</svg>