<?xml version="1.0" encoding="UTF-8"?>
<svg width="15px" height="16px" viewBox="0 0 15 16" version="1.1" xmlns="http://www.w3.org/2000/svg" xmlns:xlink="http://www.w3.org/1999/xlink">
    <title>icon/user</title>
    <g id="Devices" stroke="none" stroke-width="1" fill="none" fill-rule="evenodd">
        <g id="Device-/-Quarantined" transform="translate(-942.000000, -198.000000)" fill="#FFFFFF">
            <g id="Group-2" transform="translate(148.000000, 185.000000)">
                <g id="Header" transform="translate(2.000000, 0.000000)">
                    <g id="Buttons/actions" transform="translate(770.000000, 0.000000)">
                        <g id="icon/user" transform="translate(20.000000, 12.000000)">
                            <path d="M16.4999997,8.65903888 C16.4978888,10.9233504 15.4294021,13.0531764 13.6188018,14.4021607 C13.3842842,14.5757792 13.0753647,14.610542 12.8084103,14.4933542 C12.5414559,14.3761665 12.3570233,14.1248318 12.3245865,13.8340255 C12.2921498,13.5432192 12.4166367,13.2571217 12.6511543,13.0835032 C14.5535746,11.6635972 15.3354533,9.17864832 14.5909439,6.91850924 C13.8464344,4.65837016 11.7432622,3.13221226 9.37311259,3.13221226 C7.00296295,3.13221226 4.89979078,4.65837016 4.15528132,6.91850924 C3.41077186,9.17864832 4.19265059,11.6635972 6.09507083,13.0835032 C6.32958846,13.2571217 6.4540754,13.5432192 6.42163863,13.8340255 C6.38920186,14.1248318 6.20476929,14.3761665 5.93781489,14.4933542 C5.67086049,14.610542 5.36194098,14.5757792 5.12742335,14.4021607 C2.43400069,12.3930452 1.50098037,8.7687772 2.88719116,5.70009741 C4.27340196,2.63141762 7.60321024,0.94987296 10.8822407,1.66261783 C14.1612712,2.37536271 16.5009765,5.28925843 16.4999997,8.65903888 L16.4999997,8.65903888 Z M9.37311259,7.76355306 C8.92276123,7.76355306 8.55767931,8.13025061 8.55767931,8.58259496 L8.55767931,15.6809581 C8.55767931,16.1333025 8.92276123,16.5 9.37311259,16.5 C9.82346395,16.5 10.1885459,16.1333025 10.1885459,15.6809581 L10.1885459,8.58259496 C10.1885459,8.13025061 9.82346395,7.76355306 9.37311259,7.76355306 Z" id="Shape" transform="translate(9.375000, 9.000000) scale(1, -1) translate(-9.375000, -9.000000) "></path>
                        </g>
                    </g>
                </g>
            </g>
        </g>
    </g>
</svg>