<?xml version="1.0" encoding="UTF-8"?>
<svg width="25px" height="30px" viewBox="0 0 25 30" version="1.1" xmlns="http://www.w3.org/2000/svg" xmlns:xlink="http://www.w3.org/1999/xlink">
    <title>Group</title>
    <g id="Symbols" stroke="none" stroke-width="1" fill="none" fill-rule="evenodd">
        <g id="icon/quarantine" transform="translate(-7.000000, -2.000000)">
            <g id="Group" transform="translate(7.000000, 2.000000)">
                <path d="M11.9719828,0.00350336343 C11.8639333,0.0156395239 11.7584724,0.0447322065 11.6594828,0.08971026 L0.625,4.89574474 C0.246285665,5.05901445 0.00071015116,5.43161178 1.42108547e-14,5.8440206 C1.42108547e-14,13.2913344 0.446641379,17.6239516 2.19827586,20.9732965 C3.94991034,24.3226758 6.89697586,26.4294689 11.4978448,29.4862275 C11.8440901,29.7154566 12.293841,29.7154566 12.6400862,29.4862275 C17.2409552,26.4294689 20.1880207,24.3226758 21.9396552,20.9732965 C23.6912897,17.6239516 24.137931,13.2913344 24.137931,5.8440206 C24.1372209,5.43161178 23.8916454,5.05901445 23.512931,4.89574474 L12.4784483,0.08971026 C12.3195599,0.0188486046 12.1453675,-0.0108011573 11.9719828,0.00350336343 L11.9719828,0.00350336343 Z" id="Path" fill="#A72B2A"></path>
                <path d="M11.9892241,2 L21.9784483,6.34267241 C21.9459655,13.2360517 21.4502241,17.1253621 20.0280172,19.8448103 C18.6241655,22.5291552 16.1746345,24.4049138 11.9892241,27.2047069 C7.80381379,24.4049138 5.35428276,22.5291552 3.95043103,19.8448103 C2.52822414,17.1253621 2.03247241,13.2360517 2,6.34267241 L11.9892241,2 Z" id="Path" fill="#A72B2A"></path>
                <path d="M12.1,5 C11.2716,5 10.6,5.59258998 10.6,6.3235333 L10.6,18.6765108 C10.6,19.4074983 11.2716,20 12.1,20 C12.92845,20 13.6,19.4074983 13.6,18.6765108 L13.6,6.3235333 C13.6,5.59258998 12.92845,5 12.1,5 Z" id="Path" fill="#FFFFFF"></path>
                <path d="M12.1,21 C10.995425,21 10.1,21.89545 10.1,23 C10.1,24.1046 10.995425,25 12.1,25 C13.204565,25 14.1,24.1046 14.1,23 C14.1,21.89545 13.204565,21 12.1,21 Z" id="Path" fill="#FFFFFF"></path>
            </g>
        </g>
    </g>
</svg>