<?xml version="1.0" encoding="UTF-8"?>
<svg width="16px" height="22px" viewBox="0 0 16 22" version="1.1" xmlns="http://www.w3.org/2000/svg" xmlns:xlink="http://www.w3.org/1999/xlink" style="transform: scale(1,-1)">
    <title>icon/user</title>
    <g id="Firmware" stroke="none" stroke-width="1" fill="none" fill-rule="evenodd">
        <g id="Firmware-Details" transform="translate(-1255.000000, -195.000000)" fill="#FFFFFF">
            <g id="Header" transform="translate(150.000000, 185.000000)">
                <g id="Buttons/actions" transform="translate(1002.000000, 0.000000)">
                    <g id="icon/user" transform="translate(99.000000, 9.500000)">
                        <path d="M18.8544,20.4076931 C19.3404106,20.4076931 19.7344,20.8016826 19.7344,21.2876931 C19.7344,21.7737037 19.3404106,22.1676931 18.8544,22.1676931 L18.8544,22.1676931 L4.88,22.1676931 C4.39398942,22.1676931 4,21.7737037 4,21.2876931 C4,20.8016826 4.39398942,20.4076931 4.88,20.4076931 L4.88,20.4076931 Z M11.8672,1 C12.3532106,1 12.7472,1.39398942 12.7472,1.88 L12.7472,15.4936 L18.2296,10.0112 C18.3956726,9.84647587 18.6204934,9.75464765 18.8544,9.756 C19.0867838,9.75581456 19.3098075,9.8475548 19.4748,10.0112 C19.6400438,10.1762601 19.7328923,10.4002399 19.7328923,10.6338 C19.7328923,10.8673601 19.6400438,11.0913399 19.4748,11.2564 L12.492,18.2436 L12.3556,18.3536 L12.3072,18.3888 L12.2192,18.4328 C12.1907121,18.4442052 12.1612615,18.4530403 12.1312,18.4592 L12.0388,18.468 C11.9255087,18.4905242 11.8088913,18.4905242 11.6956,18.468 L11.6208,18.446 C11.5907385,18.4398403 11.5612879,18.4310052 11.5328,18.4196 L11.4448,18.3756 L11.3788,18.3404 L11.2424,18.2304 L4.2596,11.2564 C3.91574751,10.9125475 3.91574751,10.3550525 4.2596,10.0112 C4.60345249,9.66734751 5.16094751,9.66734751 5.5048,10.0112 L10.9872,15.4936 L10.9872,1.88 C10.9872,1.39398942 11.3811894,1 11.8672,1 Z" id="Combined-Shape"></path>
                    </g>
                </g>
            </g>
        </g>
    </g>
</svg>
