<?xml version="1.0" encoding="UTF-8" standalone="no"?>
<!-- Generator: Adobe Illustrator 22.0.1, SVG Export Plug-In . SVG Version: 6.00 Build 0)  -->

<svg
   xmlns:dc="http://purl.org/dc/elements/1.1/"
   xmlns:cc="http://creativecommons.org/ns#"
   xmlns:rdf="http://www.w3.org/1999/02/22-rdf-syntax-ns#"
   xmlns:svg="http://www.w3.org/2000/svg"
   xmlns="http://www.w3.org/2000/svg"
   xmlns:sodipodi="http://sodipodi.sourceforge.net/DTD/sodipodi-0.dtd"
   xmlns:inkscape="http://www.inkscape.org/namespaces/inkscape"
   version="1.1"
   id="Layer_1"
   x="0px"
   y="0px"
   viewBox="0 0 574.59998 114.6"
   xml:space="preserve"
   sodipodi:docname="AlliedComponentWorks_Vector-cropped.svg"
   inkscape:version="0.92.3 (2405546, 2018-03-11)"
   width="574.59998"
   height="114.6"><metadata
   id="metadata91"><rdf:RDF><cc:Work
       rdf:about=""><dc:format>image/svg+xml</dc:format><dc:type
         rdf:resource="http://purl.org/dc/dcmitype/StillImage" /><dc:title></dc:title></cc:Work></rdf:RDF></metadata><defs
   id="defs89" /><sodipodi:namedview
   pagecolor="#ffffff"
   bordercolor="#666666"
   borderopacity="1"
   objecttolerance="10"
   gridtolerance="10"
   guidetolerance="10"
   inkscape:pageopacity="0"
   inkscape:pageshadow="2"
   inkscape:window-width="2560"
   inkscape:window-height="1391"
   id="namedview87"
   showgrid="false"
   inkscape:zoom="1.7742947"
   inkscape:cx="328.13828"
   inkscape:cy="-91.307309"
   inkscape:window-x="0"
   inkscape:window-y="25"
   inkscape:window-maximized="1"
   inkscape:current-layer="Layer_1" />
<style
   type="text/css"
   id="style2">
	.st0{fill:#FFFFFF;}
	.st1{fill:#04FE04;}
	.st2{fill:#FC0204;}
	.st3{fill:#FCFE04;}
	.st4{fill:#0402FC;}
</style>
<g
   id="g84"
   transform="translate(-31.8,-34.7)">
	<g
   id="g44">
		<path
   d="m 174.1,72.9 h 4.8 l 10.8,29.6 h -4.4 l -3.2,-8.6 H 171 l -2.9,8.6 h -4.4 z m 6.7,17.5 -4.1,-12.4 -4.8,12.4 z"
   id="path4"
   inkscape:connector-curvature="0" />
		<path
   d="m 192.6,72.9 h 3.5 v 29.6 h -3.5 z"
   id="path6"
   inkscape:connector-curvature="0" />
		<path
   d="m 201.4,72.9 h 3.5 v 29.6 h -3.5 z"
   id="path8"
   inkscape:connector-curvature="0" />
		<path
   d="m 210.3,72.9 h 3.5 v 4.4 h -3.5 z m 0,8.3 h 3.5 v 21.3 h -3.5 z"
   id="path10"
   inkscape:connector-curvature="0" />
		<path
   d="m 221,83.6 c 1.5,-2 3.9,-3 7.1,-3 3.3,0 5.6,1 6.9,2.9 1.3,1.9 2.1,4 2.5,6.3 0.1,0.6 0.1,1.2 0.2,1.8 0,0.6 0,1.2 0,1.7 h -15.6 c 0.1,2.4 0.7,4.2 1.8,5.2 1.1,1.1 2.3,1.6 3.6,1.6 0.1,0 0.1,0 0.2,0 0.1,0 0.1,0 0.2,0 1.2,-0.1 2.3,-0.5 3.4,-1.3 1.1,-0.8 1.8,-1.8 2.3,-3.1 h 3.5 c -0.2,2.2 -1,3.9 -2.7,5.2 -1.6,1.2 -3.7,1.9 -6.3,2.1 -3.1,-0.1 -5.3,-0.9 -6.8,-2.5 -1.5,-1.6 -2.4,-3.3 -2.8,-5.2 -0.2,-0.6 -0.3,-1.3 -0.3,-1.9 0,-0.6 0,-1.2 0,-1.8 0.4,-3.3 1.3,-5.9 2.8,-8 z m 12.8,6.5 c -0.2,-2.2 -0.8,-3.8 -1.9,-4.9 -1.1,-1.1 -2.3,-1.7 -3.7,-1.7 -0.1,0 -0.1,0 -0.2,0 -0.1,0 -0.1,0 -0.2,0 -1.3,0.1 -2.5,0.7 -3.6,1.8 -1.1,1.1 -1.9,2.7 -2.3,4.8 z"
   id="path12"
   inkscape:connector-curvature="0" />
		<path
   d="m 243.5,82.8 c 1.6,-1.4 3.2,-2.2 5,-2.4 0.1,0 0.2,0 0.3,0 0.1,0 0.2,0 0.3,0 1.3,0 2.6,0.3 3.8,0.8 1.2,0.6 2.1,1.3 2.7,2.3 V 72.9 h 3.5 v 29.6 h -2.9 c 0,-0.3 0,-0.7 0,-1.2 0,-0.4 0,-0.9 0,-1.4 -0.5,1.1 -1.4,1.9 -2.7,2.6 -1.3,0.6 -2.6,1 -4.1,1 -0.2,0 -0.4,0 -0.5,0 -0.2,0 -0.3,0 -0.5,-0.1 -2.2,-0.2 -4.2,-1.4 -6,-3.5 -1.8,-2.1 -2.5,-5.5 -2.1,-10.1 0.6,-3.3 1.6,-5.6 3.2,-7 z m 2.6,15.2 c 1.2,1.5 2.6,2.3 4.1,2.3 0,0 0,0 0.1,0 0,0 0,0 0.1,0 1.4,0 2.7,-0.7 3.8,-2.1 1.1,-1.4 1.7,-3.6 1.7,-6.5 0,-2.5 -0.6,-4.4 -1.8,-5.7 -1.2,-1.3 -2.5,-1.9 -3.9,-1.9 0,0 0,0 -0.1,0 0,0 0,0 -0.1,0 -1.5,0 -2.8,0.6 -4.1,1.9 -1.2,1.3 -1.8,3.2 -1.6,5.7 -0.1,2.7 0.5,4.8 1.8,6.3 z"
   id="path14"
   inkscape:connector-curvature="0" />
		<path
   d="m 274.7,86.5 c 0.1,-0.6 0.2,-1.2 0.3,-1.8 0.5,-2.9 1.8,-5.6 3.7,-8 1.9,-2.5 5,-3.8 9.2,-4.1 0.7,0 1.4,0.1 2.3,0.2 0.9,0.1 1.7,0.4 2.7,0.8 1.4,0.6 2.7,1.6 4,3 1.3,1.4 2.2,3.3 2.8,5.9 h -4.1 c -0.6,-2.2 -1.6,-3.8 -3,-4.8 -1.4,-1 -2.9,-1.6 -4.5,-1.6 -0.1,0 -0.2,0 -0.3,0 -0.1,0 -0.2,0 -0.3,0 -2.1,0.2 -4.1,1.2 -5.9,3.1 -1.8,1.9 -2.7,4.7 -2.8,8.3 0,4.3 0.9,7.5 2.7,9.4 1.8,1.9 3.8,2.9 5.9,2.9 0,0 0,0 0.1,0 0,0 0,0 0.1,0 2.1,0 4,-0.7 5.8,-2.2 1.8,-1.5 2.7,-3.5 2.9,-6 h 4.1 c -0.1,0.4 -0.1,0.7 -0.2,1.1 -0.1,0.4 -0.2,0.7 -0.3,1.1 -0.7,2.4 -2.1,4.6 -4.1,6.6 -2,2 -4.5,3 -7.6,3 -4.6,0.1 -8,-1.3 -10.3,-4.4 -2.3,-3.1 -3.4,-6.7 -3.4,-10.8 0.1,-0.6 0.1,-1.1 0.2,-1.7 z"
   id="path16"
   inkscape:connector-curvature="0" />
		<path
   d="m 305.8,84.5 c 1.4,-2.4 4,-3.6 7.8,-3.6 0.2,0 0.5,0 0.7,0 0.2,0 0.5,0 0.7,0.1 2,0.3 3.9,1.3 5.6,3.1 1.7,1.8 2.5,4.6 2.5,8.6 0,0.6 -0.1,1.3 -0.2,2.1 -0.1,0.8 -0.3,1.6 -0.7,2.4 -0.6,1.5 -1.6,2.8 -2.9,4 -1.3,1.2 -3.3,1.9 -5.8,2 -3,0.2 -5.4,-0.6 -7.2,-2.2 -1.8,-1.7 -2.7,-4.4 -2.7,-8.2 0.2,-3.2 0.8,-5.9 2.2,-8.3 z m 3.5,13.8 c 1.2,1.3 2.5,1.9 3.9,1.9 0,0 0,0 0.1,0 0,0 0,0 0.1,0 1.6,0 3,-0.8 4.3,-2.3 1.3,-1.5 1.9,-3.6 1.7,-6.3 -0.1,-2.6 -0.7,-4.5 -2,-5.8 -1.3,-1.3 -2.6,-2 -4.1,-2 -1.5,0 -2.9,0.7 -4.2,2.1 -1.3,1.4 -1.8,3.5 -1.8,6.3 0.1,2.9 0.8,4.9 2,6.1 z"
   id="path18"
   inkscape:connector-curvature="0" />
		<path
   d="m 327.6,81.2 h 3.5 V 84 c 0.3,-0.9 1,-1.7 2.1,-2.5 1.1,-0.7 2.4,-1.1 3.8,-1.1 0.3,0 0.7,0 1,0.1 0.3,0.1 0.7,0.1 1,0.2 0.7,0.2 1.4,0.6 2.1,1 0.7,0.5 1.4,1.1 2,1.9 0.4,-1 1.2,-1.8 2.4,-2.3 1.2,-0.5 2.4,-0.8 3.8,-0.8 1.6,0 3.1,0.5 4.4,1.4 1.3,0.9 1.9,2.4 1.8,4.4 v 16.2 H 352 V 87.9 c -0.1,-1.4 -0.5,-2.4 -1.2,-3 -0.7,-0.6 -1.6,-0.9 -2.5,-1 -0.1,0 -0.3,0 -0.4,0 -0.1,0 -0.2,0 -0.4,0.1 -1.1,0.2 -2.1,0.7 -3,1.6 -0.9,0.9 -1.4,2.1 -1.4,3.5 v 13.4 h -3.5 V 87.2 c 0,-1.1 -0.4,-1.9 -1.1,-2.4 -0.7,-0.6 -1.6,-0.8 -2.5,-0.8 -0.1,0 -0.2,0 -0.3,0 -0.1,0 -0.2,0 -0.3,0 -1.1,0.2 -2.1,0.7 -2.9,1.5 -0.9,0.8 -1.3,2.1 -1.3,3.6 v 13.4 h -3.5 V 81.2 Z"
   id="path20"
   inkscape:connector-curvature="0" />
		<path
   d="m 360.7,81.2 h 3.2 v 2.5 c 0.1,-0.1 0.2,-0.2 0.3,-0.3 0.1,-0.1 0.2,-0.2 0.3,-0.3 0.6,-0.6 1.5,-1.1 2.6,-1.6 1.1,-0.5 2.3,-0.8 3.6,-0.8 0.5,0 1,0.1 1.6,0.2 0.6,0.1 1.1,0.3 1.6,0.5 0.5,0.2 1,0.4 1.4,0.7 0.5,0.3 0.9,0.7 1.3,1.1 0.1,0.1 0.2,0.2 0.2,0.3 0.1,0.1 0.2,0.2 0.2,0.3 0.7,0.9 1.3,2.2 1.9,3.8 0.6,1.6 0.9,3.3 0.9,5.1 0,0.3 0,0.6 0,0.9 0,0.3 0,0.6 -0.1,0.9 -0.1,1.2 -0.5,2.3 -0.9,3.4 -0.5,1.1 -1.2,2.2 -2.2,3.2 -0.6,0.7 -1.4,1.3 -2.5,1.8 -1.1,0.5 -2.2,0.7 -3.5,0.7 -0.2,0 -0.5,0 -0.7,0 -0.3,0 -0.5,-0.1 -0.8,-0.1 -0.8,-0.2 -1.7,-0.5 -2.5,-0.9 -0.8,-0.5 -1.6,-1.2 -2.3,-2 v 11.1 h -3.5 V 81.2 Z m 5.3,16.6 c 1.2,1.3 2.5,2 4,2 0,0 0.1,0 0.1,0 0,0 0.1,0 0.1,0 1.5,-0.1 2.8,-0.7 4,-2 1.2,-1.3 1.8,-3 1.8,-5.3 0,-0.2 0,-0.4 0,-0.5 0,-0.2 0,-0.4 0,-0.5 -0.3,-2.6 -1,-4.4 -2.1,-5.6 -1.1,-1.1 -2.4,-1.7 -3.7,-1.7 -1.5,0 -2.9,0.7 -4.2,2.1 -1.3,1.4 -1.9,3.2 -1.8,5.5 0,2.6 0.6,4.7 1.8,6 z"
   id="path22"
   inkscape:connector-curvature="0" />
		<path
   d="m 384.7,84.5 c 1.4,-2.4 4,-3.6 7.8,-3.6 0.2,0 0.5,0 0.7,0 0.2,0 0.5,0 0.7,0.1 2,0.3 3.9,1.3 5.6,3.1 1.7,1.8 2.5,4.6 2.5,8.6 0,0.6 -0.1,1.3 -0.2,2.1 -0.1,0.8 -0.3,1.6 -0.7,2.4 -0.6,1.5 -1.6,2.8 -2.9,4 -1.3,1.2 -3.3,1.9 -5.8,2 -3,0.2 -5.4,-0.6 -7.2,-2.2 -1.8,-1.7 -2.7,-4.4 -2.7,-8.2 0.1,-3.2 0.8,-5.9 2.2,-8.3 z m 3.5,13.8 c 1.2,1.3 2.5,1.9 3.9,1.9 0,0 0,0 0.1,0 0,0 0,0 0.1,0 1.6,0 3,-0.8 4.3,-2.3 1.3,-1.5 1.9,-3.6 1.7,-6.3 -0.1,-2.6 -0.7,-4.5 -2,-5.8 -1.3,-1.3 -2.6,-2 -4.1,-2 -1.5,0 -2.9,0.7 -4.2,2.1 -1.3,1.4 -1.8,3.5 -1.8,6.3 0.1,2.9 0.7,4.9 2,6.1 z"
   id="path24"
   inkscape:connector-curvature="0" />
		<path
   d="M 406.5,81.2 H 410 V 84 c 0.2,-0.9 1,-1.7 2.4,-2.3 1.3,-0.7 2.8,-1 4.4,-1.1 0.1,0 0.2,0 0.2,0 0.1,0 0.1,0 0.2,0 1.7,0 3.2,0.4 4.5,1.4 1.3,0.9 1.9,2.6 1.7,4.9 v 15.6 h -3.5 V 87.6 c 0,-1.2 -0.4,-2.2 -1.2,-2.8 -0.8,-0.6 -1.7,-0.9 -2.7,-0.9 -0.2,0 -0.3,0 -0.5,0 -0.2,0 -0.3,0 -0.5,0.1 -1.3,0.2 -2.4,0.9 -3.5,2 -1,1.1 -1.6,2.6 -1.6,4.5 v 12.1 h -3.5 V 81.2 Z"
   id="path26"
   inkscape:connector-curvature="0" />
		<path
   d="m 430.6,83.6 c 1.5,-2 3.9,-3 7.1,-3 3.3,0 5.6,1 6.9,2.9 1.3,1.9 2.1,4 2.5,6.3 0.1,0.6 0.1,1.2 0.2,1.8 0,0.6 0,1.2 0,1.7 h -15.6 c 0.1,2.4 0.7,4.2 1.8,5.2 1.1,1.1 2.3,1.6 3.6,1.6 0.1,0 0.1,0 0.2,0 0.1,0 0.1,0 0.2,0 1.2,-0.1 2.3,-0.5 3.4,-1.3 1.1,-0.8 1.8,-1.8 2.3,-3.1 h 3.5 c -0.2,2.2 -1,3.9 -2.7,5.2 -1.6,1.2 -3.7,1.9 -6.3,2.1 -3.1,-0.1 -5.3,-0.9 -6.8,-2.5 -1.5,-1.6 -2.4,-3.3 -2.8,-5.2 -0.2,-0.6 -0.3,-1.3 -0.3,-1.9 0,-0.6 0,-1.2 0,-1.8 0.3,-3.3 1.2,-5.9 2.8,-8 z m 12.8,6.5 c -0.2,-2.2 -0.8,-3.8 -1.9,-4.9 -1.1,-1.1 -2.3,-1.7 -3.7,-1.7 -0.1,0 -0.1,0 -0.2,0 -0.1,0 -0.1,0 -0.2,0 -1.3,0.1 -2.5,0.7 -3.6,1.8 -1.1,1.1 -1.9,2.7 -2.3,4.8 z"
   id="path28"
   inkscape:connector-curvature="0" />
		<path
   d="m 451.6,81.2 h 3.5 V 84 c 0.2,-0.9 1,-1.7 2.4,-2.3 1.3,-0.7 2.8,-1 4.4,-1.1 0.1,0 0.2,0 0.2,0 0.1,0 0.1,0 0.2,0 1.7,0 3.2,0.4 4.5,1.4 1.3,0.9 1.9,2.6 1.7,4.9 v 15.6 H 465 V 87.6 c 0,-1.2 -0.4,-2.2 -1.2,-2.8 -0.8,-0.6 -1.7,-0.9 -2.7,-0.9 -0.2,0 -0.3,0 -0.5,0 -0.2,0 -0.3,0 -0.5,0.1 -1.3,0.2 -2.4,0.9 -3.5,2 -1,1.1 -1.6,2.6 -1.6,4.5 v 12.1 h -3.5 V 81.2 Z"
   id="path30"
   inkscape:connector-curvature="0" />
		<path
   d="m 474.5,84.7 h -2.9 v -3.5 h 2.9 v -5.7 h 3.5 v 5.7 h 3.5 v 3.5 H 478 v 13.4 c 0.1,0.8 0.3,1.4 0.6,1.7 0.3,0.3 0.6,0.4 1.1,0.4 0.1,0 0.3,0 0.4,0 0.1,0 0.3,0 0.5,-0.1 0.2,-0.1 0.3,0 0.5,-0.1 0.2,0 0.3,0 0.5,0 v 3.2 c -0.4,0 -0.9,0.1 -1.3,0.1 -0.4,0 -0.8,0.1 -1.2,0.1 -1.3,0 -2.4,-0.2 -3.1,-0.7 -0.8,-0.5 -1.2,-1.4 -1.4,-2.6 V 84.7 Z"
   id="path32"
   inkscape:connector-curvature="0" />
		<path
   d="m 494.6,72.9 h 4.4 l 5.4,23.2 6.3,-23.2 h 4.4 l 6.4,23.2 5.4,-23.2 h 4.4 l -7.6,29.6 h -4.4 L 513,79 l -6.7,23.5 h -4.4 z"
   id="path34"
   inkscape:connector-curvature="0" />
		<path
   d="m 534.8,84.5 c 1.4,-2.4 4,-3.6 7.8,-3.6 0.2,0 0.5,0 0.7,0 0.2,0 0.5,0 0.7,0.1 2,0.3 3.9,1.3 5.6,3.1 1.7,1.8 2.5,4.6 2.5,8.6 0,0.6 -0.1,1.3 -0.2,2.1 -0.1,0.8 -0.3,1.6 -0.7,2.4 -0.6,1.5 -1.6,2.8 -2.9,4 -1.3,1.2 -3.3,1.9 -5.8,2 -3,0.2 -5.4,-0.6 -7.2,-2.2 -1.8,-1.7 -2.7,-4.4 -2.7,-8.2 0.1,-3.2 0.8,-5.9 2.2,-8.3 z m 3.4,13.8 c 1.2,1.3 2.5,1.9 3.9,1.9 0,0 0,0 0.1,0 0.1,0 0,0 0.1,0 1.6,0 3,-0.8 4.3,-2.3 1.3,-1.5 1.9,-3.6 1.7,-6.3 -0.1,-2.6 -0.7,-4.5 -2,-5.8 -1.3,-1.3 -2.6,-2 -4.1,-2 -1.5,0 -2.9,0.7 -4.2,2.1 -1.3,1.4 -1.8,3.5 -1.8,6.3 0.2,2.9 0.8,4.9 2,6.1 z"
   id="path36"
   inkscape:connector-curvature="0" />
		<path
   d="m 556.6,81.2 h 3.5 V 84 c 0.1,-0.1 0.2,-0.3 0.3,-0.4 0.1,-0.1 0.2,-0.3 0.3,-0.4 0.7,-0.9 1.4,-1.6 2.3,-2.1 0.9,-0.5 2.1,-0.7 3.8,-0.6 v 3.8 c -2.2,0 -3.9,0.5 -5,1.5 -1.1,1 -1.7,2.5 -1.7,4.6 v 12.1 h -3.5 z"
   id="path38"
   inkscape:connector-curvature="0" />
		<path
   d="M 569.3,102.5 V 72.9 h 3.5 v 17.2 l 8.9,-8.9 h 4.8 l -7.6,7.6 8.6,13.7 h -4.1 l -7.4,-11.1 -3.1,3.2 v 8 h -3.6 z"
   id="path40"
   inkscape:connector-curvature="0" />
		<path
   d="m 590.1,96.2 c 0.5,0 1.1,0 1.7,0 0.1,0 0.1,0 0.2,0 0.1,0 0.1,0 0.2,0 0.2,1.6 0.8,2.8 1.8,3.5 1,0.7 2.2,1.1 3.4,1.1 0,0 0,0 0.1,0 0.1,0 0,0 0.1,0 1.3,0 2.5,-0.3 3.5,-0.9 1.1,-0.6 1.6,-1.4 1.6,-2.4 0.1,-1.1 -0.4,-1.9 -1.5,-2.4 -1.1,-0.5 -2.3,-0.8 -3.7,-1.2 -0.2,-0.1 -0.5,-0.1 -0.7,-0.2 -0.3,-0.1 -0.5,-0.1 -0.8,-0.2 -1.7,-0.4 -3.3,-1 -4.8,-1.9 -1.4,-0.9 -2.1,-2.4 -1.9,-4.7 0.2,-1.7 0.8,-3.1 1.9,-4.1 1.1,-1 2.9,-1.6 5.4,-1.9 0.5,0 0.9,0 1.5,0 0.5,0 1,0.1 1.6,0.2 1.3,0.2 2.6,0.8 3.7,1.6 1.1,0.9 1.7,2.4 1.9,4.5 h -3.5 c -0.2,-1.2 -0.7,-2 -1.5,-2.5 -0.8,-0.5 -1.7,-0.8 -2.7,-0.8 -0.1,0 -0.2,0 -0.2,0 -0.1,0 -0.1,0 -0.2,0 -1.1,0.1 -2.2,0.4 -3.1,1 -1,0.6 -1.4,1.2 -1.4,2 -0.1,1.1 0.4,1.8 1.5,2.3 1,0.5 2.3,0.9 3.8,1.2 0.3,0.1 0.5,0.1 0.8,0.2 0.3,0.1 0.5,0.1 0.8,0.2 1.7,0.4 3.3,1 4.7,1.8 1.4,0.8 2.1,2.2 2.1,4.1 0,0 0,0.1 0,0.1 0,0 0,0.1 0,0.1 0,0 0,0.1 0,0.1 0,0 0,0.1 0,0.1 0,0.1 0,0.2 0,0.2 0,0.1 0,0.2 0,0.2 -0.1,1.5 -0.9,2.8 -2.3,4 -1.4,1.2 -3.5,1.9 -6.3,2 0,0 -0.1,0 -0.1,0 0,0 -0.1,0 -0.1,0 -0.1,0 -0.1,0 -0.1,0 0,0 -0.1,0 -0.1,0 -0.5,0 -0.9,-0.1 -1.5,-0.1 -0.5,-0.1 -1,-0.1 -1.5,-0.2 -1.4,-0.3 -2.6,-0.9 -3.8,-1.9 -1.2,-1 -1.7,-2.7 -1.7,-5.2 0.2,0.1 0.7,0.1 1.2,0.1 z"
   id="path42"
   inkscape:connector-curvature="0" />
	</g>
	<g
   id="g82">
		<g
   id="g50">
			<path
   class="st0"
   d="m 114.2,79.7 c 0,6.8 -1,13.4 -2.9,19.6 -4.4,-0.9 -9,-1.4 -13.7,-1.4 -5,0 -9.8,0.5 -14.4,1.5 -1.7,-6 -2.6,-12.3 -2.6,-18.8 0,-17.4 6.5,-33.2 17.2,-45.3 10.2,12.1 16.4,27.5 16.4,44.4 z"
   id="path46"
   inkscape:connector-curvature="0"
   style="fill:#ffffff" />
			<path
   d="M 82.8,100.1 82.7,99.7 C 80.9,93.6 80,87.2 80,80.7 80,63.9 86.2,47.7 97.4,35.1 l 0.4,-0.4 0.4,0.4 c 10.6,12.4 16.5,28.2 16.5,44.6 0,6.7 -1,13.4 -2.9,19.8 l -0.1,0.4 -0.4,-0.1 C 102.2,97.9 92.6,98 83.4,100 Z m 15,-63.9 C 87,48.5 81.1,64.3 81.1,80.7 c 0,6.2 0.8,12.3 2.5,18.2 9,-1.9 18.4,-1.9 27.4,-0.2 1.8,-6.2 2.7,-12.6 2.7,-19.1 0,-15.8 -5.7,-31.2 -15.9,-43.4 z"
   id="path48"
   inkscape:connector-curvature="0" />
		</g>
		<g
   id="g56">
			<path
   class="st1"
   d="m 114.2,79.7 c 0,6.8 -1,13.4 -2.9,19.6 -4.4,-0.9 -9,-1.4 -13.7,-1.4 -5,0 -9.8,0.5 -14.4,1.5 -1.7,-6 -2.6,-12.3 -2.6,-18.8 0,-17.4 6.5,-33.2 17.2,-45.3 10.2,12.1 16.4,27.5 16.4,44.4 z"
   id="path52"
   inkscape:connector-curvature="0"
   style="fill:#04fe04" />
			<path
   d="M 82.8,100.1 82.7,99.7 C 80.9,93.6 80,87.2 80,80.7 80,63.9 86.2,47.7 97.4,35.1 l 0.4,-0.4 0.4,0.4 c 10.6,12.4 16.5,28.2 16.5,44.6 0,6.7 -1,13.4 -2.9,19.8 l -0.1,0.4 -0.4,-0.1 C 102.2,97.9 92.6,98 83.4,100 Z m 15,-63.9 C 87,48.5 81.1,64.3 81.1,80.7 c 0,6.2 0.8,12.3 2.5,18.2 9,-1.9 18.4,-1.9 27.4,-0.2 1.8,-6.2 2.7,-12.6 2.7,-19.1 0,-15.8 -5.7,-31.2 -15.9,-43.4 z"
   id="path54"
   inkscape:connector-curvature="0" />
		</g>
		<g
   id="g62">
			<path
   class="st0"
   d="m 163,147.3 c -4.6,1 -9.5,1.5 -14.4,1.5 -20.7,0 -39.2,-9.2 -51.7,-23.8 6.5,-7.3 11.5,-16 14.3,-25.6 24.9,5.1 44.9,23.7 51.8,47.9 z"
   id="path58"
   inkscape:connector-curvature="0"
   style="fill:#ffffff" />
			<path
   d="m 148.6,149.3 c -20,0 -39,-8.7 -52.1,-24 l -0.3,-0.3 0.3,-0.3 c 6.6,-7.4 11.4,-16 14.2,-25.4 l 0.1,-0.4 0.4,0.1 c 25.1,5.1 45.1,23.6 52.1,48.2 l 0.1,0.5 -0.5,0.1 c -4.5,1 -9.4,1.5 -14.3,1.5 z M 97.6,125 c 12.8,14.8 31.4,23.3 51,23.3 4.6,0 9.3,-0.5 13.8,-1.4 -7,-23.9 -26.4,-41.8 -50.8,-46.9 -2.8,9.2 -7.5,17.7 -14,25 z"
   id="path60"
   inkscape:connector-curvature="0" />
		</g>
		<g
   id="g68">
			<path
   class="st2"
   d="m 96.9,125 c -12.5,14 -30.6,22.8 -50.8,22.8 -4.7,0 -9.3,-0.5 -13.7,-1.4 7.1,-23.5 26.5,-41.7 50.8,-46.9 2.7,9.6 7.5,18.2 13.7,25.5 z"
   id="path64"
   inkscape:connector-curvature="0"
   style="fill:#fc0204" />
			<path
   d="m 46.1,148.3 c -4.6,0 -9.3,-0.5 -13.8,-1.4 l -0.5,-0.1 0.2,-0.5 c 7.2,-23.9 26.8,-42 51.1,-47.2 l 0.5,-0.1 0.1,0.4 c 2.7,9.3 7.3,17.8 13.6,25.3 l 0.3,0.3 -0.3,0.3 c -13,14.6 -31.7,23 -51.2,23 z m -13,-2.3 c 4.3,0.8 8.6,1.3 13,1.3 19.1,0 37.3,-8.1 50.2,-22.3 -6.2,-7.3 -10.7,-15.7 -13.4,-24.9 -23.7,5.3 -42.7,22.8 -49.8,45.9 z"
   id="path66"
   inkscape:connector-curvature="0" />
		</g>
		<g
   id="g74">
			<path
   class="st3"
   d="M 111.3,99.4 C 108.4,109 103.5,117.7 97,125 90.7,117.7 86,109 83.3,99.5 c 4.6,-1 9.5,-1.5 14.4,-1.5 4.6,0 9.2,0.5 13.6,1.4 z"
   id="path70"
   inkscape:connector-curvature="0"
   style="fill:#fcfe04" />
			<path
   d="m 96.9,125.8 -0.4,-0.4 C 90,117.9 85.4,109.2 82.7,99.8 l -0.1,-0.5 0.5,-0.1 c 9.3,-2 19.1,-2 28.3,-0.2 l 0.5,0.1 -0.2,0.5 c -2.9,9.6 -7.7,18.3 -14.4,25.8 z M 83.8,99.9 c 2.6,9 7,17.1 13.1,24.3 6.3,-7.2 10.9,-15.4 13.7,-24.5 -8.7,-1.6 -18,-1.6 -26.8,0.2 z"
   id="path72"
   inkscape:connector-curvature="0" />
		</g>
		<g
   id="g80">
			<path
   class="st4"
   d="m 163,147.3 c -4.6,1 -9.5,1.5 -14.4,1.5 -20.7,0 -39.2,-9.2 -51.7,-23.8 6.5,-7.3 11.5,-16 14.3,-25.6 24.9,5.1 44.9,23.7 51.8,47.9 z"
   id="path76"
   inkscape:connector-curvature="0"
   style="fill:#0402fc" />
			<path
   d="m 148.6,149.3 c -20,0 -39,-8.7 -52.1,-24 l -0.3,-0.3 0.3,-0.3 c 6.6,-7.4 11.4,-16 14.2,-25.4 l 0.1,-0.4 0.4,0.1 c 25.1,5.1 45.1,23.6 52.1,48.2 l 0.1,0.5 -0.5,0.1 c -4.5,1 -9.4,1.5 -14.3,1.5 z M 97.6,125 c 12.8,14.8 31.4,23.3 51,23.3 4.6,0 9.3,-0.5 13.8,-1.4 -7,-23.9 -26.4,-41.8 -50.8,-46.9 -2.8,9.2 -7.5,17.7 -14,25 z"
   id="path78"
   inkscape:connector-curvature="0" />
		</g>
	</g>
</g>
</svg>