<svg id="Layer_1" data-name="Layer 1" xmlns="http://www.w3.org/2000/svg" viewBox="0 0 576.05 87.75"><title>smartrent-logo-SECONDARY-BLACK-ON-WHITE</title><path d="M196.28,285.69l-38.82-22.42a7.88,7.88,0,0,0-7.12,0l-38.83,22.42a7.88,7.88,0,0,0-3.56,6.16V340.8l16.24-9.38v-34.3L150.34,282a7.11,7.11,0,0,1,7.11,0l26.15,15.1v34.3l16.24,9.38V291.85A7.88,7.88,0,0,0,196.28,285.69Z" transform="translate(-107.95 -262.42)"/><path d="M108,340.8l42.39-24.48a7.29,7.29,0,0,1,3.56-.84h0a7.34,7.34,0,0,1,3.56.84l42.38,24.48-16.24,9.37-26.15-15.1a7.11,7.11,0,0,0-7.11,0l-26.15,15.1Z" transform="translate(-107.95 -262.42)"/><path d="M225.5,343.06l2.62-9.44a51.79,51.79,0,0,0,8.49,3.25,32.37,32.37,0,0,0,9.23,1.48c4.61,0,8.13-.79,10.59-2.37a7.47,7.47,0,0,0,3.66-6.65,7.33,7.33,0,0,0-2-5,20.21,20.21,0,0,0-5.08-4c-2.07-1.19-5.05-2.77-9-4.73q-9.84-5-14.83-10a17.75,17.75,0,0,1-2.1-22,19.44,19.44,0,0,1,8.29-6.7,30.27,30.27,0,0,1,12.73-2.47,36.94,36.94,0,0,1,10,1.42,53.3,53.3,0,0,1,9.49,3.61l-4,9.33a57.38,57.38,0,0,0-7.39-2.94,26.54,26.54,0,0,0-7.71-1,17.08,17.08,0,0,0-8.91,2.09,6.81,6.81,0,0,0-3.46,6.19,8,8,0,0,0,1.83,5.19,17.44,17.44,0,0,0,4.83,4c2,1.16,5.12,2.81,9.38,5A103.85,103.85,0,0,1,263,313.45a24.21,24.21,0,0,1,6.6,6.71,16.41,16.41,0,0,1,2.57,9.17,17.3,17.3,0,0,1-3,10.06,19.78,19.78,0,0,1-9,6.87,36.94,36.94,0,0,1-14.2,2.46,43,43,0,0,1-11.11-1.83Q228.21,345,225.5,343.06Z" transform="translate(-107.95 -262.42)"/><path d="M352.5,299.77c2.62,3.28,3.93,7.9,3.93,13.83v33.76H344.58v-32c0-3.49-.54-6.14-1.62-7.92s-2.93-2.67-5.5-2.67a13.77,13.77,0,0,0-6.4,1.78,50,50,0,0,0-7.23,4.82,19.4,19.4,0,0,1,.1,2.2v33.76H312.09v-32c0-3.49-.55-6.14-1.63-7.92s-2.92-2.67-5.51-2.67q-5.55,0-14,7v35.53H279.17V296.52H287l2.1,6.08a38.67,38.67,0,0,1,9.43-5.66,24.19,24.19,0,0,1,9.23-2.1q10.26,0,13.94,7.65a41.08,41.08,0,0,1,9.38-5.55,23.8,23.8,0,0,1,9.17-2.1Q348.58,294.84,352.5,299.77Z" transform="translate(-107.95 -262.42)"/><path d="M369.22,309.3,366,299.66a27.63,27.63,0,0,1,8.44-3.14,41.64,41.64,0,0,1,9.27-1.36,24,24,0,0,1,10.74,2.4,19.84,19.84,0,0,1,7.71,6.56,16,16,0,0,1,2.83,9.27v34H397.1l-1.79-5.14a24.86,24.86,0,0,1-6.7,4.62,17.69,17.69,0,0,1-7.55,1.77q-8.81,0-13.37-4.4t-4.55-11.74q0-7.65,5.19-11.84t13.68-4.2h11.1q-.21-10.57-9.22-10.58A36.16,36.16,0,0,0,369.22,309.3Zm4.19,23.17a6.6,6.6,0,0,0,2,4.77,7.23,7.23,0,0,0,5.45,2.05,14.77,14.77,0,0,0,6.5-1.58,20.11,20.11,0,0,0,5.87-4.29V324.3H381.79a7.9,7.9,0,0,0-8.38,8.17Z" transform="translate(-107.95 -262.42)"/><path d="M426.56,347.36H414.82V296.52h6.28L425,304.9a51.81,51.81,0,0,1,8.65-5.76,18.55,18.55,0,0,1,8.54-2.62l2.42,9.43a19.6,19.6,0,0,0-8.81,2.63,43.61,43.61,0,0,0-9.22,6.39Z" transform="translate(-107.95 -262.42)"/><path d="M476.66,296.94l3.56,9H467.43v24.22a10.67,10.67,0,0,0,1.84,6.55,6.41,6.41,0,0,0,5.5,2.46,13,13,0,0,0,5.24-1.26l3.25,8.7a15.49,15.49,0,0,1-4.35,1.84,18.55,18.55,0,0,1-5.09.79q-8.47,0-13.3-4.4t-4.83-12.69V306h-7v-9h7V284.46l11.74-2.3v14.78Z" transform="translate(-107.95 -262.42)"/><path d="M488.09,276.08h21.27q12.27,0,19.92,5.39t7.65,16.09A19.53,19.53,0,0,1,533.58,309a21.38,21.38,0,0,1-8.91,7.34l17.71,31H529.7l-15.52-28.09a41,41,0,0,1-5.76.31h-8.59v27.78H488.09Zm21.06,9.85h-9.32v24h9.11q7,0,11.32-2.84t4.3-9q0-6.49-4-9.33T509.15,285.93Z" transform="translate(-107.95 -262.42)"/><path d="M589.65,325H554.43q1.58,13.64,16.25,13.63a22.47,22.47,0,0,0,7.29-1.1,61.79,61.79,0,0,0,7.7-3.41l3.57,8.6a32.3,32.3,0,0,1-18.77,5.86q-13.83,0-21.12-7.17t-7.28-19.56a31.15,31.15,0,0,1,3-14,22.12,22.12,0,0,1,8.6-9.38,25.32,25.32,0,0,1,13.26-3.35q11.22,0,17,7.44t5.76,19Zm-35-7.86h23.7c-.63-3.91-1.93-6.89-3.88-8.91a10.42,10.42,0,0,0-7.86-3,10.91,10.91,0,0,0-8.13,3.14A14.91,14.91,0,0,0,554.64,317.17Z" transform="translate(-107.95 -262.42)"/><path d="M609.05,347.36H597.31V296.52h7.86l2.1,6.08a37.4,37.4,0,0,1,9.64-5.66,26.55,26.55,0,0,1,9.85-2.1q8.93,0,12.9,5.3t4,14.51v32.71H631.8v-32q0-10.59-7.86-10.59-6.41,0-14.89,7Z" transform="translate(-107.95 -262.42)"/><path d="M677.4,296.94l3.56,9H668.17v24.22a10.67,10.67,0,0,0,1.84,6.55,6.41,6.41,0,0,0,5.5,2.46,13,13,0,0,0,5.24-1.26l3.25,8.7a15.49,15.49,0,0,1-4.35,1.84,18.66,18.66,0,0,1-5.09.79q-8.47,0-13.31-4.4t-4.82-12.69V306h-7v-9h7V284.46l11.74-2.3v14.78Z" transform="translate(-107.95 -262.42)"/></svg>