<svg xmlns="http://www.w3.org/2000/svg" viewBox="0 0 290 290"><defs><style>.cls-1{fill:none;stroke:#151926;stroke-miterlimit:10;stroke-width:10px;}.cls-2{fill:#8c8d4c;}.cls-3{fill:#6d3635;}.cls-4{fill:#2d1414;}.cls-5{fill:#31384d;}.cls-6{fill:#303015;}.cls-7{fill:#4a5473;}.cls-8{fill:#696a39;}</style></defs><title>Asset 5</title><g id="Layer_2" data-name="Layer 2"><g id="Layer_1-2" data-name="Layer 1"><circle class="cls-1" cx="145" cy="145" r="140"/><rect class="cls-2" x="109" y="29.96" width="72" height="51.75" rx="12" ry="12"/><circle class="cls-3" cx="119.5" cy="41.58" r="5.25"/><circle class="cls-4" cx="119.5" cy="55.83" r="5.25"/><circle class="cls-5" cx="119.5" cy="70.08" r="5.25"/><rect class="cls-6" x="134.5" y="42.33" width="46.5" height="9"/><rect class="cls-7" x="134.5" y="51.33" width="46.5" height="9"/><rect class="cls-8" x="134.5" y="60.33" width="46.5" height="9"/><rect class="cls-2" x="186.5" y="102.96" width="72" height="51.75" rx="12" ry="12"/><circle class="cls-3" cx="197" cy="114.58" r="5.25"/><circle class="cls-4" cx="197" cy="128.83" r="5.25"/><circle class="cls-5" cx="197" cy="143.08" r="5.25"/><rect class="cls-6" x="212" y="115.33" width="46.5" height="9"/><rect class="cls-7" x="212" y="124.33" width="46.5" height="9"/><rect class="cls-8" x="212" y="133.33" width="46.5" height="9"/><rect class="cls-2" x="31.5" y="102.96" width="72" height="51.75" rx="12" ry="12"/><circle class="cls-3" cx="42" cy="114.58" r="5.25"/><circle class="cls-4" cx="42" cy="128.83" r="5.25"/><circle class="cls-5" cx="42" cy="143.08" r="5.25"/><rect class="cls-6" x="57" y="115.33" width="46.5" height="9"/><rect class="cls-7" x="57" y="124.33" width="46.5" height="9"/><rect class="cls-8" x="57" y="133.33" width="46.5" height="9"/><rect class="cls-2" x="154.5" y="183.96" width="72" height="51.75" rx="12" ry="12"/><circle class="cls-3" cx="165" cy="195.58" r="5.25"/><circle class="cls-4" cx="165" cy="209.83" r="5.25"/><circle class="cls-5" cx="165" cy="224.08" r="5.25"/><rect class="cls-6" x="180" y="196.33" width="46.5" height="9"/><rect class="cls-7" x="180" y="205.33" width="46.5" height="9"/><rect class="cls-8" x="180" y="214.33" width="46.5" height="9"/><rect class="cls-2" x="63.5" y="184.96" width="72" height="51.75" rx="12" ry="12"/><circle class="cls-3" cx="74" cy="196.58" r="5.25"/><circle class="cls-4" cx="74" cy="210.83" r="5.25"/><circle class="cls-5" cx="74" cy="225.08" r="5.25"/><rect class="cls-6" x="89" y="197.33" width="46.5" height="9"/><rect class="cls-7" x="89" y="206.33" width="46.5" height="9"/><rect class="cls-8" x="89" y="215.33" width="46.5" height="9"/></g></g></svg>