<?xml version="1.0" encoding="UTF-8"?>
<svg width="86px" height="100px" viewBox="0 0 86 100" version="1.1" xmlns="http://www.w3.org/2000/svg" xmlns:xlink="http://www.w3.org/1999/xlink">
    <title>Secure </title>
    <g id="Onboarding" stroke="none" stroke-width="1" fill="none" fill-rule="evenodd">
        <g id="Landing" transform="translate(-199.000000, -1437.000000)" fill-rule="nonzero">
            <g id="Secure-" transform="translate(199.000000, 1437.000000)">
                <path d="M80.757141,66.7793273 C78.0693055,74.0638732 74.0043641,80.3977967 68.6737061,85.6033324 C62.6060486,91.5283203 54.6607971,96.2364197 45.0584412,99.5948791 C44.7433473,99.7047424 44.4145203,99.7947693 44.0841676,99.8611449 C43.647766,99.9473572 43.2037354,99.9938965 42.7635193,100 L42.677307,100 C42.2080994,100 41.7366027,99.9526977 41.2689209,99.8611449 C40.9385682,99.7947693 40.6143188,99.7047424 40.3007508,99.597168 C30.6869508,96.244049 22.7317811,91.5382385 16.6580199,85.6132508 C11.3250732,80.4077148 7.26089473,74.0776063 4.57687383,66.7930604 C-0.30365,53.5484314 -0.0259398438,38.9579773 0.197601367,27.2331238 L0.201416016,27.0530701 C0.246429492,26.0849 0.275421094,25.0679016 0.291442969,23.9448547 C0.373077344,18.4310914 4.75692754,13.8694764 10.2714539,13.5620117 C21.7689514,12.9203797 30.6632996,9.17053223 38.2629395,1.76315312 L38.3293152,1.70211797 C39.591217,0.544738672 41.1811828,-0.0228882813 42.7635193,-0.000615025059 C44.2893982,0.0205994141 45.8091736,0.587463281 47.0260621,1.70211797 L47.0909119,1.76315312 C54.6920777,9.17053223 63.5864258,12.9203797 75.0839234,13.5620117 C80.5984496,13.8694764 84.9822998,18.4310914 85.0639344,23.9448547 C85.0799561,25.0755311 85.1089477,26.0910035 85.1539611,27.0530701 L85.15625,27.1293641 C85.3790283,38.8763428 85.6552125,53.4957887 80.757141,66.7793273 Z" id="Path" fill="#BF5C4F"></path>
                <path d="M80.757141,66.7793273 C78.0693055,74.0638732 74.0043641,80.3977967 68.6737061,85.6033324 C62.6060486,91.5283203 54.6607971,96.2364197 45.0584412,99.5948791 C44.7433473,99.7047424 44.4145203,99.7947693 44.0841676,99.8611449 C43.647766,99.9473572 43.2037354,99.9938965 42.7635193,100 L42.7635193,0.000762939453 C44.2893982,0.0205994141 45.8091736,0.587463281 47.0260621,1.70211797 L47.0909119,1.76315312 C54.6920777,9.17053223 63.5864258,12.9203797 75.0839234,13.5620117 C80.5984496,13.8694764 84.9822998,18.4310914 85.0639344,23.9448547 C85.0799561,25.0755311 85.1089477,26.0910035 85.1539611,27.0530701 L85.15625,27.1293641 C85.3790283,38.8763428 85.6552125,53.4957887 80.757141,66.7793273 Z" id="Path" fill="#A22926"></path>
                <path d="M67.5979613,50 C67.5979613,63.7123107 56.4643859,74.874115 42.7635193,74.9229432 L42.6757812,74.9229432 C28.9344787,74.9229432 17.7528381,63.7420654 17.7528381,50 C17.7528381,36.2586975 28.9344787,25.0778199 42.6757812,25.0778199 L42.7635193,25.0778199 C56.4643859,25.126648 67.5979613,36.2884521 67.5979613,50 Z" id="Path" fill="#FFFFFF"></path>
                <path d="M67.5979613,50 C67.5979613,63.7123107 56.4643859,74.874115 42.7635193,74.9229432 L42.7635193,25.0778199 C56.4643859,25.126648 67.5979613,36.2884521 67.5979613,50 Z" id="Path" fill="#E1EBF0"></path>
                <path d="M53.9878846,46.4111328 L42.7635193,57.6370238 L40.3381348,60.0624084 C39.7651672,60.635376 39.0136719,60.9214783 38.2629395,60.9214783 C37.5114441,60.9214783 36.7607117,60.635376 36.1869812,60.0624084 L30.97229,54.8454285 C29.8263551,53.6994934 29.8263551,51.8432617 30.97229,50.6965637 C32.1166992,49.5506287 33.9752197,49.5506287 35.1211547,50.6965637 L38.2629395,53.8383484 L49.8390197,42.262268 C50.9849549,41.1155701 52.8434754,41.1155701 53.9878846,42.262268 C55.1338195,43.4082031 55.1338195,45.2667236 53.9878846,46.4111328 Z" id="Path" fill="#BF5C4F"></path>
                <path d="M53.9878846,46.4111328 L42.7635193,57.6370238 L42.7635193,49.3370057 L49.8390197,42.262268 C50.9849549,41.1155701 52.8434754,41.1155701 53.9878846,42.262268 C55.1338195,43.4082031 55.1338195,45.2667236 53.9878846,46.4111328 Z" id="Path" fill="#A22926"></path>
            </g>
        </g>
    </g>
</svg>