<?xml version="1.0" encoding="UTF-8"?>
<svg width="819px" height="795px" viewBox="0 0 819 795" version="1.1" xmlns="http://www.w3.org/2000/svg" xmlns:xlink="http://www.w3.org/1999/xlink">
    <!-- Generator: Sketch 64 (93537) - https://sketch.com -->
    <title>Group</title>
    <desc>Created with Sketch.</desc>
    <defs>
        <linearGradient x1="2.21835047%" y1="88.1814246%" x2="182.639249%" y2="-48.9021204%" id="linearGradient-1">
            <stop stop-color="#A22926" offset="0%"></stop>
            <stop stop-color="#C53935" offset="100%"></stop>
        </linearGradient>
    </defs>
    <g id="01---Nerves-Website" stroke="none" stroke-width="1" fill="none" fill-rule="evenodd">
        <g id="02---Nerves-Hub" transform="translate(-621.000000, 0.000000)">
            <g id="Group" transform="translate(536.563688, -85.358032)">
                <path d="M124.410635,45 L938.924067,130.608811 L864.863544,835.247622 L152.804476,846.35406 C97.5827182,847.215389 52.1183933,803.147554 51.2570644,747.925796 C51.1944983,743.914537 51.373371,739.903147 51.7927128,735.913376 L124.410635,45 L124.410635,45 Z" id="Background-Header" fill="url(#linearGradient-1)" transform="translate(489.462034, 446.556772) rotate(-6.000000) translate(-489.462034, -446.556772) "></path>
                <g id="Startup_SVG" transform="translate(260.436312, 243.358032)">
                    <ellipse id="Oval" fill="#D6D8E5" fill-rule="nonzero" opacity="0.15" cx="73" cy="326" rx="73" ry="42"></ellipse>
                    <ellipse id="Oval" fill="#EDEFF9" fill-rule="nonzero" opacity="0.5" cx="71.5" cy="321.5" rx="40.5" ry="23.5"></ellipse>
                    <ellipse id="Oval" fill="#EDEFF9" fill-rule="nonzero" cx="71.5" cy="313.5" rx="11.5" ry="6.5"></ellipse>
                    <path d="M60,223.494179 C60,223.494179 60.6162164,241.573372 73.6081119,274 C73.6081119,274 85.7064936,247.88787 86.9594669,222.945092 C88.2124402,198.002314 60,223.494179 60,223.494179 Z" id="Path" fill="#FFBC00" fill-rule="nonzero"></path>
                    <polygon id="Path" fill="#24272A" fill-rule="nonzero" points="43.875239 156 14.4933078 184.623116 11 222 46.5353728 204.160804 53 158.572864"></polygon>
                    <polygon id="Path" fill="#24272A" fill-rule="nonzero" points="102.124761 156 131.496654 184.623116 135 222 99.33413 202.924623 93 158.572864"></polygon>
                    <ellipse id="Oval" fill="#424956" fill-rule="nonzero" cx="72.5" cy="219.5" rx="14.5" ry="8.5"></ellipse>
                    <polygon id="Path" fill="#494949" fill-rule="nonzero" points="50 210.714286 50 203 94 203 94 211"></polygon>
                    <ellipse id="Oval" fill="#2B303F" fill-rule="nonzero" cx="72.5" cy="211" rx="22.5" ry="13"></ellipse>
                    <ellipse id="Oval" fill="#EDEFF9" fill-rule="nonzero" cx="72.5" cy="200" rx="27.5" ry="16"></ellipse>
                    <path d="M101.991158,171.778118 L101.991158,171.778118 C101.991158,173.046967 101.991158,174.295514 101.991158,175.503457 C101.991158,176.518536 101.991158,177.533615 101.991158,178.548694 C101.991158,179.91905 101.9208,181.228502 101.870544,182.507501 C101.870544,184.101175 101.759982,185.613642 101.679573,187.065205 C101.599164,188.516767 101.528806,189.937878 101.428295,191.247329 C101.016199,196.982524 101.02625,201.205252 100.322672,202.859831 C96.4931943,211.904183 83.5372987,206.920146 77.1447854,203.671894 C74.7827719,202.474101 73.224848,201.489474 73.224848,201.489474 L72.641883,201.489474 C72.641883,201.489474 70.7924766,202.504553 68.0585716,203.600838 C61.3544736,206.341551 49.4036901,211.203778 46.08682,202.829378 C45.4938039,201.327062 44.9007877,196.363326 44.5389473,191.166123 C44.4484872,189.866822 44.3680782,188.476164 44.2876693,186.994149 C44.2072603,185.512134 44.1670558,184.04027 44.1067491,182.446596 C44.1067491,181.177748 44.0363912,179.868296 44.0062379,178.50809 C44.0062379,177.493012 44.0062379,176.477933 44.0062379,175.462854 L44.0062379,175.462854 L44.0062379,171.737515 L44.0062379,171.737515 C43.8253177,136.321416 47.5442326,79.6901703 59.8267031,55.5211443 C63.374749,48.5272514 67.6364245,44.2537697 72.7323431,44 L72.7323431,44 L73.3153081,44 L73.3153081,44 C78.3408689,44.2639205 82.6528,48.5171006 86.210897,55.4805411 C98.3224984,79.55821 102.212282,135.966138 101.991158,171.778118 Z" id="Path" fill="#EDEFF9" fill-rule="nonzero"></path>
                    <circle id="Oval" fill="#2B303F" fill-rule="nonzero" cx="73" cy="128" r="10"></circle>
                    <path d="M73,140 C66.372583,140 61,134.627417 61,128 C61,121.372583 66.372583,116 73,116 C79.627417,116 85,121.372583 85,128 C84.9943254,134.625065 79.6250651,139.994325 73,140 L73,140 Z M73,119.066889 C69.3859628,119.062732 66.1254715,121.236571 64.7395533,124.574312 C63.3536352,127.912052 64.1153713,131.756027 66.6694099,134.313011 C69.2234484,136.869996 73.0665422,137.636162 76.4058782,136.254093 C79.7452143,134.872023 81.922813,131.61404 81.922813,128 C81.917156,123.072743 77.9272468,119.078232 73,119.066889 L73,119.066889 Z" id="Shape" fill="#424956" fill-rule="nonzero"></path>
                    <circle id="Oval" fill="#2B303F" fill-rule="nonzero" cx="73" cy="98" r="10"></circle>
                    <path d="M73.0102735,109.999996 C66.3842002,110.005659 61.0075808,104.639771 61.000008,98.0137041 C60.9924512,91.3876376 66.3568044,86.0094865 72.9828734,86.0000125 C79.6089424,85.9905635 84.9886328,91.3533731 84.9999955,97.9794342 C85.0056763,104.608516 79.6393532,109.988642 73.0102735,109.999996 Z M73.0102735,89.084839 C69.3983979,89.0806803 66.1400506,91.253769 64.7559238,94.5899105 C63.371797,97.9260519 64.1347669,101.767537 66.6887504,104.321518 C69.2427339,106.8755 73.0842213,107.638469 76.4203652,106.254343 C79.7565092,104.870218 81.9295995,101.611873 81.9254468,97.9999997 C81.9281695,95.6328244 80.9904283,93.3615187 79.3185098,91.6857446 C77.6465912,90.0099706 75.3774505,89.0669991 73.0102735,89.0642735 L73.0102735,89.084839 Z" id="Shape" fill="#424956" fill-rule="nonzero"></path>
                    <path d="M101,192 C101,193.275691 101,194.530971 101,195.755634 C99.9963662,199.123459 97.2664821,202.348405 92.8304205,204.940609 C81.3287766,211.686464 62.7214051,211.686464 51.1695795,204.940609 C46.7335179,202.327994 44.0136702,199.092842 43,195.755634 L43,195.755634 L43,192.010206 C44.0036338,195.439263 46.7134452,198.705032 51.2097249,201.348264 C62.7214051,208.094118 81.368922,208.094118 92.8705658,201.348264 C97.2765184,198.674415 100.066621,195.418852 101,192 Z" id="Path" fill="#BF5C4F" fill-rule="nonzero"></path>
                    <path d="M101,198.041367 C101,199.427176 100.929673,200.771617 100.879439,202.064349 C99.7542006,205.291008 97.0817599,208.36254 92.8420232,210.865269 C81.3284254,217.711577 62.7017149,217.711577 51.1378832,210.865269 C46.9081933,208.341856 44.2357526,205.249641 43.1004677,202.002298 C43.1004677,200.709566 43.0301403,199.375467 43,198 C44.0046769,201.371445 46.747445,204.57742 51.1278365,207.183568 C62.651481,214.029876 81.3183787,214.029876 92.8319764,207.183568 C97.2324615,204.587762 99.9450892,201.392129 101,198.041367 Z" id="Path" fill="#BF5C4F" fill-rule="nonzero"></path>
                    <path d="M101,187.081941 C99.7921191,190.083037 97.1966725,192.940736 93.2336252,195.27606 C81.7936953,202.046451 63.2861646,202.046451 51.7963222,195.27606 C47.8033275,192.899766 45.2078809,190.031824 44,187 C44.0798599,188.495427 44.1597198,189.89867 44.2495622,191.209729 C45.537303,194.0367 48.0528897,196.699788 51.7963222,198.922443 C56.67895,201.652369 62.0660242,203.299444 67.6085814,203.756973 C70.5952899,204.054974 73.6019549,204.078969 76.5928196,203.828672 C82.4082984,203.451259 88.0735779,201.77694 93.1936953,198.922443 C96.9071804,196.720273 99.4127846,194.087913 100.710508,191.29167 L101,187.081941 Z" id="Path" fill="#BF5C4F" fill-rule="nonzero"></path>
                    <path d="M86,55.0781994 C77.2025414,57.6406002 67.7974586,57.6406002 59,55.0781994 C62.6308571,48.3531955 66.992,44.2440132 72.2068571,44 L72.2068571,44 L72.8034286,44 L72.8034286,44 C77.9977143,44.2928158 82.3588571,48.3824771 86,55.0781994 Z" id="Path" fill="#24272A" fill-rule="nonzero"></path>
                    <rect id="Rectangle" fill="#BF5C4F" fill-rule="nonzero" x="71" y="156" width="5" height="66"></rect>
                    <g id="monitor" transform="translate(187.000000, 0.000000)">
                        <path d="M128.057705,387.772878 L69.2970492,353.79278 C65.0520984,351.337366 65.5890492,347.05561 70.4823934,344.22478 L108.555246,322.217366 L182.66459,365.065366 L144.591738,387.082927 C139.688262,389.913756 132.292525,390.218146 128.057705,387.772878 Z" id="Path" fill="#D6D8E5" fill-rule="nonzero" opacity="0.4"></path>
                        <path d="M132.34318,385.246439 L73.5825246,351.256195 C69.3477049,348.810927 69.8745246,344.529171 74.7678689,341.698341 L112.850852,319.690927 L186.960197,362.538927 L148.927869,384.546341 C143.983869,387.387317 136.578,387.691707 132.34318,385.246439 Z" id="Path" fill="#B1B4C4" fill-rule="nonzero"></path>
                        <polygon id="Path" fill="#B1B4C4" fill-rule="nonzero" points="186.950066 362.538927 186.950066 360.296585 183.525738 362.275122"></polygon>
                        <polygon id="Path" fill="#B1B4C4" fill-rule="nonzero" points="70.7154098 347.207805 70.7154098 344.924878 74.230918 346.385951"></polygon>
                        <path d="M132.34318,382.993951 L73.5825246,349.013854 C69.3477049,346.558439 69.8745246,342.286829 74.7678689,339.456 L112.850852,317.438439 L186.960197,360.296585 L148.927869,382.304 C143.983869,385.134829 136.578,385.449366 132.34318,382.993951 Z" id="Path" fill="#D6D8E5" fill-rule="nonzero"></path>
                        <polygon id="Path" fill="#9EA1AF" fill-rule="nonzero" points="113.033213 317.539902 103.864525 287.060293 178.784361 330.101073 186.950066 360.296585"></polygon>
                        <polygon id="Path" fill="#9EA1AF" fill-rule="nonzero" points="184.782 361.544585 186.950066 360.296585 183.71823 357.709268"></polygon>
                        <polygon id="Path" fill="#B1B4C4" fill-rule="nonzero" points="110.672656 318.686439 101.503967 288.206829 176.423803 331.24761 184.771869 361.544585"></polygon>
                        <path d="M300.895082,412.956098 L10.850459,245.226927 C6.798,242.872976 3.48511475,236.561951 3.48511475,231.133659 L3.48511475,6.46321951 C3.48511475,1.02478049 6.78786885,-1.47121951 10.850459,0.882731707 L300.895082,168.571317 C304.947541,170.925268 308.260426,177.236293 308.260426,182.664585 L308.260426,407.335024 C308.230033,412.763317 304.947541,415.259317 300.895082,412.956098 Z" id="Path" fill="#C4C7D6" fill-rule="nonzero"></path>
                        <polygon id="Path" fill="#C4C7D6" fill-rule="nonzero" points="302.353967 415.228878 305.565541 413.372098 304.177574 403.834537"></polygon>
                        <path d="M2.96842623,2.27278049 L6.12934426,0.436292683 L10.6782295,3.04390244 C10.6782295,3.04390244 5.83554098,3.78458537 5.71396721,3.75414634 C5.59239344,3.72370732 2.96842623,2.27278049 2.96842623,2.27278049 Z" id="Path" fill="#B1B4C4" fill-rule="nonzero"></path>
                        <path d="M298.200197,414.44761 L8.19609836,246.759024 C4.14363934,244.405073 0.830754098,238.104195 0.830754098,232.665756 L0.830754098,7.99531707 C0.830754098,2.56702439 4.12337705,0.0710243902 8.19609836,2.42497561 L298.200197,170.113561 C302.252656,172.467512 305.565541,178.778537 305.565541,184.206829 L305.565541,408.897561 C305.565541,414.305561 302.272918,416.801561 298.200197,414.44761 Z" id="Path" fill="#E4E7F2" fill-rule="nonzero"></path>
                        <path d="M297.693639,414.741854 L7.67940984,247.053268 C3.62695082,244.699317 0.314065574,238.388293 0.314065574,232.96 L0.314065574,8.28956098 C0.314065574,2.86126829 3.61681967,0.365268293 7.67940984,2.71921951 L297.693639,170.458537 C301.746098,172.802341 305.058984,179.113366 305.058984,184.551805 L305.058984,409.161366 C305.058984,414.599805 301.75623,417.095805 297.693639,414.741854 Z" id="Path" fill="#D6D8E5" fill-rule="nonzero"></path>
                        <path d="M301.067311,401.074732 L4.05245902,229.307317 L4.15377049,9.19258537 C4.15377049,6.94009756 5.73422951,6.02692683 7.67940984,7.16331707 L297.693639,174.841756 C299.766598,176.196 301.074895,178.455066 301.219279,180.929561 L301.067311,401.074732 Z" id="Path" fill="#FFFFFF" fill-rule="nonzero"></path>
                        <path d="M121.290098,103.573854 L26.1383607,48.5603902 C25.2477122,47.9174834 24.714006,46.8898756 24.6997377,45.790439 L24.6997377,39.1445854 C24.6997377,38.1299512 25.338,37.5921951 26.1383607,38.0487805 L121.290098,93.0622439 C122.177011,93.7083785 122.709669,94.7339686 122.728721,95.8321951 L122.728721,102.478049 C122.728721,103.543415 122.080328,104.040585 121.290098,103.573854 Z" id="Path" fill="#E9EAF2" fill-rule="nonzero"></path>
                        <path d="M96.8537705,105.166829 L26.574,64.5307317 C25.6798442,63.8943083 25.1418279,62.8694138 25.1252459,61.7709268 L25.1252459,58.4632195 C25.1252459,57.4485854 25.7736393,56.9006829 26.574,57.3674146 L96.8537705,98.0035122 C97.7351726,98.6475312 98.2610089,99.6706882 98.2721311,100.763317 L98.2721311,104.071024 C98.2721311,105.13639 97.644,105.633561 96.8537705,105.166829 Z" id="Path" fill="#E9EAF2" fill-rule="nonzero"></path>
                        <path d="M96.8537705,117.697561 L26.574,77.1121951 C25.6798442,76.4757717 25.1418279,75.4508772 25.1252459,74.3523902 L25.1252459,71.0243902 C25.1252459,70.0097561 25.7736393,69.4618537 26.574,69.9285854 L96.8537705,110.595122 C97.7428319,111.234822 98.2765433,112.258675 98.2923934,113.354927 L98.2923934,116.662634 C98.2721311,117.697561 97.644,118.174439 96.8537705,117.697561 Z" id="Path" fill="#E9EAF2" fill-rule="nonzero"></path>
                        <path d="M83.5920984,122.588098 L26.574,89.6124878 C25.6798442,88.9760643 25.1418279,87.9511699 25.1252459,86.8526829 L25.1252459,83.5449756 C25.1252459,82.5303415 25.7736393,81.982439 26.574,82.4491707 L83.5920984,115.414634 C84.4853249,116.056463 85.0226169,117.083741 85.0408525,118.184585 L85.0408525,121.492293 C85.0408525,122.557659 84.392459,123.044683 83.5920984,122.588098 Z" id="Path" fill="#A22926" fill-rule="nonzero"></path>
                        <path d="M121.290098,235.23278 L26.1383607,180.219317 C25.2477122,179.57641 24.714006,178.548802 24.6997377,177.449366 L24.6997377,170.803512 C24.6997377,169.738146 25.338,169.251122 26.1383607,169.707707 L121.290098,224.721171 C122.177011,225.367305 122.709669,226.392895 122.728721,227.491122 L122.728721,234.136976 C122.728721,235.202341 122.080328,235.689366 121.290098,235.23278 Z" id="Path" fill="#E9EAF2" fill-rule="nonzero"></path>
                        <path d="M96.8537705,236.825756 L26.574,196.24039 C25.6807734,195.598561 25.1434815,194.571284 25.1252459,193.470439 L25.1252459,190.162732 C25.1252459,189.097366 25.7736393,188.610341 26.574,189.077073 L96.8537705,229.662439 C97.7406833,230.308574 98.2733416,231.334164 98.2923934,232.43239 L98.2923934,235.740098 C98.2721311,236.795317 97.644,237.282341 96.8537705,236.825756 Z" id="Path" fill="#E9EAF2" fill-rule="nonzero"></path>
                        <path d="M96.8537705,249.366634 L26.574,208.730537 C25.6823579,208.091915 25.1450608,207.068391 25.1252459,205.970732 L25.1252459,202.663024 C25.1252459,201.64839 25.7736393,201.110634 26.574,201.577366 L96.8537705,242.162732 C97.7406833,242.808866 98.2733416,243.834456 98.2923934,244.932683 L98.2923934,248.24039 C98.2721311,249.336195 97.644,249.82322 96.8537705,249.366634 Z" id="Path" fill="#E9EAF2" fill-rule="nonzero"></path>
                        <path d="M83.5920984,254.236878 L26.574,221.271415 C25.6795192,220.630678 25.1418705,219.602719 25.1252459,218.501463 L25.1252459,215.193756 C25.1252459,214.12839 25.7736393,213.641366 26.574,214.108098 L83.5920984,247.073561 C84.4853249,247.71539 85.0226169,248.742667 85.0408525,249.843512 L85.0408525,253.15122 C85.0408525,254.216585 84.392459,254.673171 83.5920984,254.236878 Z" id="Path" fill="#A22926" fill-rule="nonzero"></path>
                        <path d="M146.749672,251.56839 C146.749672,251.56839 157.245541,260.395707 172.401738,248.341854 C183.221803,239.453659 192.897049,244.526829 198.28682,247.570732 C203.67659,250.614634 211.457311,252.481561 226.27918,279.288195 C226.27918,279.288195 231.101607,287.689366 239.064689,292.295805 C247.02777,296.902244 250.857344,294.649756 257.118393,285.193366 C263.379443,275.736976 267.482557,265.265951 278.991541,272.104585 L278.991541,367.165659 L145.716295,290.185366 L145.716295,250.949463 L146.749672,251.56839 Z" id="Path" fill="#F5F6FF" fill-rule="nonzero"></path>
                        <path d="M117.784721,211.267122 L26.6043934,158.506146 C25.7111669,157.864317 25.1738749,156.83704 25.1556393,155.736195 L25.1556393,103.046244 C25.1556393,102.03161 25.8040328,101.493854 26.6043934,101.950439 L117.784721,154.711415 C118.677948,155.353244 119.21524,156.380521 119.233475,157.481366 L119.233475,210.19161 C119.233475,211.236683 118.585082,211.723707 117.784721,211.267122 Z" id="Path" fill="#E9EAF2" fill-rule="nonzero"></path>
                        <polyline id="Path" stroke="#E9EAF2" stroke-width="0.31" points="145.716295 249.356488 145.716295 290.165073 278.991541 367.21639 278.991541 272.155317"></polyline>
                        <line x1="198.094328" y1="248.04761" x2="198.094328" y2="320.350439" id="Path" stroke="#E9EAF2" stroke-width="0.31"></line>
                        <line x1="238.872197" y1="293.777171" x2="238.872197" y2="343.92039" id="Path" stroke="#E9EAF2" stroke-width="0.31"></line>
                        <path d="M145.716295,250.949463 C169.362393,265.63122 172.705672,232.442537 198.46918,247.337366 C224.232689,262.232195 220.676656,281.642146 239.69282,292.64078 C258.708984,303.639415 259.154754,260.679805 278.991541,272.155317" id="Path" stroke="#E9EAF2" stroke-width="1.53"></path>
                        <ellipse id="Oval" fill="#BF5C4F" fill-rule="nonzero" transform="translate(198.087891, 248.060019) rotate(-30.000000) translate(-198.087891, -248.060019) " cx="198.087891" cy="248.060019" rx="2.56414301" ry="4.45257669"></ellipse>
                        <ellipse id="Oval" fill="#BF5C4F" fill-rule="nonzero" transform="translate(280.851214, 273.251223) rotate(-29.886527) translate(-280.851214, -273.251223) " cx="280.851214" cy="273.251223" rx="2.57296748" ry="4.46792313"></ellipse>
                        <ellipse id="Oval" fill="#BF5C4F" fill-rule="nonzero" transform="translate(240.562680, 294.065530) rotate(-29.886527) translate(-240.562680, -294.065530) " cx="240.56268" cy="294.06553" rx="2.57296748" ry="4.46792313"></ellipse>
                        <ellipse id="Oval" fill="#BF5C4F" fill-rule="nonzero" transform="translate(145.716430, 250.958659) rotate(-30.000000) translate(-145.716430, -250.958659) " cx="145.71643" cy="250.958659" rx="2.56414301" ry="4.45257669"></ellipse>
                        <path d="M149.474951,180.838244 L144.014262,177.682732 C143.121036,177.040903 142.583744,176.013625 142.565508,174.91278 L142.565508,148.532293 C142.565508,147.466927 143.213902,146.979902 144.014262,147.436488 L149.474951,150.602146 C150.366515,151.221459 150.914601,152.225284 150.954098,153.31122 L150.954098,179.742439 C150.954098,180.807805 150.275311,181.294829 149.474951,180.838244 Z" id="Path" fill="#E9EAF2" fill-rule="nonzero"></path>
                        <path d="M162.098361,188.113171 L156.637672,184.947512 C155.743516,184.311089 155.2055,183.286194 155.188918,182.187707 L155.188918,128.412098 C155.188918,127.397463 155.837311,126.849561 156.637672,127.316293 L162.098361,130.481951 C162.991587,131.12378 163.528879,132.151058 163.547115,133.251902 L163.547115,187.027512 C163.50659,188.082732 162.858197,188.569756 162.098361,188.113171 Z" id="Path" fill="#BF5C4F" fill-rule="nonzero"></path>
                        <path d="M187.213475,202.652878 L181.752787,199.497366 C180.855773,198.858841 180.3174,197.829496 180.304033,196.727415 L180.304033,148.187317 C180.304033,147.121951 180.952426,146.634927 181.752787,147.091512 L187.213475,150.247024 C188.106702,150.888853 188.643994,151.916131 188.66223,153.016976 L188.66223,201.56722 C188.66223,202.632585 188.013836,203.11961 187.213475,202.652878 Z" id="Path" fill="#E9EAF2" fill-rule="nonzero"></path>
                        <path d="M199.796361,209.927805 L194.335672,206.772293 C193.442446,206.130464 192.905154,205.103186 192.886918,204.002341 L192.886918,163.782244 C192.886918,162.76761 193.535311,162.229854 194.335672,162.686439 L199.796361,165.852098 C200.690516,166.488521 201.228533,167.513416 201.245115,168.611902 L201.245115,208.832 C201.245115,209.907512 200.596721,210.394537 199.796361,209.927805 Z" id="Path" fill="#BF5C4F" fill-rule="nonzero"></path>
                        <path d="M224.850689,224.41678 L219.379869,221.261268 C218.48922,220.618361 217.955514,219.590754 217.941246,218.491317 L217.941246,198.614634 C217.941246,197.539122 218.579508,197.052098 219.379869,197.518829 L224.850689,200.674341 C225.737601,201.320476 226.27026,202.346066 226.289311,203.444293 L226.289311,223.320976 C226.289311,224.386341 225.640918,224.873366 224.850689,224.41678 Z" id="Path" fill="#E9EAF2" fill-rule="nonzero"></path>
                        <path d="M237.423443,231.691707 L232.003279,228.526049 C231.109123,227.889625 230.571107,226.864731 230.554525,225.766244 L230.554525,158.161171 C230.554525,157.085659 231.202918,156.598634 232.003279,157.065366 L237.463967,160.220878 C238.358448,160.861614 238.896097,161.889574 238.912721,162.990829 L238.912721,230.595902 C238.872197,231.661268 238.223803,232.148293 237.423443,231.691707 Z" id="Path" fill="#BF5C4F" fill-rule="nonzero"></path>
                        <path d="M268.110689,249.437659 L262.65,246.272 C261.755844,245.635577 261.217828,244.610682 261.201246,243.512195 L261.201246,223.625366 C261.201246,222.56 261.849639,222.072976 262.65,222.529561 L268.110689,225.69522 C269.007702,226.333744 269.546076,227.363089 269.559443,228.465171 L269.559443,248.341854 C269.559443,249.40722 268.911049,249.894244 268.110689,249.437659 Z" id="Path" fill="#E9EAF2" fill-rule="nonzero"></path>
                        <path d="M280.693574,256.702439 L275.232885,253.53678 C274.335871,252.898256 273.797498,251.868911 273.784131,250.766829 L273.784131,224.386341 C273.784131,223.320976 274.432525,222.833951 275.232885,223.290537 L280.693574,226.446049 C281.5868,227.087878 282.124092,228.115155 282.142328,229.216 L282.142328,255.64722 C282.142328,256.702439 281.493934,257.169171 280.693574,256.702439 Z" id="Path" fill="#BF5C4F" fill-rule="nonzero"></path>
                    </g>
                    <path d="M106.413035,504.944999 L61.4426087,478.757837 C56.3451545,475.776937 56.9798177,470.618859 62.8731195,467.159794 L85.7008493,453.842391 C91.5840771,450.413846 100.459289,450.006897 105.586965,453.059014 L150.557391,479.286871 C155.654846,482.257598 155.020182,487.425849 149.12688,490.874741 L126.299151,504.192144 C120.415923,507.56982 111.540711,507.997116 106.413035,504.944999 Z" id="Path" fill="#D6D8E5" fill-rule="nonzero" opacity="0.0959356399"></path>
                    <path d="M174,471.376442 L174,408.779425 L78.0024236,398 L78.0024236,460.988813 L78.0024236,460.988813 C77.9419971,462.917657 79.009532,464.756087 81.4265923,466.122351 L126.383913,492.021101 C131.479882,494.954551 140.38272,494.582847 146.264234,491.197323 L169.085311,478.047027 C172.398698,476.138276 174.050355,473.67699 173.949645,471.376442 L174,471.376442 Z" id="Path" fill="#D6D8E5" fill-rule="nonzero"></path>
                    <path d="M173.994917,415.834643 L173.994917,408.919558 L166.608553,408.919558 L125.585518,385.011669 C120.48661,382.032081 111.578636,382.408343 105.69373,385.835378 L82.8594879,399.197762 C82.4533739,399.430729 82.0598197,399.68532 81.6804913,399.960455 L78.002425,398.058807 C78.002425,398.058807 78.002425,405.370492 78.002425,405.614554 L78.002425,405.614554 C77.9419636,407.54671 79.0101144,409.407682 81.4285689,410.790699 L126.411823,436.996836 C131.510732,439.966255 140.418706,439.589993 146.303612,436.162958 L169.137854,422.861589 C172.553921,420.827741 174.176301,418.28543 173.98484,415.885489 L173.994917,415.834643 Z" id="Path" fill="#EDF0F9" fill-rule="nonzero"></path>
                    <path d="M126.413035,429.991529 L81.4426087,403.760799 C76.3451545,400.788593 76.9798177,395.61777 82.8731195,392.156983 L105.700849,378.843132 C111.584077,375.402702 120.489511,375.036266 125.586965,378.008471 L170.557391,404.239201 C175.654846,407.211407 175.020182,412.38223 169.12688,415.843017 L146.299151,429.156868 C140.415923,432.597298 131.510489,432.963734 126.413035,429.991529 Z" id="Path" fill="#E2E5F2" fill-rule="nonzero"></path>
                    <path d="M116,393.994923 L116,391.476822 L114.439883,391.476822 L113.957478,391.172213 C110.844929,389.609262 107.165335,389.609262 104.052786,391.172213 C103.759431,391.341245 103.481284,391.534874 103.221408,391.75097 L102,391.476822 L102,393.994923 C102.11678,395.236696 102.901504,396.319623 104.052786,396.827787 C107.165335,398.390738 110.844929,398.390738 113.957478,396.827787 C115.109069,396.321997 115.891545,395.236747 116,393.994923 L116,393.994923 Z" id="Path" fill="#631B1A" fill-rule="nonzero"></path>
                    <ellipse id="Oval" fill="#A22926" fill-rule="nonzero" cx="109" cy="392" rx="7" ry="4"></ellipse>
                    <path d="M132.82658,404.873736 C132.444668,405.720281 131.78175,406.412157 130.947822,406.834562 C127.835724,408.388479 124.163072,408.388479 121.050974,406.834562 C120.217046,406.412157 119.554128,405.720281 119.172215,404.873736 C118.658893,403.573292 119.295413,402.18141 121.050974,401.165438 C124.163072,399.611521 127.835724,399.611521 130.947822,401.165438 C132.71365,402.130611 133.339902,403.522493 132.82658,404.873736 Z" id="Path" fill="#631B1A" fill-rule="nonzero"></path>
                    <path d="M133,405.004867 C132.63559,405.815904 132.003053,406.478759 131.207343,406.883447 C128.23787,408.372184 124.733532,408.372184 121.764058,406.883447 C120.769966,406.812392 120,405.990316 120,405 C120,404.009684 120.769966,403.187608 121.764058,403.116553 C124.733532,401.627816 128.23787,401.627816 131.207343,403.116553 C132.004697,403.523695 132.637437,404.190199 133,405.004867 L133,405.004867 Z" id="Path" fill="#A22926" fill-rule="nonzero"></path>
                    <path d="M149,413.994923 L149,411.476822 L147.439883,411.476822 L146.957478,411.172213 C143.844929,409.609262 140.165335,409.609262 137.052786,411.172213 C136.761996,411.34141 136.484126,411.531453 136.221408,411.740817 L135,411.476822 L135,413.994923 C135.11678,415.236696 135.901504,416.319623 137.052786,416.827787 C140.165335,418.390738 143.844929,418.390738 146.957478,416.827787 C148.109069,416.321997 148.891545,415.236747 149,413.994923 Z" id="Path" fill="#631B1A" fill-rule="nonzero"></path>
                    <ellipse id="Oval" fill="#A22926" fill-rule="nonzero" cx="142" cy="411" rx="7" ry="4"></ellipse>
                    <g id="Men_2" transform="translate(63.000000, 349.000000)" fill-rule="nonzero">
                        <path d="M3.35238095,33.9754167 C3.07809524,36.3377778 0.304761905,46.5375 0.853333333,50.0354167 C1.40190476,53.5333333 11.1136508,59.3733333 11.1136508,59.3733333 L12.4546032,53.3913889 L7.11111111,48.1597222 L8.55365079,38.2540278 L3.35238095,33.9754167 Z" id="_Контур_" fill="#FFCEA9"></path>
                        <path d="M10.8190476,23.9277778 C8.8775084,23.024484 6.56589981,23.7179205 5.44507937,25.5398611 C4.02285714,27.8920833 2.54984127,35.9423611 2.39746032,37.32125 C2.39746032,37.32125 4.42920635,40.0688889 7.38539683,39.6126389 L10.8190476,23.9277778 Z" id="_Контур_2" fill="#EDEDED"></path>
                        <path d="M21.8412698,137.645556 C23.9429082,138.222787 26.1878426,137.94955 28.0888889,136.885139 C29.592381,136.935833 37.7701587,133.437917 38.8774603,136.368056 C39.8933333,138.943333 36.3073016,141.315833 34.4177778,141.772083 C30.2933333,142.785972 27.2457143,144.81375 25.5796825,145.17875 C24.3504762,145.432222 22.7453968,145.604583 21.7701587,144.63125 C20.5815873,143.475417 20.6831746,139.176528 21.8412698,137.645556 Z" id="Path" fill="#24272A"></path>
                        <path d="M25.5796825,144.458889 C27.2457143,144.114167 30.2933333,142.055972 34.4177778,141.062361 C36.0025397,140.677083 38.7352381,138.953472 39.0095238,136.885139 C39.3752381,139.2475 36.1853968,141.34625 34.4177778,141.772083 C30.2933333,142.785972 27.2457143,144.81375 25.5796825,145.17875 C24.3504762,145.432222 22.7453968,145.604583 21.7701587,144.63125 C21.5030116,144.345973 21.3140734,143.996771 21.2215873,143.617361 C22.4575342,144.573617 24.0755578,144.88605 25.5796825,144.458889 Z" id="Path" fill="#BF5C4F"></path>
                        <path d="M8.59428571,131.704167 C10.6946001,132.28447 12.9394664,132.014884 14.8419048,130.953889 C16.3453968,130.953889 24.5130159,127.506667 25.6304762,130.436806 C26.6463492,133.001944 23.0603175,135.374444 21.1707937,135.840833 C17.0463492,136.854722 13.9885714,138.8825 12.3326984,139.237361 C11.0933333,139.490833 9.4984127,139.663194 8.51301587,138.7 C7.33460317,137.534028 7.43619048,133.235139 8.59428571,131.704167 Z" id="Path" fill="#24272A"></path>
                        <path d="M12.3326984,138.527639 C13.9885714,138.172778 17.0463492,136.124722 21.1707937,135.120972 C22.7555556,134.745833 25.488254,133.012083 25.7625397,130.953889 C26.128254,133.31625 22.9384127,135.404861 21.1707937,135.840833 C17.0463492,136.854722 13.9885714,138.8825 12.3326984,139.237361 C11.0933333,139.490833 9.4984127,139.663194 8.51301587,138.7 C8.25545084,138.409483 8.07089117,138.061938 7.97460317,137.686111 C9.21396359,138.634819 10.8282272,138.946526 12.3326984,138.527639 L12.3326984,138.527639 Z" id="Path" fill="#BF5C4F"></path>
                        <path d="M8.43174603,109.550694 C8.78372302,106.522232 9.41280421,103.532297 10.3111111,100.618333 C10.3111111,100.618333 9.75238095,92.9127778 9.46793651,85.6026389 C9.15301587,77.3090278 6.26793651,70.0090278 8.54349206,63.3984722 L34.1739683,69.0863889 C34.1739683,69.0863889 32.6298413,102.149306 32.2844444,106.144028 C32.0984595,109.260836 31.7150479,112.362774 31.1365079,115.43125 C29.968254,121.849167 28.0888889,137.118333 28.0888889,137.118333 C25.3866667,138.689861 21.8209524,137.817917 21.8209524,137.817917 C21.8209524,137.817917 22.024127,118.554028 22.1968254,113.890139 C22.4101587,108.242778 22.5828571,108.668611 22.5828571,108.668611 L21.7295238,94.6059722 L21.1809524,87.6101389 C21.1809524,87.6101389 20.4698413,92.7404167 20.0025397,97.3333333 C19.6063492,101.328056 18.6412698,104.947639 17.5542857,112.389583 C16.6196825,118.848056 15.095873,131.825833 15.095873,131.825833 C12.3834921,133.397361 8.70603175,132.089444 8.70603175,132.089444 C8.70603175,132.089444 7.70031746,115.147361 8.43174603,109.550694 Z" id="_Контур_3" fill="#24272A"></path>
                        <path d="M12.1904762,24.0595833 C14.1511111,24.1609722 15.6038095,24.6577778 15.847619,24.0595833 C16.0511148,23.0548188 16.1969606,22.0392771 16.2844444,21.0179167 C16.0609524,20.4501389 15.8679365,19.8418056 15.8679365,19.8418056 C13.4196825,18.34125 12.647619,15.695 12.3225397,12.6127778 C11.7739683,7.35069444 14.6184127,2.74763889 19.8907937,2.20013889 C24.848254,1.68305556 28.5053968,5.16069444 29.4704762,9.93611111 C29.9987302,12.2883333 31.0450794,16.7494444 29.6330159,20.6225 C28.8406349,22.7922222 27.8247619,24.5158333 26.8088889,24.8504167 C25.826027,24.8185194 24.8457998,24.7305051 23.8730159,24.5868056 L23.8730159,24.5868056 C23.8730159,24.5868056 23.6088889,26.0468056 23.4260317,26.9795833 C23.2431746,27.9123611 23.3142857,28.4193056 25.1834921,29.565 C27.0526984,30.7106944 22.3492063,33.1136111 19.3015873,32.8804167 C16.2539683,32.6472222 12.7796825,30.8019444 11.8247619,28.8248611 C10.7377778,26.6044444 10.8292063,23.99875 12.1904762,24.0595833 Z" id="_Контур_4" fill="#FFCEA9"></path>
                        <path d="M14.9942857,24.3333333 C14.455873,25.6818056 15.8273016,27.375 19.4946032,28.47 C23.1619048,29.565 23.4971429,28.1455556 23.4971429,28.1455556 C25.9332355,29.2339807 28.3072228,30.4558886 30.608254,31.8056944 C32.8126984,33.3468056 33.7879365,37.7876389 34.0825397,45.2904167 C34.4279365,53.9693056 34.4584127,66.8456944 34.1638095,69.0661111 C34.1638095,69.0661111 30.1003175,73.1216667 24.7873016,72.72625 C19.4742857,72.3308333 10.6768254,67.6568056 8.53333333,64.0575 C8.59428571,56.4431944 9.48825397,55.20625 8.24888889,50.82625 C5.4247619,40.78875 3.9415873,36.6318056 5.31301587,30.0111111 C6.44063492,24.5056944 8.02539683,23.8263889 10.2095238,23.8770833 C11.8116256,23.9414089 13.4089637,24.0937228 14.9942857,24.3333333 L14.9942857,24.3333333 Z" id="_Контур_5" fill="#F4F4F4"></path>
                        <path d="M42.3720635,52.4890278 C38.0444444,53.5738889 37.0387302,50.8566667 36.4698413,48.6058333 C35.088254,43.1511111 34.3568254,38.23375 33.3307937,35.1413889 C32.1219048,31.4913889 30.8520635,30.9134722 29.0844444,30.20375 C27.0526984,29.3622222 25.2038095,31.1263889 25.8946032,35.77 C26.7470432,41.1580991 28.072789,46.4609032 29.8565079,51.6170833 C30.3949206,53.3102778 31.5936508,56.3215278 33.4019048,57.7815278 C35.6266667,59.5761111 38.9892063,59.5051389 44.0685714,58.2479167 C46.232381,57.7004167 48.6095238,56.4127778 52.7034921,54.5066667 C53.8006349,53.9997222 54.6539683,53.655 56.7669841,52.6715278 C58.8887318,51.7260989 60.7473365,50.2783138 62.1815873,48.45375 C63.2888889,46.8518056 63.4311111,46.1015278 63.1974603,45.7365278 C62.9638095,45.3715278 62.4152381,45.3816667 61.8260317,46.0609722 C60.9709219,47.1959836 59.917911,48.1679445 58.7174603,48.9302778 C58.7174603,48.9302778 60.0787302,47.5209722 60.8203175,46.6084722 C61.4828735,45.7968713 62.0329946,44.8999816 62.455873,43.9419444 C62.8419048,43.0091667 62.0393651,41.7418056 61.44,42.4109722 C60.8406349,43.0801389 60.535873,43.7493056 59.408254,45.0876389 C58.8103264,45.8022938 58.1281427,46.442294 57.3765079,46.99375 C58.0701279,46.0591643 58.6851331,45.068939 59.2152381,44.0331944 C59.6936321,43.2241751 59.9298254,42.2953204 59.895873,41.3565278 C59.895873,40.8698611 59.1746032,40.2919444 58.5244444,41.2145833 C57.896826,42.4822089 57.119215,43.6701747 56.208254,44.7530556 C55.192381,45.7669444 54.3796825,46.355 54.3593651,46.0711111 C54.3390476,45.7872222 54.9485714,45.2295833 55.304127,44.0433333 C55.6596825,42.8570833 55.304127,41.5897222 54.6438095,41.4579167 C53.9834921,41.3261111 54.1155556,41.3565278 53.6279365,42.4718056 C52.9001318,43.6157689 52.2452888,44.8043748 51.6673016,46.0305556 C51.3274124,47.1719447 50.7177059,48.2151143 49.8895238,49.0722222 C48.8228571,50.2077778 46.4761905,51.4548611 42.3720635,52.4890278 Z" id="_Контур_6" fill="#FFCEA9"></path>
                        <path d="M27.4793651,29.4534722 C30.3644444,29.0276389 32.4063492,30.3254167 33.6761905,34.6851389 C34.9460317,39.0448611 35.84,42.5833333 35.84,42.5833333 C34.7004269,44.2270482 32.9739551,45.373363 31.0146032,45.7872222 C27.5606349,46.62875 26.3212698,44.9761111 26.3212698,44.9761111 C26.3212698,44.9761111 25.3663492,40.4136111 24.7669841,37.3009722 C24.167619,34.1883333 23.9136508,29.9806944 27.4793651,29.4534722 Z" id="_Контур_7" fill="#EDEDED"></path>
                        <path d="M29.287619,9.25680556 C29.287619,9.25680556 33.8387302,2.34208333 23.9644444,0.932777778 C16.8533333,-0.0811111111 12.271746,4.48138889 11.7739683,9.43930556 C11.2660317,14.1741667 14.191746,19.0915278 16.2946032,21.0381944 C18.3674527,21.5646449 20.5625074,21.3007406 22.4507937,20.2980556 C22.5717597,19.0107738 22.6192438,17.7176657 22.5930159,16.425 C22.5930159,16.425 19.088254,9.125 29.287619,9.25680556 Z" id="Path" fill="#24272A"></path>
                    </g>
                </g>
            </g>
        </g>
    </g>
</svg>