<?xml version="1.0" encoding="UTF-8"?>
<svg width="30px" height="30px" viewBox="0 0 30 30" version="1.1" xmlns="http://www.w3.org/2000/svg" xmlns:xlink="http://www.w3.org/1999/xlink">
    <title>Combined Shape</title>
    <g id="Symbols" stroke="none" stroke-width="1" fill="none" fill-rule="evenodd" fill-opacity="0.5">
        <g id="icon/edit" transform="translate(-5.000000, -2.000000)" fill="#FFFFFF">
            <path d="M21.3735057,5.18947368 L18.6235153,7.93684211 L9.93101716,7.93684211 C8.76148104,7.93684211 7.78159942,8.88421053 7.78159942,10.0526316 L7.78159942,10.0526316 L7.78159942,27.1052632 C7.78159942,28.2736842 8.72987195,29.2210526 9.93101716,29.2210526 L9.93101716,29.2210526 L26.9367045,29.2210526 C28.1062406,29.2210526 29.0861223,28.3052632 29.0861223,27.1052632 L29.0861223,27.1052632 L29.1493404,27.1052632 L29.1493404,18.3894737 L31.8993308,15.6421053 L31.8993308,27.1052632 C31.8993308,29.8210526 29.6866949,32 26.9683136,32 L26.9683136,32 L9.93101716,32 C7.2126359,32 5,29.8210526 5,27.1052632 L5,27.1052632 L5,10.0526316 C5,7.36842105 7.2126359,5.18947368 9.93101716,5.18947368 L9.93101716,5.18947368 L21.3735057,5.18947368 Z M28.991295,2 L29.1807327,2.00922677 C29.6847437,2.05808967 30.1748796,2.29824561 30.5401401,2.66315789 L30.5401401,2.66315789 L34.3964484,6.48421053 C34.8073665,6.89473684 35.0286301,7.46315789 34.997021,8.06315789 C34.997021,8.63157895 34.7757574,9.2 34.3648393,9.61052632 L34.3648393,9.61052632 L20.1723605,23.7894737 C19.7930515,24.1684211 19.2873061,24.3894737 18.7499517,24.4210526 L18.7499517,24.4210526 L14.6407707,24.6736842 L14.6407707,24.6736842 L14.5143344,24.6736842 C13.9453709,24.6736842 13.3764073,24.4526316 12.9654893,24.0421053 C12.5229621,23.6 12.3016985,22.9684211 12.3333076,22.3368421 L12.3333076,22.3368421 L12.5861802,18.2631579 C12.6177893,17.7263158 12.8390529,17.2210526 13.2183619,16.8421053 L13.2183619,16.8421053 L27.4424499,2.63157895 C27.853368,2.22105263 28.3907224,2 28.991295,2 L28.991295,2 Z M16.2212249,17.7263158 L15.3045615,18.6421053 L15.114907,21.8947368 L18.3706427,21.7052632 L19.2873061,20.7894737 L16.2212249,17.7263158 Z M25.3246412,8.66315789 L18.2125973,15.7368421 L21.2786784,18.8 L28.3907224,11.7263158 L25.3246412,8.66315789 Z M28.991295,5 L27.2844045,6.70526316 L30.3188765,9.73684211 L32.0573762,8.06315789 L28.991295,5 Z" id="Combined-Shape"></path>
        </g>
    </g>
</svg>