<?xml version="1.0" encoding="UTF-8"?>
<svg width="20px" height="20px" viewBox="0 0 20 20" version="1.1" xmlns="http://www.w3.org/2000/svg" xmlns:xlink="http://www.w3.org/1999/xlink">
    <title>icon/user</title>
    <g id="Symbols" stroke="none" stroke-width="1" fill="none" fill-rule="evenodd">
        <g id="Button/Secondary/Label/Right" transform="translate(-92.000000, -14.000000)" fill="#FFFFFF">
            <g id="icon/user" transform="translate(90.000000, 12.000000)">
                <path d="M11.5714286,2 C12.1237133,2 12.5714286,2.59695367 12.5714286,3.33333333 L12.571,11 L20.5714286,11 C21.3604068,11 22,11.4477153 22,12 C22,12.5522847 21.3604068,13 20.5714286,13 L12.571,13 L12.5714286,20.6666667 C12.5714286,21.4030463 12.1237133,22 11.5714286,22 C11.0191438,22 10.5714286,21.4030463 10.5714286,20.6666667 L10.571,13 L3.42857143,13 C2.63959321,13 2,12.5522847 2,12 C2,11.4477153 2.63959321,11 3.42857143,11 L10.571,11 L10.5714286,3.33333333 C10.5714286,2.59695367 11.0191438,2 11.5714286,2 Z" id="Combined-Shape"></path>
            </g>
        </g>
    </g>
</svg>