<?xml version="1.0" encoding="UTF-8"?>
<svg width="20px" height="20px" viewBox="0 0 20 20" version="1.1" xmlns="http://www.w3.org/2000/svg" xmlns:xlink="http://www.w3.org/1999/xlink">
    <title>icon/check</title>
    <g id="Workspace" stroke="none" stroke-width="1" fill="none" fill-rule="evenodd">
        <g id="Workspace-/-Switch-workspace" transform="translate(-567.000000, -139.000000)" fill="#CED712">
            <g id="Dropdown" transform="translate(383.000000, 71.000000)">
                <g id="Stacked-Group" transform="translate(24.000000, 24.000000)">
                    <g id="Group" transform="translate(0.000000, 43.000000)">
                        <g transform="translate(160.000000, 1.000000)" id="Path">
                            <path d="M9.99997756,20 C4.47714592,20 0,15.5228308 0,10.0000337 C0,4.47715429 4.47714592,0 9.99997756,0 C15.5228391,0 20,4.47715429 20,10.0000337 C20,15.5228308 15.5228391,20 9.99997756,20 Z" fill-opacity="0.25"></path>
                            <g transform="translate(4.499999, 6.500000)" fill-rule="nonzero">
                                <g>
                                    <path d="M8.99997064,0.346060128 C9.45914872,-0.117072905 10.2046301,-0.115084339 10.661423,0.350444403 C11.0694794,0.766164276 11.1125047,1.41811216 10.747168,1.91221248 L10.747168,1.91221248 L10.6571511,2.01532442 L5.06599318,7.6539686 C4.65636459,8.06703478 4.01044329,8.11493793 3.51779168,7.75002732 L3.51779168,7.75002732 L3.41579943,7.66087916 L0.349843983,4.62040246 C-0.109456932,4.16492817 -0.117529879,3.42107342 0.331684507,2.95560187 C0.739502824,2.53301397 1.39225105,2.47970123 1.89005419,2.84724297 L1.89005419,2.84724297 L1.99314678,2.93723219 L4.2300007,5.15500002 Z"></path>
                                </g>
                            </g>
                        </g>
                    </g>
                </g>
            </g>
        </g>
    </g>
</svg>