<?xml version="1.0" encoding="UTF-8"?>
<svg width="24px" height="24px" viewBox="0 0 24 24" version="1.1" xmlns="http://www.w3.org/2000/svg" xmlns:xlink="http://www.w3.org/1999/xlink">
    <title>icon/connection</title>
    <g id="Devices" stroke="none" stroke-width="1" fill="none" fill-rule="evenodd">
        <g transform="translate(-343.000000, -506.000000)" fill="#FFFFFF" id="Table">
            <g transform="translate(141.000000, 268.000000)">
                <g id="Rows" transform="translate(0.000000, 40.000000)">
                    <g id="Row/Device" transform="translate(0.000000, 180.000000)">
                        <g id="icon/connection" transform="translate(202.000000, 18.000000)">
                            <path d="M11.9999731,24 C5.3725751,24 0,18.6273969 0,12.0000404 C0,5.37258515 5.3725751,0 11.9999731,0 C18.6274069,0 24,5.37258515 24,12.0000404 C24,18.6273969 18.6274069,24 11.9999731,24 Z" id="Path" fill-opacity="0.25"></path>
                            <path d="M17.4206219,15.0171709 C18.0883797,15.6843827 18.0883797,16.7833197 17.4206219,17.4897792 C17.0671031,17.843009 16.6350245,18 16.202946,18 C15.7708674,18 15.299509,17.843009 14.98527,17.4897792 L11.9607201,14.4677024 L8.93617021,17.4897792 C8.58265139,17.843009 8.15057283,18 7.71849427,18 C7.28641571,18 6.81505728,17.843009 6.50081833,17.4897792 C5.83306056,16.8225675 5.83306056,15.7236304 6.50081833,15.0171709 L9.52536825,11.995094 L6.50081833,8.97301717 C5.83306056,8.3058054 5.83306056,7.20686836 6.50081833,6.50040883 C7.1685761,5.83319706 8.26841244,5.83319706 8.97545008,6.50040883 L12,9.52248569 L15.0245499,6.50040883 C15.6923077,5.83319706 16.792144,5.83319706 17.4991817,6.50040883 C18.1669394,7.16762061 18.1669394,8.26655765 17.4991817,8.97301717 L14.4746318,11.995094 L17.4206219,15.0171709 Z" id="Path"></path>
                        </g>
                    </g>
                </g>
            </g>
        </g>
    </g>
</svg>