<?xml version="1.0" encoding="UTF-8"?>
<svg width="16px" height="9px" viewBox="0 0 16 9" version="1.1" xmlns="http://www.w3.org/2000/svg" xmlns:xlink="http://www.w3.org/1999/xlink">
    <title>icon/arrow/down copy 2</title>
    <g id="Symbols" stroke="none" stroke-width="1" fill="none" fill-rule="evenodd">
        <g id="Navbar/workspace+product" transform="translate(-254.000000, -8.000000)" fill="#C43131">
            <g id="icon/arrow/down-copy-2" transform="translate(250.000000, 0.000000)">
                <path d="M12.1435625,16.9932374 C12.4581989,16.9614468 12.7557156,16.8286427 12.9952851,16.6130496 L19.4263381,10.8501934 C19.8624382,10.4847688 20.0734783,9.89998631 19.9769493,9.32447485 C19.8804204,8.74896339 19.4916549,8.27413656 18.9626462,8.08563463 C18.4336376,7.89713269 17.8484129,8.02489707 17.4357741,8.41897649 L12,13.2914089 L6.5642259,8.41897649 C6.15158706,8.02489707 5.5663624,7.89713269 5.03735376,8.08563463 C4.50834512,8.27413656 4.11957965,8.74896339 4.02305068,9.32447485 C3.92652171,9.89998631 4.13756181,10.4847688 4.57366186,10.8501934 L11.0047149,16.6130496 C11.31938,16.8958567 11.7303544,17.0330546 12.1435625,16.9932374 L12.1435625,16.9932374 Z" id="Path"></path>
            </g>
        </g>
    </g>
</svg>