<?xml version="1.0" encoding="UTF-8"?>
<svg width="23px" height="18px" viewBox="0 0 23 18" version="1.1" xmlns="http://www.w3.org/2000/svg" xmlns:xlink="http://www.w3.org/1999/xlink">
    <title>icon/error</title>
    <g id="Devices" stroke="none" stroke-width="1" fill="none" fill-rule="evenodd">
        <g transform="translate(-240.000000, -329.000000)" id="Table">
            <g transform="translate(141.000000, 268.000000)">
                <g id="Rows" transform="translate(0.000000, 40.000000)">
                    <g id="Row/Device" transform="translate(12.000000, 13.000000)">
                        <g id="Group" transform="translate(87.000000, 7.000000)">
                            <g id="Group" transform="translate(0.000000, 1.000000)">
                                <path d="M22.7440256,14.8000455 L13.0093072,0.789679776 C12.3194453,-0.198512163 10.6586666,-0.286351447 9.94325423,0.679880671 L0.285187246,14.7780857 C-0.481326007,15.8101972 0.387389013,17.3913043 1.81821375,17.3913043 L21.1854486,17.3913043 C22.5907229,17.3913043 23.4594379,15.8321571 22.7440256,14.8000455 Z" id="Shape" fill="#C43131"></path>
                                <path d="M11.4507303,15.0196437 C10.7608684,15.0196437 10.1987587,14.5365276 10.1987587,13.9436125 C10.1987587,13.3506973 10.7608684,12.8675813 11.4507303,12.8675813 C12.1405922,12.8675813 12.7027019,13.3506973 12.7027019,13.9436125 C12.7027019,14.5365276 12.1405922,15.0196437 11.4507303,15.0196437 Z" id="Path" fill="#FFFFFF"></path>
                                <path d="M12.7793533,11.0668759 C12.7793533,11.6597911 12.1916931,12.1429072 11.5018312,12.1429072 C10.8119693,12.1429072 10.2243091,11.6597911 10.2243091,11.0668759 L10.2243091,5.4451618 C10.2243091,4.85224664 10.8119693,4.36913058 11.5018312,4.36913058 C12.1916931,4.36913058 12.7793533,4.85224664 12.7793533,5.4451618 L12.7793533,11.0668759 Z" id="Path" fill="#FFFFFF"></path>
                            </g>
                        </g>
                    </g>
                </g>
            </g>
        </g>
    </g>
</svg>