<?xml version="1.0" encoding="UTF-8"?>
<svg width="1200pt" height="1200pt" version="1.1" viewBox="0 0 1200 1200" xmlns="http://www.w3.org/2000/svg">
 <g fill="#fff">
  <path d="m515.16 1148 76.32 33.121 85.199-36c117.41-48.844 217.7-131.4 288.18-237.24 70.484-105.84 108.01-230.2 107.82-357.36v-276l-478.8-255.84-466.32 256.56v281.76c-0.011719 125.57 36.668 248.39 105.53 353.39 68.859 105 166.9 187.59 282.07 237.61zm-291.48-816 370.92-204 381.96 204-0.003906 219c0.16797 108.21-31.758 214.05-91.734 304.12-59.977 90.07-145.32 160.34-245.22 201.91l-48 19.801-38.762-16.801c-97.91-42.672-181.23-113.01-239.72-202.37-58.496-89.363-89.625-193.86-89.562-300.67z"/>
  <path d="m552 518.52h96v344.04h-96z"/>
  <path d="m552 336.84h96v116.04h-96z"/>
 </g>
</svg>
