<?xml version="1.0" encoding="UTF-8"?>
<svg width="1200pt" height="1200pt" version="1.1" viewBox="0 0 1200 1200" xmlns="http://www.w3.org/2000/svg">
 <g fill="#fff">
  <path d="m127.56 275.28v281.76c-0.011719 125.57 36.668 248.39 105.53 353.39 68.859 105 166.9 187.59 282.07 237.61l76.32 33.121 85.199-36c117.41-48.844 217.7-131.4 288.18-237.24 70.484-105.84 108.01-230.2 107.82-357.36v-276l-478.8-255.84zm848.88 57.117v218.64c0.17578 108.2-31.73 214.03-91.688 304.1-59.953 90.074-145.27 160.35-245.15 201.94l-48 19.801-38.762-16.801c-97.91-42.672-181.23-113.01-239.72-202.37-58.496-89.363-89.625-193.86-89.562-300.67v-225l370.92-204z"/>
  <path d="m552 336.84h96v344.04h-96z"/>
  <path d="m552 746.52h96v116.04h-96z"/>
 </g>
</svg>
