<?xml version="1.0" encoding="UTF-8"?>
<svg width="1200pt" height="1200pt" version="1.1" viewBox="0 0 1200 1200" xmlns="http://www.w3.org/2000/svg">
 <path d="m900.75 299.21c-80.363-80.324-187.24-124.54-300.75-124.61-113.66 0-220.46 44.289-300.79 124.61-80.324 80.324-124.57 187.16-124.57 300.79 0 113.59 44.25 220.39 124.57 300.75 80.363 80.398 187.2 124.57 300.79 124.61 113.59 0 220.39-44.289 300.75-124.57 80.363-80.363 124.65-187.16 124.65-300.79-0.074219-113.55-44.324-220.43-124.65-300.79zm-345.49 585.3-0.074219-382.43h89.512l0.074219 382.43zm44.738-457.8c-34.051 0-61.688-27.523-61.688-61.613 0-34.086 27.602-61.648 61.688-61.648 33.977 0 61.613 27.523 61.613 61.648 0 34.09-27.637 61.613-61.613 61.613z" fill="#fff"/>
</svg>
