<?xml version="1.0" encoding="UTF-8"?>
<svg width="19px" height="20px" viewBox="0 0 19 20" version="1.1" xmlns="http://www.w3.org/2000/svg" xmlns:xlink="http://www.w3.org/1999/xlink">
    <title>Combined Shape</title>
    <g id="Symbols" stroke="none" stroke-width="1" fill="none" fill-rule="evenodd" fill-opacity="0.75">
        <g id="Component/workspace" transform="translate(-30.000000, -164.000000)" fill="#FFFFFF">
            <path d="M38.9717742,164.231638 C38.9043885,164.239207 38.8386172,164.257351 38.7768817,164.285402 L30.3897849,167.941307 C30.1535975,168.043131 30.0004429,168.275504 30,168.532705 L30,179.715492 C30.0004429,179.972693 30.1535975,180.205066 30.3897849,180.30689 L38.7768817,183.962804 C38.9398853,184.033056 39.1246308,184.033056 39.2876344,183.962804 L47.6747312,180.30689 C47.9109186,180.205066 48.0640732,179.972693 48.0645161,179.715492 L48.0645161,168.532705 C48.0640732,168.275504 47.9109186,168.043131 47.6747312,167.941307 L39.2876344,164.285402 C39.1885427,164.241208 39.0799066,164.222717 38.9717742,164.231638 L38.9717742,164.231638 Z M39.0322581,165.582434 L45.8064516,168.532705 L39.0322581,171.482984 L32.2580645,168.532705 L39.0322581,165.582434 Z M31.2903226,169.513888 L38.3870968,172.612017 L38.3870968,182.383492 L31.2903226,179.292094 L31.2903226,169.513888 L31.2903226,169.513888 Z M46.7741935,169.513888 L46.7741935,179.292094 L39.6774194,182.383492 L39.6774194,172.612017 L46.7741935,169.513888 L46.7741935,169.513888 Z" id="Combined-Shape"></path>
        </g>
    </g>
</svg>