<svg width="292" height="40" xmlns="http://www.w3.org/2000/svg" xmlns:xlink="http://www.w3.org/1999/xlink"><defs><symbol viewBox="-86 172 257.8 89" id="svg_2" xmlns:xlink="http://www.w3.org/1999/xlink" xmlns="http://www.w3.org/2000/svg"><style>.st0{fill:#000}</style><path d="M-52.7 228.6v-.9h3.1v-23.3h-3.1v-.9h10.2v.9H-46v23.3h6.7c3.1 0 4.5-3.8 5-6.2h.7l-.4 7-18.7.1zm28.9 0v-.9h3.3v-23.3h-3.3v-.9h19v6.1h-.8c-.6-4.5-3-5.3-6.4-5.3h-4.9v10.8c3.8 0 5 0 5.5-4h.8v9.5h-.8c-.2-4-1.8-4.5-5.5-4.5v11.6h4.5c5 0 6.6-.6 7.6-6.2h1l-.5 7-19.5.1zm53.2 0v-.9h3.1v-23.3h-2.6c-3.6 0-3.9 2.7-4.7 6.4h-1l.4-7.2H44l.3 7.2h-1c-.4-3.6-1.7-6.4-5.6-6.4H36v23.3h3.1v.9h-9.7zm25.3-12.5c0-6.6 4.3-13.1 10.8-13.1s10.8 6.4 10.8 13.1-4.3 13.1-10.8 13.1c-6.5 0-10.8-6.5-10.8-13.1zm17.3 0c0-7.8-1.3-12.2-6.5-12.2s-6.5 4.5-6.5 12.2 1.3 12.2 6.5 12.2 6.5-4.5 6.5-12.2zm19.7 12.5v-.9h3.1v-23.3h-2.6c-3.6 0-3.9 2.7-4.7 6.4h-1l.4-7.2h19.3l.3 7.2h-1c-.4-3.6-1.7-6.4-5.6-6.4h-1.7v23.3h3.1v.9h-9.6zm24.8 0v-.9h3.3v-23.3h-3.3v-.9h19v6.1h-.8c-.6-4.5-3-5.3-6.4-5.3h-4.9v10.8c3.8 0 5 0 5.5-4h.8v9.5h-.7c-.2-4-1.8-4.5-5.5-4.5v11.6h4.5c5 0 6.6-.6 7.6-6.2h1l-.5 7-19.6.1z" class="st0"/></symbol></defs><title>Layer 1</title><use x="-93.947" y="-10.195" transform="translate(-19.047 -10.242) scale(3.16873)" xlink:href="#svg_2" id="svg_3"/></svg>