<svg id="Layer_1" data-name="Layer 1" xmlns="http://www.w3.org/2000/svg" viewBox="0 0 80 36.74"><title>logo</title><path d="M75.13,7.57a41.7,41.7,0,0,0-4.84.08l.42,1,.7,1.73.31.77-.87,2c-.48,1.08-.9,2-.93,2s-.1-.12-.16-.32-.51-1.57-1-3-1-3-1.09-3.44l-.24-.76-4.61,0c-2.54,0-4.61,0-4.61,0S60,10.76,64.55,18.71c1.17,2,2.14,3.76,2.15,3.81a38.46,38.46,0,0,1-2.2,3.21l-3.92,5.5c-2.07,2.92-3.81,5.34-3.86,5.4s.15.1,4.77.1h4.86l.26-.56,4-8.61,1.74-3.7,3.27-7C78.89,10,80,7.62,80,7.6S77.81,7.57,75.13,7.57Z" style="fill-rule:evenodd"/><path d="M21.68,9l.48-1.33h-7l.11.28L16,9.75l.58,1.51-.25.67-.65,1.69c-.21.56-.54,1.4-.71,1.88a4,4,0,0,1-.37.82s-.24-.73-.49-1.56l-.79-2.68-.55-1.83c-.1-.37-.46-1.55-.78-2.63L9.79.17l0-.15L4.87,0H0L.08.19c0,.1.66,1.43,1.37,2.93,1.3,2.75,2.59,5.49,4.7,10l1.43,3L8.7,18.52,9.9,21,11,23.46c.42.91,1,2.07,1.21,2.56l1.09,2.34c.6,1.29.76,1.58.76,1.39s1.08-3,1.4-3.87l.33-.87.4-1.11c.11-.29.49-1.32.84-2.3.94-2.59,1-2.85,1.16-3.17l.31-.84c.36-1,1.9-5.19,2.11-5.76C21,10.81,21.19,10.35,21.68,9Z" style="fill-rule:evenodd"/><path d="M41.09,23.37a4.82,4.82,0,0,0-.72.17,20.22,20.22,0,0,1-3,.56A18.1,18.1,0,0,1,33.58,24,6.59,6.59,0,0,1,28,18.57a7.84,7.84,0,0,1-.24-1.86s2.21-.06,6.5-.06c3.55,0,6.46,0,6.46,0s-.05-.19-.11-.39-.22-.76-.36-1.25a13.1,13.1,0,0,0-1-2.68c-2.24-4.29-6-6-10.43-4.94a12,12,0,0,0-5,2.54,10.29,10.29,0,0,0-3.13,5.37,14.12,14.12,0,0,0,.51,8,9.85,9.85,0,0,0,8.72,6.39,14.74,14.74,0,0,0,2.08,0,11.18,11.18,0,0,0,8.52-5A5.32,5.32,0,0,0,41.09,23.37ZM28.15,13.29a5.79,5.79,0,0,1,.62-1.64,2.79,2.79,0,0,1,1.15-1,1.54,1.54,0,0,1,.87-.18,1.67,1.67,0,0,1,.86.17,2.71,2.71,0,0,1,1.14,1.12,6.57,6.57,0,0,1,.47,1.5l0,.27h-5.2Z" style="fill-rule:evenodd"/><path d="M58.17,12.2V7.57H55.07L53.37,11c-.94,1.89-1.87,3.8-2.08,4.22l-.38.77,0-4.22,0-4.22-1,.29L48,8.38,45.79,9l-2.1.58-2,.55-1.39.4c-.09,0,.16.31,1.5,1.61l1.61,1.57v12l-1.67,1.67-1.68,1.68h10.8V16.83h7.28Z" style="fill-rule:evenodd"/></svg>