<?xml version="1.0" encoding="UTF-8"?>
<svg width="109px" height="100px" viewBox="0 0 109 100" version="1.1" xmlns="http://www.w3.org/2000/svg" xmlns:xlink="http://www.w3.org/1999/xlink">
    <title>Extensible </title>
    <g id="Onboarding" stroke="none" stroke-width="1" fill="none" fill-rule="evenodd">
        <g id="Landing" transform="translate(-786.000000, -1773.000000)" fill-rule="nonzero">
            <g id="Group-11" transform="translate(199.000000, 1437.000000)">
                <g id="Group-9" transform="translate(586.000000, 336.000000)">
                    <g id="Extensible-" transform="translate(1.000000, 0.000000)">
                        <path d="M78.8418291,61.8440779 C74.9642618,72.001351 65.2200717,78.7115649 54.3478261,78.7115649 C43.4755804,78.7115649 33.7313903,72.001351 29.853823,61.8440779 L24.3628186,56.221889 L16.7166416,61.0944528 L10.11994,63.8118441 C9.31694493,64.157639 8.94110729,65.0847052 9.2766117,65.892054 L14.1304348,77.6611695 C14.4699402,78.4705259 15.3981627,78.8551947 16.2106447,78.5232384 L24.3815592,75.149925 C26.8185474,78.6270707 29.8436939,81.6522172 33.3208396,84.0892054 L29.9475262,92.2413793 C29.7793473,92.6308853 29.7761002,93.0719011 29.9385259,93.4638411 C30.1009514,93.8557811 30.4151988,94.1652226 30.8095952,94.3215892 L42.55997,99.1941529 C42.9520083,99.3641824 43.3961308,99.3685155 43.7914121,99.2061679 C44.1866933,99.0438203 44.4995622,98.7285798 44.6589205,98.3320839 L48.0322339,90.17991 C52.2103812,90.9232655 56.4874953,90.9169196 60.6634183,90.1611695 L64.0554723,98.3320839 C64.2138572,98.7248398 64.5234822,99.0374366 64.9147071,99.1995658 C65.3059322,99.3616951 65.74591,99.3597446 66.1356822,99.1941529 L77.886057,94.3215892 C78.2804534,94.1652226 78.5947008,93.8557811 78.7571263,93.4638411 C78.919552,93.0719011 78.9163049,92.6308853 78.748126,92.2413793 L75.3748126,84.0704648 C78.855595,81.645324 81.8816525,78.6256102 84.3140929,75.149925 L92.4662668,78.5232384 C92.8583051,78.6932678 93.3024276,78.697601 93.6977089,78.5352534 C94.0929901,78.3729058 94.405859,78.0576653 94.5652174,77.6611695 L99.4377811,65.9107946 C99.6034963,65.5183079 99.6056649,65.0759053 99.4438054,64.6818129 C99.2819462,64.2877205 98.9694542,63.9745536 98.5757122,63.8118441 L93.7593703,61.8065967 L93.7406297,61.8065967 L86.2068965,56.221889 L78.8418291,61.8440779 Z" id="Shape" fill="#A22926"></path>
                        <path d="M108.695652,45.9145427 C108.68976,54.7097404 101.561315,61.8381859 92.766117,61.8440779 L22.4887557,61.8440779 C10.0685588,61.8440779 0,51.7755191 0,39.3553224 C0,26.9351255 10.0685588,16.8665667 22.4887557,16.8665667 C23.0697151,16.8665667 23.631934,16.8853074 24.1941529,16.9415292 C28.0523517,6.75494148 37.8041229,0.0123915667 48.696878,-0.000130029368 C59.589633,-0.0125822526 69.3568373,6.70759203 73.2383808,16.8853074 C73.5007497,16.8665667 73.7631185,16.8665667 74.0254873,16.8665667 C82.3650892,16.8655477 89.799426,22.1221493 92.5787107,29.9850075 L92.766117,29.9850075 C101.561315,29.9908996 108.68976,37.119345 108.695652,45.9145427 Z" id="Shape" fill="#BF5C4F"></path>
                        <path d="M10.8142804,50.5997062 C10.2485929,50.6007176 9.71292045,50.3453204 9.35757122,49.9051724 C6.1108485,45.8861117 4.8916449,40.5977446 6.05103538,35.5628789 C7.21042586,30.5280135 10.6197309,26.305464 15.2972264,24.111132 C16.2331917,23.6689211 17.3504241,24.0691884 17.7926349,25.0051537 C18.2348457,25.941119 17.8345785,27.0583514 16.8986132,27.5005622 C12.316757,29.6739229 9.38904358,34.2841734 9.37031485,39.3553224 C9.35880168,42.3389415 10.3834651,45.2340182 12.2693028,47.546102 C12.7238637,48.1073199 12.8154864,48.8797989 12.5048214,49.5317795 C12.1941563,50.1837598 11.5364929,50.599208 10.8142804,50.5997062 Z" id="Shape" fill="#ECF0F1"></path>
                        <g id="Group" transform="translate(28.110945, 26.236882)" fill="#A22926">
                            <path d="M1.87406297,26.2378186 C1.27172133,26.2369623 0.70641192,25.9469792 0.354330585,25.4582515 C0.00224906297,24.9695238 -0.0937927286,24.3414785 0.0961394303,23.7698651 L7.5923913,1.28110945 C7.9198705,0.299189467 8.98134839,-0.231339767 9.96326837,0.0961394303 C10.9451884,0.423618628 11.4757176,1.48509651 11.1482384,2.46701649 L3.65198651,24.9557721 C3.39710945,25.7212847 2.68089112,26.2378186 1.87406297,26.2378186 L1.87406297,26.2378186 Z" id="Shape"></path>
                            <path d="M16.8665667,26.2378186 C16.0597386,26.2378186 15.3435202,25.7212847 15.0886432,24.9557721 L7.5923913,2.46701649 C7.26491211,1.48509651 7.79544134,0.423618628 8.77736132,0.0961394303 C9.75928129,-0.231339767 10.8207592,0.299189467 11.1482384,1.28110945 L18.6444902,23.7698651 C18.8344224,24.3414785 18.7383807,24.9695238 18.3862991,25.4582515 C18.0342177,25.9469792 17.4689084,26.2369623 16.8665667,26.2378186 L16.8665667,26.2378186 Z" id="Shape"></path>
                            <path d="M13.7368815,16.8665667 L5.00374813,16.8665667 C3.96873183,16.8665667 3.12968515,16.02752 3.12968515,14.9925037 C3.12968515,13.9574874 3.96873183,13.1184408 5.00374813,13.1184408 L13.7368815,13.1184408 C14.7718978,13.1184408 15.6109446,13.9574874 15.6109446,14.9925037 C15.6109446,16.02752 14.7718978,16.8665667 13.7368815,16.8665667 Z" id="Shape"></path>
                            <path d="M22.4887557,26.2368815 C21.4537393,26.2368815 20.6146926,25.3978349 20.6146926,24.3628186 L20.6146926,1.87406297 C20.6146926,0.839046664 21.4537393,0 22.4887557,0 C23.523772,0 24.3628186,0.839046664 24.3628186,1.87406297 L24.3628186,24.3628186 C24.3628186,25.3978349 23.523772,26.2368815 22.4887557,26.2368815 Z" id="Shape"></path>
                            <path d="M29.9850075,14.9925037 L22.4887557,14.9925037 C21.4537393,14.9925037 20.6146926,14.1534571 20.6146926,13.1184408 L20.6146926,1.87406297 C20.6146926,0.839046664 21.4537393,0 22.4887557,0 L29.9850075,0 C34.125073,0 37.4812593,3.35618628 37.4812593,7.49625187 C37.4812593,11.6363175 34.125073,14.9925037 29.9850075,14.9925037 Z M24.3628186,11.2443778 L29.9850075,11.2443778 C32.0550403,11.2443778 33.7331335,9.56628467 33.7331335,7.49625187 C33.7331335,5.42621908 32.0550403,3.74812593 29.9850075,3.74812593 L24.3628186,3.74812593 L24.3628186,11.2443778 Z" id="Shape"></path>
                            <path d="M44.9775112,26.2368815 C43.9424949,26.2368815 43.1034483,25.3978349 43.1034483,24.3628186 L43.1034483,1.87406297 C43.1034483,0.839046664 43.9424949,0 44.9775112,0 C46.0125275,0 46.8515742,0.839046664 46.8515742,1.87406297 L46.8515742,24.3628186 C46.8515742,25.3978349 46.0125275,26.2368815 44.9775112,26.2368815 Z" id="Shape"></path>
                            <path d="M50.5997001,3.74812593 L39.3553224,3.74812593 C38.3203061,3.74812593 37.4812593,2.90907927 37.4812593,1.87406297 C37.4812593,0.839046664 38.3203061,0 39.3553224,0 L50.5997001,0 C51.6347164,0 52.4737632,0.839046664 52.4737632,1.87406297 C52.4737632,2.90907927 51.6347164,3.74812593 50.5997001,3.74812593 Z" id="Shape"></path>
                            <path d="M50.5997001,26.2368815 L39.3553224,26.2368815 C38.3203061,26.2368815 37.4812593,25.3978349 37.4812593,24.3628186 C37.4812593,23.3278023 38.3203061,22.4887557 39.3553224,22.4887557 L50.5997001,22.4887557 C51.6347164,22.4887557 52.4737632,23.3278023 52.4737632,24.3628186 C52.4737632,25.3978349 51.6347164,26.2368815 50.5997001,26.2368815 Z" id="Shape"></path>
                        </g>
                        <path d="M33.7331335,20.6156297 C33.1307917,20.6147735 32.5654824,20.3247903 32.2134011,19.8360626 C31.8613196,19.3473349 31.7652777,18.7192896 31.9552099,18.1476762 C36.083021,5.7649925 46.4141679,5.62217744 46.8515742,5.62217744 C47.8865905,5.61965315 48.7276928,6.45664404 48.7302401,7.49166042 C48.7327645,8.5266768 47.8957735,9.36777903 46.8607572,9.37031485 C46.4973763,9.37574963 38.7522489,9.60907047 35.511057,19.3335833 C35.2561799,20.0990958 34.5399616,20.6156297 33.7331335,20.6156297 Z" id="Shape" fill="#ECF0F1"></path>
                    </g>
                </g>
            </g>
        </g>
    </g>
</svg>