<?xml version="1.0" encoding="UTF-8"?>
<svg width="88px" height="100px" viewBox="0 0 88 100" version="1.1" xmlns="http://www.w3.org/2000/svg" xmlns:xlink="http://www.w3.org/1999/xlink">
    <title>Cloud Computing</title>
    <g id="Onboarding" stroke="none" stroke-width="1" fill="none" fill-rule="evenodd">
        <g id="Landing" transform="translate(-785.000000, -1437.000000)" fill-rule="nonzero">
            <g id="Group-11" transform="translate(199.000000, 1437.000000)">
                <g id="Group-8" transform="translate(586.000000, 0.000000)">
                    <g id="Cloud-Computing" transform="translate(0.000000, 0.000000)">
                        <path d="M85.3181822,35.2188109 C85.3469847,44.2070008 78.7246703,51.9210816 69.9157715,53.1631469 C69.606018,53.2058715 71.8200684,53.1852723 43.1091308,53.2730102 C36.2754822,53.2951355 27.6885986,53.3218383 16.899109,53.3578531 C8.04672246,53.3851623 0.821685742,46.2051391 0.793296957,37.3512267 C0.766754102,28.8337707 7.40509024,21.8513488 15.7440185,21.2837219 C16.6053772,21.2249755 17.3164367,20.5924988 17.5102235,19.7509765 C20.1499939,8.26187129 30.5908203,-0.284576367 42.9420471,0.00686644531 C53.225708,0.244903515 62.2955322,6.6047668 66.0713195,16.1254883 C66.3635254,16.8624879 67.0753478,17.339325 67.8672791,17.3599242 C77.4345398,17.6071168 85.2874755,25.4409789 85.3181822,35.2188109 Z" id="Path" fill="#BF5C4F"></path>
                        <path d="M85.3181822,35.2188109 C85.3469847,44.2070008 78.7246703,51.9210816 69.9157715,53.1631469 C69.606018,53.2058715 71.8200684,53.1852723 43.1091308,53.2730102 L42.9420471,0.00686644531 C53.225708,0.244903515 62.2955322,6.6047668 66.0713195,16.1254883 C66.3635254,16.8624879 67.0753478,17.339325 67.8672791,17.3599242 C77.4345398,17.6071168 85.2874755,25.4409789 85.3181822,35.2188109 Z" id="Path" fill="#A22926"></path>
                        <path d="M80.5084228,75.7499695 C83.8974,74.520874 86.3204957,71.2646485 86.3082886,67.4568175 C86.2937928,62.6121522 82.3387146,58.6799621 77.4917602,58.6952209 C73.6839295,58.7074279 70.4429627,61.1511231 69.2352295,64.5477295 L51.4205934,64.6041871 C50.5256653,62.1398925 48.5603332,60.1867675 46.0906983,59.3078614 L46.0296631,39.7979736 C51.1299133,38.4635925 54.8980713,33.8073731 54.8805236,28.2951355 C54.8599242,21.762085 49.5269775,16.4619445 42.9931641,16.4823655 C36.4601135,16.5031434 31.1599731,21.83609 31.1805725,28.3699035 C31.1981201,33.882141 34.9952697,38.5139465 40.1046754,39.8170471 L40.1657105,59.3261719 C37.7021789,60.2203369 35.7490539,62.1864318 34.8701476,64.6560668 L17.0547485,64.7117615 C15.8256531,61.3227844 12.5694275,58.8996886 8.76159668,58.9118957 C3.91464238,58.9271545 -0.0152587891,62.8837586 -0.000132087019,67.728424 C0.0122070313,71.5362549 2.45513906,74.7772216 5.85250859,75.9849549 L5.87463379,82.9452515 C2.48565664,84.1743469 0.0617980469,87.4313355 0.0740050781,91.2391664 C0.0892638672,96.0838318 4.04434199,100.015259 8.8905334,100.000132 C13.7374879,99.9847409 17.6673889,96.0281373 17.6521301,91.1834718 C17.6399231,87.3756408 15.1962281,84.134674 11.7996215,82.926941 L11.7774963,75.9666444 C14.2417908,75.0740051 16.1949158,73.1086731 17.0738221,70.6375121 L34.8884582,70.5810547 C35.7826233,73.046875 37.7479553,75 40.2183534,75.8773805 L40.2397156,82.8369141 C36.8507385,84.0667725 34.4276428,87.3229981 34.4398498,91.1308291 C34.4551086,95.9754945 38.4094238,99.9076845 43.2563781,99.8924255 C48.1025695,99.8771664 52.0324707,95.9205627 52.0172119,91.0758973 C52.0050049,87.2680664 49.5620726,84.0263367 46.1647034,82.8186035 L46.143341,75.8583068 C48.6068726,74.9664306 50.5599976,73.0010986 51.4389039,70.5291748 L69.25354,70.4727172 C70.148468,72.9393005 72.1138,74.8916625 74.5834352,75.769043 L74.6055604,82.7293396 C71.2165832,83.9584352 68.7934875,87.2146605 68.8049316,91.0224918 C68.8201905,95.86792 72.7752685,99.7993473 77.62146,99.7840882 C82.4684143,99.7688291 86.3983155,95.8122255 86.3831887,90.96756 C86.3708496,87.158966 83.9271545,83.9179992 80.5305481,82.710266 L80.5084228,75.7499695 Z M8.87222285,94.0750367 C7.29217539,94.07959 6.00433359,92.7978518 5.99896855,91.2200927 C5.99441524,89.6400451 7.27386485,88.3522034 8.85391231,88.3475925 C10.43396,88.3422852 11.7218017,89.6217345 11.7271668,91.2017818 C11.7317199,92.7803036 10.4522705,94.0696718 8.87222285,94.0750367 Z M8.79821777,70.5643031 C7.21817012,70.5696105 5.93032832,69.2893983 5.92496347,67.7093505 C5.92041015,66.1315918 7.19985957,64.8422242 8.77990723,64.8368505 C10.3599549,64.831543 11.6477966,66.1132813 11.6531615,67.6918029 C11.6577148,69.2718505 10.3782655,70.5589295 8.79821777,70.5643031 Z M37.105505,28.3508301 C37.0956422,25.0839235 39.7453308,22.41745 43.0122375,22.4074675 C46.2791444,22.3968505 48.9456175,25.0473024 48.9556001,28.3134461 C48.966217,31.5803527 46.3157655,34.2468262 43.0496215,34.2575628 C39.7827148,34.2674255 37.1162414,31.6177367 37.105505,28.3508301 Z M43.2373047,93.9667083 C41.657257,93.9720155 40.3694153,92.6902773 40.3648044,91.1117555 C40.3594971,89.5324707 41.6389465,88.2446289 43.2189942,88.2392551 C44.7990418,88.2339476 46.0868836,89.5141602 46.0922486,91.0942082 C46.0968017,92.6719664 44.8173524,93.9613345 43.2373047,93.9667083 Z M43.1632996,70.4559658 C41.5832519,70.4612733 40.2954102,69.1810607 40.2907992,67.6010133 C40.285492,66.0232543 41.5649414,64.7338867 43.1449891,64.7285129 C44.7250367,64.7232055 46.0128785,66.0049437 46.0182522,67.5834656 C46.0235595,69.1635133 44.7433473,70.4513551 43.1632996,70.4559658 Z M77.6023865,93.8583711 C76.0223389,93.8636782 74.73526,92.58194 74.7298864,91.0041809 C74.7245789,89.4241332 76.0047912,88.1362914 77.5848389,88.1309265 C79.1648865,88.1263733 80.4519653,89.4058226 80.4573391,90.98587 C80.4626465,92.5636291 79.182434,93.85376 77.6023865,93.8583711 L77.6023865,93.8583711 Z M77.5291444,70.3483826 C75.9490966,70.3529357 74.6612549,69.0734864 74.6558898,67.4934386 C74.6513367,65.9156799 75.9307861,64.6255492 77.5108338,64.6201844 C79.0908813,64.6156311 80.3787231,65.8973694 80.383334,67.4751281 C80.3886414,69.0551758 79.1084289,70.3430175 77.5291444,70.3483826 Z" id="Shape" fill="#A22926"></path>
                        <path d="M80.5305481,82.710266 L80.5084228,75.7499695 C83.8974,74.520874 86.3204957,71.2646485 86.3082886,67.4568175 C86.2937928,62.6121522 82.3387146,58.6799621 77.4917602,58.6952209 C73.6839295,58.7074279 70.4429627,61.1511231 69.2352295,64.5477295 L51.4205934,64.6041871 C50.5256653,62.1398925 48.5603332,60.1867675 46.0906983,59.3078614 L46.0296631,39.7979736 C51.1428832,38.4719847 54.8980713,33.8165284 54.8805236,28.2951355 C54.8599242,21.762085 49.5269775,16.4619445 42.9931641,16.4824246 L43.0122375,22.4075316 C46.2791444,22.3968505 48.9456175,25.0473024 48.9555359,28.3134461 C48.966217,31.5803527 46.3157655,34.2468262 43.0496215,34.2575075 L43.1449891,64.7285461 C44.7250367,64.7232055 46.0128785,66.0049437 46.0182189,67.5834656 C46.0227966,69.1635133 44.7433473,70.450592 43.1632996,70.4559326 L43.2189942,88.2392883 C44.7990418,88.2339476 46.0868836,89.5141602 46.0922242,91.0942082 C46.0968017,92.6719664 44.8173524,93.9613345 43.2373047,93.9666745 L43.2563781,99.8916627 C48.1025695,99.8764036 52.0324707,95.9198 52.0172119,91.0751345 C52.0050049,87.2673035 49.5620726,84.0263367 46.1647034,82.8186035 L46.1425781,75.8583068 C48.6068726,74.9656678 50.5599976,73.0003357 51.4389039,70.5291748 L69.25354,70.4727172 C70.148468,72.9385375 72.1138,74.8916625 74.5834352,75.769043 L74.6055604,82.7285765 C71.2158203,83.9584352 68.7927246,87.2146605 68.8049316,91.0224918 C68.8201905,95.8671573 72.7745056,99.7993473 77.62146,99.7840882 C82.4684143,99.7688291 86.3975525,95.8122255 86.3831364,90.96756 C86.3708496,87.158966 83.9271545,83.9179992 80.5305481,82.710266 L80.5305481,82.710266 Z M77.6023865,93.8583711 C76.0223389,93.8636782 74.73526,92.58194 74.7298864,91.0041809 C74.7245789,89.4241332 76.0047912,88.1362914 77.5848389,88.1309265 C79.1648865,88.1263733 80.4519653,89.4058226 80.4573391,90.98587 C80.4626465,92.5636291 79.182434,93.85376 77.6023865,93.8583711 L77.6023865,93.8583711 Z M77.5291444,70.3483826 C75.9490966,70.3529357 74.6612549,69.0734864 74.6558898,67.4934386 C74.6513367,65.9156799 75.9307861,64.6255492 77.5108338,64.6201844 C79.0908813,64.6156311 80.3787231,65.8973694 80.383334,67.4751281 C80.3886414,69.0551758 79.1084289,70.3430175 77.5291444,70.3483826 Z" id="Shape" fill="#5E2C22"></path>
                    </g>
                </g>
            </g>
        </g>
    </g>
</svg>