<?xml version="1.0" encoding="UTF-8"?>
<svg width="101px" height="100px" viewBox="0 0 101 100" version="1.1" xmlns="http://www.w3.org/2000/svg" xmlns:xlink="http://www.w3.org/1999/xlink">
    <title>Open-Source &amp; Auditable</title>
    <g id="Onboarding" stroke="none" stroke-width="1" fill="none" fill-rule="evenodd">
        <g id="Landing" transform="translate(-199.000000, -1773.000000)" fill-rule="nonzero">
            <g id="Group-11" transform="translate(199.000000, 1437.000000)">
                <g id="Open-Source-&amp;-Auditable" transform="translate(0.000000, 336.000000)">
                    <path d="M93.9518145,36.2903226 C93.0610887,36.2903226 92.3389113,37.0125 92.3389113,37.9032258 L92.3389113,60.0627016 L83.1887097,38.0435484 L88.9764113,35.6540323 C89.7997984,35.3141129 90.1917339,34.3711694 89.8518145,33.5477823 C89.5118952,32.7241935 88.56875,32.3324597 87.7455645,32.672379 L81.9510081,35.0645161 L72.7143145,12.8379032 L88.5653226,28.6889113 C88.8804435,29.0038306 89.2929435,29.1612903 89.7058468,29.1612903 C91.1302419,29.1612903 91.8653226,27.4270161 90.846371,26.4078629 L73.5923387,9.15383065 C72.6491935,8.21108871 71.0381048,8.76028226 70.8560484,10.0715726 C69.5772177,9.75322581 68.4693548,11.0296371 68.9782258,12.2542339 L78.96875,36.2959677 L68.6451613,40.5578629 L59.4425403,31.3552419 L67.3274194,12.2568548 C67.6675403,11.4336694 67.2754032,10.4905242 66.4520161,10.1506048 C65.6294355,9.8108871 64.6856855,10.2024194 64.3457661,11.0260081 L56.9719758,28.8846774 L45.3534274,17.266129 L63.1772177,9.86048387 C63.9997984,9.51875 64.3897177,8.57479839 64.0477823,7.75221774 C63.7060484,6.92943548 62.7614919,6.53971774 61.9395161,6.88165323 L42.8864919,14.7991935 L37.2715726,9.18427419 C36.6415323,8.5546371 35.6205645,8.5546371 34.9905242,9.18427419 C34.3606855,9.81431452 34.3606855,10.8352823 34.9905242,11.4653226 L39.6637097,16.1385081 L27.2671371,21.2899194 L31.0219758,12.2542339 C31.5314516,11.0278226 30.4207661,9.75362903 29.1441532,10.0715726 C28.9620968,8.76108871 27.3516129,8.21068548 26.4078629,9.15383065 L9.15383065,26.4078629 C8.21229839,27.3497984 8.75766129,28.9618952 10.0715726,29.1441532 C9.75342742,30.4203629 11.0274194,31.5316532 12.2542339,31.0219758 L21.290121,27.2667339 L13.5897177,45.7971774 L9.86048387,36.8229839 C9.51875,36.0002016 8.57399194,35.6104839 7.75221774,35.9524194 C6.9296371,36.2941532 6.53971774,37.2381048 6.88165323,38.0606855 L11.8431452,50 L6.88165323,61.9397177 C6.53991935,62.7622984 6.9296371,63.70625 7.75221774,64.0479839 C8.57802419,64.3913306 9.52016129,63.9965726 9.86048387,63.1774194 L13.5897177,54.2032258 L16.8116935,61.9564516 L11.0237903,64.3459677 C9.39233871,65.0193548 9.8891129,67.45 11.6399194,67.45 C12.0810484,67.45 11.7965726,67.5167339 18.0495968,64.9352823 L27.2860887,87.1622984 L11.4350806,71.3112903 C10.8050403,70.6816532 9.78407258,70.6816532 9.15403226,71.3112903 C8.52419355,71.9413306 8.52419355,72.9622984 9.15403226,73.5923387 L26.4080645,90.846371 C27.3415323,91.7794355 28.9616935,91.2556452 29.1445565,89.9268145 C30.4425403,90.2497984 31.525,88.95625 31.0221774,87.7459677 L21.0314516,63.7042339 L47.0282258,52.9719758 L32.6727823,87.7453629 C32.2334677,88.8090726 33.0203629,89.9741935 34.1631048,89.9741935 C34.7967742,89.9741935 35.3977823,89.5983871 35.6544355,88.9764113 L51.2352823,51.2352823 L67.8864919,44.3610887 L88.5350806,65.0096774 C89.46875,65.9427419 91.0594758,65.4153226 91.2665323,64.1260081 C91.9840726,64.2925403 92.6584677,63.965121 93.0038306,63.3995968 C94.0637097,64.1721774 95.5647177,63.4169355 95.5647177,62.0967742 L95.5647177,37.9032258 C95.5647177,37.0125 94.8425403,36.2903226 93.9518145,36.2903226 Z M12.8381048,27.2858871 L27.2860887,12.8379032 L23.0447581,23.0445565 L12.8381048,27.2858871 Z M19.7933468,60.7254032 L15.3364919,50 L25.5129032,25.5114919 L42.1308468,18.6050403 L55.6391129,32.1133065 L48.7649194,48.7649194 L19.7933468,60.7254032 Z M52.9719758,47.0282258 L58.1094758,34.5840726 L65.416129,41.8907258 L52.9719758,47.0282258 Z M71.1155242,43.0278226 L80.2068548,39.2745968 L89.3397177,61.2520161 L71.1155242,43.0278226 Z" id="Shape" fill="#BF5C4F"></path>
                    <path d="M87.7419355,68.9804435 L36.8225806,90.1397177 C35.6052419,90.6455645 35.4814516,92.3189516 36.6012097,93.002621 C35.827621,94.0620968 36.5826613,95.5645161 37.9032258,95.5645161 L62.0967742,95.5645161 C62.9875,95.5645161 63.7096774,94.8423387 63.7096774,93.9516129 C63.7096774,93.0608871 62.9875,92.3387097 62.0967742,92.3387097 L39.9375,92.3387097 L88.9800403,71.9592742 C89.802621,71.6175403 90.1923387,70.6733871 89.8504032,69.8508065 C89.5084677,69.0282258 88.5645161,68.6387097 87.7419355,68.9804435 L87.7419355,68.9804435 Z" id="Path" fill="#BF5C4F"></path>
                    <circle id="Oval" fill="#A22926" cx="68.1453629" cy="93.9516129" r="6.0483871"></circle>
                    <path d="M74.19375,93.9516129 C74.19375,99.403629 67.5290323,102.034677 63.7965726,98.1512097 C69.0469758,98.8534274 73.1173387,93.6885081 71.1030242,88.6774194 C72.9477823,89.7116935 74.19375,91.6854839 74.19375,93.9516129 Z" id="Path" fill="#5E2C22"></path>
                    <circle id="Oval" fill="#A22926" cx="31.8550403" cy="93.9516129" r="6.0483871"></circle>
                    <path d="M37.9034274,93.9516129 C37.9034274,99.4092742 31.2362903,102.032056 27.50625,98.1512097 C32.7566532,98.8534274 36.8270161,93.6885081 34.8127016,88.6774194 C36.6574597,89.7116935 37.9034274,91.6854839 37.9034274,93.9516129 L37.9034274,93.9516129 Z" id="Path" fill="#5E2C22"></path>
                    <circle id="Oval" fill="#A22926" cx="68.1453629" cy="6.0483871" r="6.0483871"></circle>
                    <path d="M74.19375,6.0483871 C74.19375,11.5004032 67.5290323,14.1314516 63.7965726,10.2479839 C69.0469758,10.9502016 73.1173387,5.78528226 71.1030242,0.774193548 C72.9477823,1.80846774 74.19375,3.78225806 74.19375,6.0483871 Z" id="Path" fill="#5E2C22"></path>
                    <circle id="Oval" fill="#A22926" cx="31.8550403" cy="6.0483871" r="6.0483871"></circle>
                    <path d="M37.9034274,6.0483871 C37.9034274,11.5060484 31.2362903,14.1288306 27.50625,10.2479839 C32.7566532,10.9502016 36.8270161,5.78528226 34.8127016,0.774193548 C36.6574597,1.80846774 37.9034274,3.78225806 37.9034274,6.0483871 L37.9034274,6.0483871 Z" id="Path" fill="#5E2C22"></path>
                    <circle id="Oval" fill="#A22926" cx="93.9518145" cy="68.1451613" r="6.0483871"></circle>
                    <path d="M100.000202,68.1451613 C100.000202,73.6028226 93.3330645,76.2256048 89.6030242,72.3447581 C94.8534274,73.0469758 98.9237903,67.8820565 96.9094758,62.8709677 C98.7542339,63.9052419 100.000202,65.8790323 100.000202,68.1451613 Z" id="Path" fill="#5E2C22"></path>
                    <circle id="Oval" fill="#A22926" cx="93.9518145" cy="31.8548387" r="6.0483871"></circle>
                    <path d="M100.000202,31.8548387 C100.000202,37.3068548 93.3354839,39.9379032 89.6030242,36.0544355 C94.8534274,36.7566532 98.9237903,31.5917339 96.9094758,26.5806452 C98.7542339,27.6149194 100.000202,29.5887097 100.000202,31.8548387 L100.000202,31.8548387 Z" id="Path" fill="#5E2C22"></path>
                    <circle id="Oval" fill="#A22926" cx="6.04858871" cy="31.8548387" r="6.0483871"></circle>
                    <path d="M12.0969758,31.8548387 C12.0969758,37.3125 5.42983871,39.9352823 1.69979839,36.0544355 C6.95020161,36.7566532 11.0205645,31.5917339 9.00625,26.5806452 C10.8510081,27.6149194 12.0969758,29.5887097 12.0969758,31.8548387 L12.0969758,31.8548387 Z" id="Path" fill="#5E2C22"></path>
                    <circle id="Oval" fill="#A22926" cx="6.04858871" cy="68.1451613" r="6.0483871"></circle>
                    <path d="M12.0969758,68.1451613 C12.0969758,73.6028226 5.42983871,76.2256048 1.69979839,72.3447581 C6.95020161,73.0469758 11.0205645,67.8820565 9.00625,62.8709677 C10.8510081,63.9052419 12.0969758,65.8790323 12.0969758,68.1451613 Z" id="Path" fill="#5E2C22"></path>
                </g>
            </g>
        </g>
    </g>
</svg>