<?xml version="1.0" encoding="UTF-8"?>
<svg width="100px" height="100px" viewBox="0 0 100 100" version="1.1" xmlns="http://www.w3.org/2000/svg" xmlns:xlink="http://www.w3.org/1999/xlink">
    <title>Algoritghm</title>
    <g id="Onboarding" stroke="none" stroke-width="1" fill="none" fill-rule="evenodd">
        <g id="Landing" transform="translate(-199.000000, -2109.000000)" fill-rule="nonzero">
            <g id="Group-11" transform="translate(199.000000, 1437.000000)">
                <g id="Algoritghm" transform="translate(0.000000, 672.000000)">
                    <path d="M100,10.3449219 L100,96.5517582 C99.9943364,98.4539064 98.4539064,99.9945309 96.5517582,100 L3.44824219,100 C1.54609375,99.9943364 0.0056640625,98.4539064 0,96.5517582 L0,10.3449219 L100,10.3449219 Z" id="Path" fill="#BF5C4F"></path>
                    <path d="M100,3.44824219 L100,13.7931641 L0,13.7931641 L0,3.44824219 C0.00546875,1.54609375 1.54609375,0.00546875 3.44824219,0 L96.5517582,0 C98.4539064,0.00546875 99.9945309,1.54609375 100,3.44824219 Z" id="Path" fill="#A22926"></path>
                    <path d="M6.89648437,8.62070313 C6.43945313,8.61738281 6.00097656,8.43847656 5.67226563,8.12070313 C5.52011719,7.95292969 5.39765625,7.76054687 5.31015625,7.5515625 C5.12597656,7.13398437 5.12597656,6.65839844 5.31015625,6.24082031 C5.38925781,6.02792969 5.51269531,5.83417969 5.67226563,5.67246094 C5.75371094,5.59804687 5.83984375,5.52890625 5.92988281,5.46542969 C6.02636719,5.4 6.13105469,5.34746094 6.24140625,5.30976563 C6.33886719,5.26015625 6.44335937,5.22558594 6.55117187,5.20703125 C6.88710937,5.13652344 7.23671875,5.17246094 7.55136719,5.30976563 C7.7625,5.39316406 7.95566406,5.51640625 8.12050781,5.67265625 C8.78730469,6.35253906 8.78730469,7.44101563 8.12050781,8.12089844 C8.03457031,8.18984375 7.94707031,8.25898437 7.84433594,8.32714844 C7.75644531,8.39570313 7.65722656,8.44824219 7.55136719,8.4828125 C7.34433594,8.57109375 7.121875,8.61796875 6.89648437,8.62070313 Z" id="Path" fill="#FFFFFF"></path>
                    <path d="M13.7931641,8.62070313 C13.3367187,8.61386719 12.8996094,8.43535156 12.5689453,8.12070313 C12.4167969,7.95292969 12.2943359,7.76054687 12.2068359,7.5515625 C12.1185547,7.34433594 12.0716797,7.121875 12.0689453,6.89648437 C12.0716797,6.43925781 12.2507813,6.00078125 12.5689453,5.67226563 C13.0621094,5.175 13.8074219,5.02539063 14.4542969,5.29394531 C15.1011719,5.5625 15.5212891,6.19589844 15.5172466,6.89628906 C15.5103515,7.35273437 15.3318359,7.78964844 15.0171875,8.12050781 C14.6882813,8.43789063 14.25,8.61679687 13.7931641,8.62070313 Z" id="Path" fill="#FFFFFF"></path>
                    <path d="M20.6896485,8.62070313 C20.2310547,8.62519531 19.7898437,8.44492187 19.465625,8.12070313 C19.1414063,7.79648437 18.9611328,7.35527344 18.965625,6.89667969 C18.9716797,6.44003906 19.1501953,6.00273437 19.465625,5.67246094 C19.8783203,5.278125 20.4546875,5.10507813 21.0164063,5.20703125 C21.1308594,5.22285156 21.2417969,5.25761719 21.3447265,5.30976563 C21.4544922,5.34765625 21.5585937,5.4 21.6544922,5.46542969 C21.7451172,5.52890625 21.8318359,5.59804687 21.9138672,5.67246094 C22.5806641,6.35234375 22.5806641,7.44082031 21.9138672,8.12050781 C21.8318359,8.19453125 21.7453125,8.26347656 21.6544922,8.32675781 C21.5585937,8.3921875 21.4544922,8.44453125 21.3447265,8.48242187 C21.2416015,8.534375 21.1306641,8.56933594 21.0164063,8.5859375 C20.9085937,8.60585937 20.7992187,8.61757813 20.6896485,8.62070313 Z" id="Path" fill="#FFFFFF"></path>
                    <g id="Group" transform="translate(36.132813, 5.078125)" fill="#E6E7E8">
                        <path d="M25.9361328,3.54257813 L1.79824219,3.54257813 C0.84609375,3.54257813 0.0740234375,2.77070313 0.0740234375,1.81835937 C0.0740234375,0.866015625 0.845898437,0.0941406255 1.79824219,0.0941406255 L25.9361328,0.0941406255 C26.8882813,0.0941406255 27.6603515,0.866015625 27.6603515,1.81835937 C27.6603515,2.77070313 26.8882813,3.54257813 25.9361328,3.54257813 Z" id="Path"></path>
                        <path d="M56.9707031,3.54257813 L55.2464844,3.54257813 C54.2943359,3.54257813 53.5222656,2.77070313 53.5222656,1.81835937 C53.5222656,0.866015625 54.2941406,0.0941406255 55.2464844,0.0941406255 L56.9707031,0.0941406255 C57.9228515,0.0941406255 58.6949219,0.866015625 58.6949219,1.81835937 C58.6949219,2.77070313 57.9228515,3.54257813 56.9707031,3.54257813 Z" id="Path"></path>
                        <path d="M48.35,3.54257813 L46.6257813,3.54257813 C45.6736328,3.54257813 44.9015625,2.77070313 44.9015625,1.81835937 C44.9015625,0.866015625 45.6734375,0.0941406255 46.6257813,0.0941406255 L48.35,0.0941406255 C49.3021485,0.0941406255 50.0742187,0.866015625 50.0742187,1.81835937 C50.0742187,2.77070313 49.3021485,3.54257813 48.35,3.54257813 Z" id="Path"></path>
                    </g>
                    <g id="Group" transform="translate(15.429687, 22.265625)" fill="#D3D3D3">
                        <path d="M29.3978515,5.32050781 L18.0427735,5.32050781 L13.3755859,0.653320313 C12.7011719,-0.0126953125 11.6154297,-0.009375 10.9453125,0.6609375 C10.275,1.33125 10.2716797,2.41679687 10.9376953,3.09121094 L13.1669922,5.32050781 L1.81171875,5.32050781 C0.859570313,5.32050781 0.0875,6.09238281 0.0875,7.04472656 C0.0875,7.99707031 0.859375,8.76894531 1.81171875,8.76894531 L13.1667969,8.76894531 L10.9375,10.9982422 C10.4974609,11.4328125 10.3238281,12.0699219 10.4828125,12.6675781 C10.6416015,13.2652344 11.1085937,13.7322265 11.70625,13.8910156 C12.3041015,14.0498047 12.9410156,13.8761719 13.3755859,13.4361328 L18.0429687,8.76894531 L29.3980469,8.76894531 C30.3501953,8.76894531 31.1222656,7.99707031 31.1222656,7.04472656 C31.1222656,6.09238281 30.3501953,5.32050781 29.3978515,5.32050781 Z" id="Path"></path>
                        <path d="M77.6738281,5.32050781 L53.5357422,5.32050781 C52.5835937,5.32050781 51.8115235,6.09238281 51.8115235,7.04472656 C51.8115235,7.99707031 52.5833985,8.76894531 53.5357422,8.76894531 L75.9496094,8.76894531 L75.9496094,29.4585937 L43.9048828,29.4585937 L46.1341797,27.2292969 C46.5742187,26.7947265 46.7478515,26.1576172 46.5888672,25.5599609 C46.4300781,24.9623047 45.9630859,24.4953125 45.3654297,24.3365235 C44.7675781,24.1777344 44.1306641,24.3513672 43.6960937,24.7914063 L39.0287109,29.4585937 L31.121875,29.4585937 C30.1697265,29.4585937 29.3976563,30.2304687 29.3976563,31.1828125 C29.3976563,32.1351563 30.1695313,32.9070313 31.121875,32.9070313 L39.0287109,32.9070313 L43.6958985,37.5742187 C44.3703125,38.2402344 45.4560547,38.2369141 46.1261719,37.5666015 C46.7962891,36.8962891 46.7998047,35.8107422 46.1337891,35.1363281 L43.9044922,32.9070313 L77.6738281,32.9070313 C78.1310547,32.9072265 78.5697265,32.7255859 78.8931641,32.4021485 C79.2166015,32.0787109 79.398047,31.6402344 79.398047,31.1828125 L79.398047,7.04472656 C79.398047,6.5875 79.2166015,6.14882813 78.8931641,5.82539063 C78.5697265,5.50214844 78.1310547,5.32050781 77.6738281,5.32050781 Z" id="Path"></path>
                        <path d="M67.3289063,60.4929687 L59.4220703,60.4929687 L54.7548828,55.8257813 C54.0804687,55.1597656 52.9947265,55.1630859 52.3246094,55.8333985 C51.6544922,56.5037109 51.6509765,57.5892578 52.3169922,58.2636719 L54.5462891,60.4929687 L25.9496094,60.4929687 C24.9974609,60.4929687 24.2253906,61.2648437 24.2253906,62.2171875 C24.2253906,63.1695313 24.9972656,63.9414063 25.9496094,63.9414063 L54.5460937,63.9414063 L52.3167969,66.1707031 C51.8767578,66.6052735 51.703125,67.2423828 51.8621094,67.8400391 C52.0208985,68.4376953 52.4878906,68.9046875 53.0855469,69.0634765 C53.6833985,69.2222656 54.3203125,69.0486328 54.7548828,68.6085937 L59.4222656,63.9414063 L67.3291015,63.9414063 C68.28125,63.9414063 69.0533203,63.1695313 69.0533203,62.2171875 C69.0533203,61.2648437 68.2810547,60.4929687 67.3289063,60.4929687 Z" id="Path"></path>
                        <path d="M21.2824219,43.7568359 L19.053125,45.9861328 L19.053125,36.3552735 C19.053125,35.403125 18.28125,34.6310547 17.3289063,34.6310547 C16.3765625,34.6310547 15.6046875,35.4029297 15.6046875,36.3552735 L15.6046875,45.9861328 L13.3753906,43.7568359 C12.7009765,43.0908203 11.6152344,43.0943359 10.9451172,43.7644531 C10.2748047,44.4347656 10.2714844,45.5203125 10.9375,46.1947265 L15.6046875,50.8621094 L15.6046875,58.7689453 C15.6046875,59.7210937 14.6525391,62.2171875 15.6046875,62.2171875 C17.1808594,61.5931641 18.4289063,60.3451172 19.0529297,58.7689453 L19.0529297,50.8621094 L23.7201172,46.1949219 C24.3861328,45.5205078 24.3828125,44.4347656 23.7125,43.7646485 C23.0425781,43.0941406 21.9568359,43.0908203 21.2824219,43.7568359 Z" id="Path"></path>
                    </g>
                    <g id="Group" transform="translate(6.835937, 22.265625)">
                        <circle id="Oval" fill="#A22926" cx="6.95722656" cy="7.04472656" r="6.89648437"></circle>
                        <circle id="Oval" fill="#874239" cx="79.3708985" cy="62.2171875" r="6.89648437"></circle>
                    </g>
                    <path d="M43.1035156,22.4138672 L70.6896485,22.4138672 C71.6417969,22.4138672 72.4138672,23.1857422 72.4138672,24.1380859 L72.4138672,34.4830078 C72.4138672,35.4351563 71.6419922,36.2072265 70.6896485,36.2072265 L43.1035156,36.2072265 C42.1513672,36.2072265 41.3792969,35.4353515 41.3792969,34.4830078 L41.3792969,24.1380859 C41.3792969,23.1857422 42.1511719,22.4138672 43.1035156,22.4138672 Z" id="Path" fill="#5E2C22"></path>
                    <path d="M18.9654297,46.5517578 L46.5515625,46.5517578 C47.5037109,46.5517578 48.2757813,47.3236328 48.2757813,48.2759765 L48.2757813,58.6208985 C48.2757813,59.5730469 47.5039063,60.3451172 46.5515625,60.3451172 L18.9654297,60.3451172 C18.0132813,60.3451172 17.2412109,59.5732422 17.2412109,58.6208985 L17.2412109,48.2759765 C17.2412109,47.3236328 18.0132813,46.5517578 18.9654297,46.5517578 Z" id="Path" fill="#A22926"></path>
                    <polygon id="Path" fill="#5E2C22" points="41.3792969 91.3792973 17.2414063 91.3792973 24.1378906 77.5861328 48.2757813 77.5861328"></polygon>
                </g>
            </g>
        </g>
    </g>
</svg>