<?xml version="1.0" encoding="UTF-8"?>
<svg width="100px" height="100px" viewBox="0 0 100 100" version="1.1" xmlns="http://www.w3.org/2000/svg" xmlns:xlink="http://www.w3.org/1999/xlink">
    <title>Graphic</title>
    <g id="Onboarding" stroke="none" stroke-width="1" fill="none" fill-rule="evenodd">
        <g id="Landing" transform="translate(-781.000000, -2109.000000)">
            <g id="Group-11" transform="translate(199.000000, 1437.000000)">
                <g id="Graphic" transform="translate(582.000000, 672.000000)">
                    <rect id="Rectangle" fill="#A22926" x="18" y="0" width="6" height="100"></rect>
                    <rect id="Rectangle-Copy" fill="#5E2C22" x="32" y="0" width="6" height="100"></rect>
                    <rect id="Rectangle-Copy-2" fill="#A22926" x="46" y="0" width="6" height="100"></rect>
                    <rect id="Rectangle-Copy-3" fill="#5E2C22" x="60" y="0" width="6" height="100"></rect>
                    <rect id="Rectangle-Copy-4" fill="#A22926" x="74" y="0" width="6" height="100"></rect>
                    <rect id="Rectangle" fill="#5E2C22" transform="translate(50.000000, 77.000000) rotate(-90.000000) translate(-50.000000, -77.000000) " x="47" y="27" width="6" height="100"></rect>
                    <rect id="Rectangle-Copy" fill="#A22926" transform="translate(50.000000, 63.000000) rotate(-90.000000) translate(-50.000000, -63.000000) " x="47" y="13" width="6" height="100"></rect>
                    <rect id="Rectangle-Copy-2" fill="#5E2C22" transform="translate(50.000000, 49.000000) rotate(-90.000000) translate(-50.000000, -49.000000) " x="47" y="-1" width="6" height="100"></rect>
                    <rect id="Rectangle-Copy-3" fill="#A22926" transform="translate(50.000000, 35.000000) rotate(-90.000000) translate(-50.000000, -35.000000) " x="47" y="-15" width="6" height="100"></rect>
                    <rect id="Rectangle-Copy-4" fill="#5E2C22" transform="translate(50.000000, 21.000000) rotate(-90.000000) translate(-50.000000, -21.000000) " x="47" y="-29" width="6" height="100"></rect>
                    <rect id="Rectangle" fill="#BF5C4F" x="12" y="12" width="76" height="76"></rect>
                    <rect id="Rectangle" fill="#A22926" x="50" y="12" width="38" height="76"></rect>
                    <path d="M48.075,29.1123596 C47.456833,29.7235808 47.4512024,30.7201969 48.0624237,31.3383639 C48.0643008,31.3402623 48.0661826,31.3421559 48.0680693,31.3440447 L50.95,34.2292135 L50.95,34.2292135 C50.6312496,34.2106738 50.325,34.1797753 50,34.1797753 C41.2,34.1797753 34,41.2988764 34,50 C34,52.3730337 34.4875008,54.5792131 35.45,56.4764045 C35.9536985,57.4692495 37.5514384,57.3337138 38.2502682,55.7929758 C38.3778787,55.5116277 38.244456,54.948426 37.85,54.1033708 C37.5312496,52.8365172 37.2,51.4213491 37.2,50 C37.2,43.0415738 42.9625008,37.3438202 50,37.3438202 C50.2812496,37.3438202 50.575,37.3747187 50.85,37.3932584 L48.0678922,40.1793739 C47.4535336,40.7946175 47.454251,41.7914069 48.0694946,42.4057655 C48.0713252,42.4075935 48.0731604,42.409417 48.075,42.411236 C48.6990343,43.0282587 49.7028034,43.0301242 50.3291269,42.4154253 L55.95,36.8988764 L55.95,36.8988764 L57.05,35.7617978 L55.95,34.6247191 L50.3291269,29.1081702 C49.7028034,28.4934713 48.6990343,28.4953368 48.075,29.1123596 Z M64.55,43.5235955 C64.0340075,42.5065194 62.7273056,42.3117949 62.0065423,43.9534789 C61.88951,44.2200436 61.9373292,44.8677604 62.15,45.8966292 L62.15,45.8966292 C62.5833333,47.6846447 62.8,49.052435 62.8,50 C62.8,56.9584278 57.0375008,62.6561798 50,62.6561798 C49.7187504,62.6561798 49.425,62.6252813 49.15,62.6067416 L51.9321078,59.8206261 C52.5464664,59.2053825 52.545749,58.2085931 51.9305054,57.5942345 C51.9286748,57.5924065 51.9268396,57.590583 51.925,57.588764 C51.3009657,56.9717413 50.2971966,56.9698758 49.6708731,57.5845747 L44.05,63.1011236 L44.05,63.1011236 L42.95,64.2382022 L44.05,65.3752809 L49.6708731,70.8918298 C50.2971966,71.5065287 51.3009657,71.5046632 51.925,70.8876404 C52.543167,70.2764192 52.5487976,69.2798031 51.9375763,68.6616361 C51.9356992,68.6597377 51.9338174,68.6578441 51.9319307,68.6559553 L49.05,65.7707865 L49.05,65.7707865 C49.3625008,65.7893262 49.6875008,65.8202247 50,65.8202247 C58.8,65.8202247 66,58.7011236 66,50 C66,47.6269663 65.5125008,45.4207869 64.55,43.5235955 Z" id="Icon" fill="#D3D3D3" transform="translate(50.000000, 50.000000) rotate(65.000000) translate(-50.000000, -50.000000) "></path>
                </g>
            </g>
        </g>
    </g>
</svg>